<svg xmlns="http://www.w3.org/2000/svg" viewBox="0 0 500 500"><g id="freepik--background-complete--inject-20"><rect x="416.78" y="398.49" width="33.12" height="0.25" style="fill:#ebebeb"></rect><rect x="322.53" y="401.21" width="8.69" height="0.25" style="fill:#ebebeb"></rect><rect x="396.59" y="389.21" width="19.19" height="0.25" style="fill:#ebebeb"></rect><rect x="52.46" y="390.89" width="43.19" height="0.25" style="fill:#ebebeb"></rect><rect x="104.56" y="390.89" width="6.33" height="0.25" style="fill:#ebebeb"></rect><rect x="131.47" y="395.11" width="93.68" height="0.25" style="fill:#ebebeb"></rect><path d="M238.4,337.8H45.3a5.71,5.71,0,0,1-5.71-5.71V60.66A5.71,5.71,0,0,1,45.3,55H238.4a5.71,5.71,0,0,1,5.71,5.71V332.09A5.71,5.71,0,0,1,238.4,337.8ZM45.3,55.2a5.47,5.47,0,0,0-5.46,5.46V332.09a5.47,5.47,0,0,0,5.46,5.46H238.4a5.47,5.47,0,0,0,5.46-5.46V60.66a5.47,5.47,0,0,0-5.46-5.46Z" style="fill:#ebebeb"></path><path d="M454.7,337.8H261.6a5.71,5.71,0,0,1-5.71-5.71V60.66A5.71,5.71,0,0,1,261.6,55H454.7a5.71,5.71,0,0,1,5.71,5.71V332.09A5.71,5.71,0,0,1,454.7,337.8ZM261.6,55.2a5.47,5.47,0,0,0-5.46,5.46V332.09a5.47,5.47,0,0,0,5.46,5.46H454.7a5.47,5.47,0,0,0,5.46-5.46V60.66a5.47,5.47,0,0,0-5.46-5.46Z" style="fill:#ebebeb"></path><rect y="382.4" width="500" height="0.25" style="fill:#ebebeb"></rect><path d="M210.8,228.24c-5.93,1.11-17,1.86-29.73,1.86s-23.8-.75-29.73-1.86a4.9,4.9,0,0,1-1.09,1.64c-1.93,1.93-5.75,1.24-7,0s-1.93-5,0-7c.41-.41,1.13-.46,1.38-1,2-4.14-1.6-12-1.6-20.54s3.64-16.39,1.6-20.53c-.82-1.66-2.83-2.48-2.83-4.45s2-2.79,2.83-4.45c2-4.13-1.6-12-1.6-20.53s3.64-16.4,1.6-20.53c-.25-.5-1-.55-1.38-1-1.93-1.93-1.24-5.75,0-7s5-1.93,7,0c.48.48.52,1.33,1.09,1.64,5.29,2.9,17-1.85,29.73-1.85s24.44,4.75,29.73,1.85c.56-.31.6-1.16,1.09-1.64,1.92-1.93,5.74-1.24,7,0s1.93,5,0,7c-.41.41-1.14.46-1.38,1-2.05,4.13,1.59,12,1.59,20.53s-3.63,16.4-1.59,20.53c.81,1.66,2.83,2.48,2.83,4.45s-2,2.79-2.83,4.45c-2,4.14,1.59,12,1.59,20.53s-3.64,16.4-1.59,20.54c.24.49,1,.54,1.38,1,1.93,1.93,1.23,5.75,0,7s-5.06,1.93-7,0A4.76,4.76,0,0,1,210.8,228.24Z" style="fill:#e6e6e6"></path><path d="M213.05,228c-5.93,1.11-17,1.85-29.73,1.85s-23.8-.74-29.73-1.85a4.76,4.76,0,0,1-1.09,1.64c-1.93,1.93-5.75,1.24-7,0s-1.93-5,0-7c.41-.41,1.14-.46,1.38-1,2-4.14-1.6-12-1.6-20.54s3.64-16.39,1.6-20.53c-.82-1.66-2.83-2.48-2.83-4.45s2-2.79,2.83-4.45c2-4.14-1.6-12-1.6-20.53s3.64-16.4,1.6-20.54c-.24-.49-1-.54-1.38-.95-1.93-1.93-1.24-5.75,0-7s5-1.93,7,0c.49.48.52,1.33,1.09,1.64,5.29,2.9,17-1.86,29.73-1.86s24.44,4.76,29.73,1.86c.56-.31.6-1.16,1.09-1.64,1.93-1.93,5.75-1.24,7,0s1.93,5,0,7c-.41.41-1.14.46-1.38.95-2.05,4.14,1.59,12,1.59,20.54s-3.63,16.39-1.59,20.53c.82,1.66,2.83,2.48,2.83,4.45s-2,2.79-2.83,4.45c-2,4.14,1.59,12,1.59,20.53s-3.64,16.4-1.59,20.54c.24.49,1,.54,1.38,1,1.93,1.93,1.24,5.75,0,7s-5.05,1.93-7,0A4.76,4.76,0,0,1,213.05,228Z" style="fill:#f5f5f5"></path><rect x="153.57" y="131.84" width="59.5" height="88.69" transform="translate(366.64 352.36) rotate(180)" style="fill:#ebebeb"></rect><rect x="157.67" y="137.96" width="51.29" height="76.45" transform="translate(366.64 352.36) rotate(180)" style="fill:#fafafa"></rect><circle cx="184.26" cy="185.82" r="10.29" transform="translate(-37.76 47.31) rotate(-13.28)" style="fill:#e0e0e0"></circle><polygon points="173.97 145.82 189.02 163.82 194.55 145.82 173.97 145.82" style="fill:#ebebeb"></polygon><path d="M166.72,198.61c-7.2-11.73-2-26.29,6.19-35.85,1.26-1.47,3.37.66,2.12,2.12-7.3,8.54-12.17,21.7-5.71,32.22,1,1.65-1.59,3.15-2.6,1.51Z" style="fill:#ebebeb"></path><polygon points="197.02 206.45 191.52 200.82 197.02 196.11 202.02 201.28 197.02 206.45" style="fill:#ebebeb"></polygon><path d="M230.72,229.65h-8l-1.84,1.84v20.73h11.66V231.49Zm-4,3.12a1,1,0,1,1,1-1A1,1,0,0,1,226.73,232.77Z" style="fill:#fafafa"></path><rect x="220.9" y="244.05" width="11.67" height="8.17" style="fill:#e0e0e0"></rect><path d="M228.3,240.54a2,2,0,0,1-1.18.49v.76h-.67v-.74a3.71,3.71,0,0,1-1-.18,2.48,2.48,0,0,1-.73-.36l.37-.83a2.43,2.43,0,0,0,.6.32,2.89,2.89,0,0,0,.72.16V239a4.69,4.69,0,0,1-.82-.26,1.4,1.4,0,0,1-.55-.41,1.14,1.14,0,0,1-.23-.73,1.32,1.32,0,0,1,.41-1,2,2,0,0,1,1.19-.49v-.75h.67v.74a2.92,2.92,0,0,1,1.38.41l-.34.83a2.73,2.73,0,0,0-1-.35v1.15a6.1,6.1,0,0,1,.81.25,1.4,1.4,0,0,1,.55.41,1.13,1.13,0,0,1,.22.73A1.29,1.29,0,0,1,228.3,240.54Zm-2.23-2.69a1.12,1.12,0,0,0,.38.18v-1a.75.75,0,0,0-.38.19.43.43,0,0,0-.13.31A.36.36,0,0,0,226.07,237.85Zm1.42,2.11a.4.4,0,0,0,.12-.29.35.35,0,0,0-.12-.28,1.16,1.16,0,0,0-.37-.19v.93A.67.67,0,0,0,227.49,240Z" style="fill:#e0e0e0"></path><path d="M227,231.34h-.5c.16-6.17-2-9.84-3.78-11.84a11,11,0,0,0-4-2.9l.16-.47C219,216.15,227.31,219.18,227,231.34Z" style="fill:#e0e0e0"></path><rect x="90.59" y="208.21" width="3.04" height="174.93" style="fill:#f5f5f5"></rect><path d="M114.45,383.33a4.33,4.33,0,0,0-4.4-4.75H74.18a4.33,4.33,0,0,0-4.4,4.75Z" style="fill:#ebebeb"></path><path d="M80.13,185.18A4,4,0,0,0,72.2,184Q68,205.8,63.87,227.61c-.4,2.08,1.85,4.27,5,4.76s6-1,6.21-3.05Z" style="fill:#ebebeb"></path><path d="M88.11,185.78a4,4,0,0,0-8-.6l-5,44.14c-.24,2.1,2.16,4.12,5.36,4.36s5.88-1.39,6-3.51Q87.28,208,88.11,185.78Z" style="fill:#f5f5f5"></path><path d="M96.11,185.78a4,4,0,0,0-8,0q-.84,22.2-1.67,44.39c-.08,2.12,2.46,4,5.67,4s5.75-1.83,5.67-4Q97,208,96.11,185.78Z" style="fill:#ebebeb"></path><path d="M104.1,185.18a4,4,0,0,0-8,.6Q97,208,97.78,230.17c.08,2.12,2.75,3.75,6,3.51s5.6-2.26,5.36-4.36Q106.6,207.24,104.1,185.18Z" style="fill:#f5f5f5"></path><path d="M112,184a4,4,0,0,0-7.93,1.21q2.5,22.06,5,44.14c.24,2.1,3,3.53,6.22,3.05s5.43-2.68,5-4.76Q116.2,205.79,112,184Z" style="fill:#ebebeb"></path><path d="M118.44,231.62h-8l-1.84,1.84v20.73h11.66V233.46Zm-4,3.12a1,1,0,1,1,1-1A1,1,0,0,1,114.45,234.74Z" style="fill:#fafafa"></path><rect x="108.62" y="246.02" width="11.67" height="8.17" style="fill:#e0e0e0"></rect><path d="M116,242.51a2,2,0,0,1-1.18.5v.76h-.67V243a3.71,3.71,0,0,1-1-.18,2.26,2.26,0,0,1-.73-.37l.37-.82a2.82,2.82,0,0,0,.6.32,2.89,2.89,0,0,0,.72.16V241a5.73,5.73,0,0,1-.82-.26,1.42,1.42,0,0,1-.55-.42,1.1,1.1,0,0,1-.23-.73,1.32,1.32,0,0,1,.41-1,2,2,0,0,1,1.19-.49v-.76h.67v.74a3,3,0,0,1,1.38.42l-.34.83a2.73,2.73,0,0,0-1-.35v1.15a4.11,4.11,0,0,1,.81.25,1.4,1.4,0,0,1,.55.41,1.09,1.09,0,0,1,.22.72A1.27,1.27,0,0,1,116,242.51Zm-2.23-2.68a1.12,1.12,0,0,0,.38.18v-1a.68.68,0,0,0-.38.19.42.42,0,0,0-.13.31A.37.37,0,0,0,113.79,239.83Zm1.42,2.11a.42.42,0,0,0,.12-.3.34.34,0,0,0-.12-.27,1,1,0,0,0-.37-.19v.93A.67.67,0,0,0,115.21,241.94Z" style="fill:#e0e0e0"></path><rect x="276.42" y="142.72" width="26.39" height="240.6" style="fill:#e6e6e6"></rect><rect x="368.64" y="145.03" width="66.15" height="144.97" style="fill:#ebebeb"></rect><rect x="302.5" y="145.03" width="66.15" height="144.97" style="fill:#ebebeb"></rect><rect x="302.5" y="290" width="132.3" height="45.67" style="fill:#ebebeb"></rect><rect x="302.5" y="335.67" width="132.3" height="45.67" style="fill:#ebebeb"></rect><rect x="366.33" y="228.56" width="4.62" height="132.3" transform="translate(663.36 -73.93) rotate(90)" style="fill:#e0e0e0"></rect><rect x="333.26" y="116.27" width="4.62" height="66.15" transform="translate(484.91 -186.23) rotate(90)" style="fill:#e0e0e0"></rect><rect x="399.41" y="116.27" width="4.62" height="66.15" transform="translate(551.06 -252.37) rotate(90)" style="fill:#e0e0e0"></rect><rect x="366.33" y="273.87" width="4.62" height="132.3" transform="translate(708.67 -28.62) rotate(90)" style="fill:#e0e0e0"></rect><path d="M434.79,142.72H300.19V383.33H437.1V142.72Zm-2.31,150.11v40.63H304.81V292.83ZM371,288.21V147.34h61.53V288.21Zm-4.62-140.87V288.21H304.81V147.34ZM304.81,378.71V338.08H432.48v40.63Z" style="fill:#f5f5f5"></path><path d="M359.15,210.68a2.84,2.84,0,0,0-5.67,0v9.67a2.84,2.84,0,1,0,5.67,0Z" style="fill:#e0e0e0"></path><path d="M361.15,210.68a2.84,2.84,0,0,0-5.67,0v9.67a2.84,2.84,0,1,0,5.67,0Z" style="fill:#f5f5f5"></path><path d="M361.81,309a2.84,2.84,0,0,0,0,5.67h9.67a2.84,2.84,0,0,0,0-5.67Z" style="fill:#e0e0e0"></path><path d="M363.81,309a2.84,2.84,0,0,0,0,5.67h9.67a2.84,2.84,0,0,0,0-5.67Z" style="fill:#f5f5f5"></path><path d="M361.81,355.66a2.84,2.84,0,0,0,0,5.67h9.67a2.84,2.84,0,0,0,0-5.67Z" style="fill:#e0e0e0"></path><path d="M363.81,355.66a2.84,2.84,0,0,0,0,5.67h9.67a2.84,2.84,0,0,0,0-5.67Z" style="fill:#f5f5f5"></path><path d="M380,210.68a2.84,2.84,0,0,0-5.67,0v9.67a2.84,2.84,0,1,0,5.67,0Z" style="fill:#e0e0e0"></path><path d="M382,210.68a2.84,2.84,0,0,0-5.67,0v9.67a2.84,2.84,0,1,0,5.67,0Z" style="fill:#f5f5f5"></path><path d="M322.07,152.41h-8l-1.84,1.84V175h11.67V154.25Zm-4,3.12a1,1,0,0,1,0-2,1,1,0,0,1,0,2Z" style="fill:#fafafa"></path><rect x="312.24" y="166.81" width="11.67" height="8.17" style="fill:#e0e0e0"></rect><path d="M319.64,163.3a2,2,0,0,1-1.17.49v.76h-.68v-.74a3.88,3.88,0,0,1-1-.18,2.37,2.37,0,0,1-.73-.36l.37-.83a2.71,2.71,0,0,0,.61.32,2.52,2.52,0,0,0,.71.16v-1.13a4.84,4.84,0,0,1-.81-.26,1.36,1.36,0,0,1-.56-.41,1.13,1.13,0,0,1-.22-.73,1.29,1.29,0,0,1,.41-1,1.92,1.92,0,0,1,1.18-.49v-.75h.68v.74a2.91,2.91,0,0,1,1.37.41l-.34.83a2.68,2.68,0,0,0-1-.35V161a6.41,6.41,0,0,1,.8.25,1.33,1.33,0,0,1,.55.42,1.09,1.09,0,0,1,.23.72A1.29,1.29,0,0,1,319.64,163.3Zm-2.22-2.69a1.06,1.06,0,0,0,.37.19v-1a.72.72,0,0,0-.38.2.42.42,0,0,0-.12.3A.33.33,0,0,0,317.42,160.61Zm1.41,2.11a.41.41,0,0,0,.13-.29.37.37,0,0,0-.13-.28,1.19,1.19,0,0,0-.36-.19v.94A.76.76,0,0,0,318.83,162.72Z" style="fill:#e0e0e0"></path></g><g id="freepik--Shadow--inject-20"><ellipse id="freepik--path--inject-20" cx="250" cy="412.39" rx="193.89" ry="11.32" style="fill:#f5f5f5"></ellipse></g><g id="freepik--Drawer--inject-20"><polygon points="74.57 378.09 103.77 378.09 111.38 411.21 114.14 411.21 107.69 374.17 70.65 374.17 64.21 411.21 66.96 411.21 74.57 378.09" style="fill:#263238"></polygon><polygon points="74.57 378.09 103.77 378.09 111.38 411.21 114.14 411.21 107.69 374.17 70.65 374.17 64.21 411.21 66.96 411.21 74.57 378.09" style="fill:#fff;opacity:0.4"></polygon><polygon points="104.57 378.09 133.77 378.09 141.38 411.21 144.13 411.21 137.69 374.17 100.65 374.17 94.21 411.21 96.96 411.21 104.57 378.09" style="fill:#263238"></polygon><polygon points="104.57 378.09 133.77 378.09 141.38 411.21 144.13 411.21 137.69 374.17 100.65 374.17 94.21 411.21 96.96 411.21 104.57 378.09" style="fill:#fff;opacity:0.6000000000000001"></polygon><rect x="89.17" y="332.23" width="60" height="54.15" style="fill:#8CAC89"></rect><rect x="89.17" y="332.23" width="60" height="54.15" style="fill:#fff;opacity:0.5"></rect><rect x="60.67" y="332.23" width="28.5" height="54.15" style="fill:#8CAC89"></rect><rect x="60.67" y="332.23" width="28.5" height="54.15" style="fill:#fff;opacity:0.5"></rect><rect x="60.67" y="332.23" width="28.5" height="54.15" style="opacity:0.1"></rect><rect x="93.67" y="336.73" width="51" height="20.33" style="fill:#fff;opacity:0.7000000000000001"></rect><rect x="93.67" y="361.55" width="51" height="20.33" style="fill:#fff;opacity:0.7000000000000001"></rect><path d="M121.63,346.89a2.46,2.46,0,1,1-2.46-2.46A2.46,2.46,0,0,1,121.63,346.89Z" style="fill:#263238"></path><path d="M121.63,371.72a2.46,2.46,0,1,1-2.46-2.46A2.46,2.46,0,0,1,121.63,371.72Z" style="fill:#263238"></path><path d="M87,360.43H79l-1.84,1.84V383H88.83V362.27Zm-4,3.12a1,1,0,1,1,1-1A1,1,0,0,1,83,363.55Z" style="fill:#263238"></path><path d="M87,360.43H79l-1.84,1.84V383H88.83V362.27Zm-4,3.12a1,1,0,1,1,1-1A1,1,0,0,1,83,363.55Z" style="fill:#fff;opacity:0.8"></path><rect x="77.16" y="374.83" width="11.67" height="8.17" style="fill:#8CAC89"></rect><path d="M84.56,371.32a1.91,1.91,0,0,1-1.17.49v.76h-.68v-.74a3.46,3.46,0,0,1-1-.17,2.37,2.37,0,0,1-.73-.37l.38-.82a2.42,2.42,0,0,0,.6.31,2.94,2.94,0,0,0,.71.17v-1.14a4.91,4.91,0,0,1-.81-.25,1.56,1.56,0,0,1-.56-.42,1.12,1.12,0,0,1-.22-.73,1.26,1.26,0,0,1,.41-1,2,2,0,0,1,1.18-.5v-.75h.68v.74a3,3,0,0,1,1.37.41l-.33.84a2.62,2.62,0,0,0-1-.35V369a4.21,4.21,0,0,1,.8.25,1.4,1.4,0,0,1,.55.41,1.09,1.09,0,0,1,.23.72A1.28,1.28,0,0,1,84.56,371.32Zm-2.22-2.68a1.06,1.06,0,0,0,.37.18v-1a.72.72,0,0,0-.38.19.45.45,0,0,0-.12.31A.35.35,0,0,0,82.34,368.64Zm1.41,2.1a.37.37,0,0,0,.13-.29.39.39,0,0,0-.13-.28,1.19,1.19,0,0,0-.36-.19v.94A.76.76,0,0,0,83.75,370.74Z" style="fill:#263238"></path></g><g id="freepik--Clock--inject-20"><path d="M69.88,326.35h-8l-1.84,1.84v20.73H71.72V328.19Zm-4,3.11a1,1,0,1,1,1-1A1,1,0,0,1,65.88,329.46Z" style="fill:#263238"></path><path d="M69.88,326.35h-8l-1.84,1.84v20.73H71.72V328.19Zm-4,3.11a1,1,0,1,1,1-1A1,1,0,0,1,65.88,329.46Z" style="fill:#fff;opacity:0.8"></path><rect x="60.05" y="340.75" width="11.67" height="8.17" style="fill:#8CAC89"></rect><path d="M67.45,337.24a2,2,0,0,1-1.17.49v.76H65.6v-.74a3.79,3.79,0,0,1-1-.18,2.61,2.61,0,0,1-.73-.36l.37-.83a2.51,2.51,0,0,0,.61.32,2.82,2.82,0,0,0,.71.16v-1.13a5.31,5.31,0,0,1-.82-.26,1.33,1.33,0,0,1-.55-.42,1.09,1.09,0,0,1-.22-.72,1.29,1.29,0,0,1,.41-1,1.92,1.92,0,0,1,1.18-.49v-.75h.68v.74a2.91,2.91,0,0,1,1.37.41l-.34.83a2.74,2.74,0,0,0-1-.35v1.15a5.08,5.08,0,0,1,.8.25,1.4,1.4,0,0,1,.55.41,1.12,1.12,0,0,1,.22.72A1.29,1.29,0,0,1,67.45,337.24Zm-2.22-2.69a1.06,1.06,0,0,0,.37.18v-1a.8.8,0,0,0-.38.19.45.45,0,0,0-.12.31A.33.33,0,0,0,65.23,334.55Zm1.41,2.11a.4.4,0,0,0,.12-.29.35.35,0,0,0-.12-.28,1.21,1.21,0,0,0-.36-.19v.93A.67.67,0,0,0,66.64,336.66Z" style="fill:#263238"></path><path d="M65.7,328.38l.46.2c2.46-5.65,5.94-8.09,8.43-9.13a10.94,10.94,0,0,1,4.86-.93l0-.5C79.41,318,70.55,317.22,65.7,328.38Z" style="fill:#263238"></path><path d="M90.43,332.32h3a1.23,1.23,0,0,0,.87-2.09l-3.84-3.85Z" style="fill:#8CAC89"></path><path d="M87,306.13H81.11a13.1,13.1,0,0,0,0,26.19H87a13.1,13.1,0,0,0,0-26.19Z" style="fill:#8CAC89"></path><path d="M87,306.13H81.11a13.1,13.1,0,0,0,0,26.19H87a13.1,13.1,0,0,0,0-26.19Z" style="fill:#fff;opacity:0.30000000000000004"></path><circle cx="86.99" cy="319.23" r="13.09" transform="translate(-200.25 155.01) rotate(-45)" style="fill:#8CAC89"></circle><circle cx="86.99" cy="319.23" r="13.09" transform="translate(-200.25 155.01) rotate(-45)" style="fill:#fff;opacity:0.5"></circle><circle cx="86.99" cy="319.23" r="10.53" style="fill:#8CAC89"></circle><path d="M75.85,329.11l-1.12,1.12a1.23,1.23,0,0,0,.87,2.09h3v-1.39A13.67,13.67,0,0,1,75.85,329.11Z" style="fill:#8CAC89"></path><polygon points="88 320.24 85.97 320.24 86.97 312.21 87 312.21 88 320.24" style="fill:#263238"></polygon><polygon points="86.41 321.26 86.41 319.23 92.44 320.23 92.44 320.26 86.41 321.26" style="fill:#263238"></polygon></g><g id="freepik--Lamp--inject-20"><path d="M140.71,303.46h-8l-1.84,1.84V326h11.67V305.3Zm-4,3.12a1,1,0,1,1,1-1A1,1,0,0,1,136.71,306.58Z" style="fill:#263238"></path><path d="M140.71,303.46h-8l-1.84,1.84V326h11.67V305.3Zm-4,3.12a1,1,0,1,1,1-1A1,1,0,0,1,136.71,306.58Z" style="fill:#fff;opacity:0.8"></path><rect x="130.88" y="317.86" width="11.67" height="8.17" style="fill:#8CAC89"></rect><path d="M138.28,314.35a2,2,0,0,1-1.17.5v.75h-.68v-.73a3.71,3.71,0,0,1-1-.18,2.37,2.37,0,0,1-.73-.37l.37-.82a2.49,2.49,0,0,0,.61.31,2.83,2.83,0,0,0,.71.17v-1.13a6.69,6.69,0,0,1-.82-.26,1.52,1.52,0,0,1-.55-.42,1.1,1.1,0,0,1-.23-.73,1.32,1.32,0,0,1,.41-1,1.92,1.92,0,0,1,1.19-.49v-.76h.68V310a3,3,0,0,1,1.37.42l-.34.83a2.58,2.58,0,0,0-1-.35V312a4.21,4.21,0,0,1,.8.25,1.4,1.4,0,0,1,.55.41,1.09,1.09,0,0,1,.22.72A1.27,1.27,0,0,1,138.28,314.35Zm-2.23-2.68a1.12,1.12,0,0,0,.38.18v-1a.72.72,0,0,0-.38.19.45.45,0,0,0-.12.31A.38.38,0,0,0,136.05,311.67Zm1.42,2.1a.38.38,0,0,0,.12-.29.38.38,0,0,0-.12-.28,1.21,1.21,0,0,0-.36-.18V314A.68.68,0,0,0,137.47,313.77Z" style="fill:#263238"></path><path d="M137.12,305.5l-.46.2c-2.45-5.66-5.93-8.09-8.42-9.14a11.11,11.11,0,0,0-4.86-.93l0-.49C123.42,295.13,132.27,294.34,137.12,305.5Z" style="fill:#263238"></path><path d="M111.41,330.36H108.8V304.93a5.62,5.62,0,0,1,1.64-4l11-11,1.85,1.85L113.05,302a5.62,5.62,0,0,0-1.64,4Z" style="fill:#263238"></path><g style="opacity:0.5"><path d="M111.41,330.36H108.8V304.93a5.62,5.62,0,0,1,1.64-4l11-11,1.85,1.85L113.05,302a5.62,5.62,0,0,0-1.64,4Z" style="fill:#fff"></path></g><rect x="108.8" y="326.44" width="2.61" height="3.92" style="opacity:0.2"></rect><path d="M117.28,297.81l6-6-1.85-1.85-4.29,4.29C117.21,295.1,117.25,296.42,117.28,297.81Z" style="opacity:0.2"></path><path d="M124.47,332.32H95.73a3.93,3.93,0,0,1,3.92-3.92h20.9a3.92,3.92,0,0,1,3.92,3.92Z" style="fill:#8CAC89"></path><path d="M124.47,332.32H95.73a3.93,3.93,0,0,1,3.92-3.92h20.9a3.92,3.92,0,0,1,3.92,3.92Z" style="fill:#fff;opacity:0.30000000000000004"></path><path d="M134.56,291A7.84,7.84,0,1,0,119,292.66l.11,1.07c.06.54,1.13,10.7,1.19,11.24.08.84,3.65,1.15,8,.7s7.72-1.5,7.64-2.34c-.06-.54-1.13-10.7-1.19-11.24Z" style="fill:#8CAC89"></path><path d="M134.56,291A7.84,7.84,0,1,0,119,292.66l.11,1.07c.06.54,1.13,10.7,1.19,11.24.08.84,3.65,1.15,8,.7s7.72-1.5,7.64-2.34c-.06-.54-1.13-10.7-1.19-11.24Z" style="fill:#fff;opacity:0.30000000000000004"></path><path d="M135.86,303.33c.08.84-3.33,1.89-7.64,2.34s-7.87.14-8-.7,3.33-1.88,7.63-2.33S135.77,302.5,135.86,303.33Z" style="fill:#8CAC89"></path></g><g id="freepik--Shelf--inject-20"><path d="M360.07,230.89h29.11V411.21H339.7Zm26.25,2.86H362.63l-19.72,174.6h43.41Z" style="fill:#263238"></path><g style="opacity:0.4"><path d="M360.07,230.89h29.11V411.21H339.7Zm26.25,2.86H362.63l-19.72,174.6h43.41Z" style="fill:#fff"></path></g><rect x="347.78" y="274.78" width="73.32" height="3.82" style="fill:#8CAC89"></rect><g style="opacity:0.5"><rect x="347.78" y="274.78" width="73.32" height="3.82" style="fill:#fff"></rect></g><g style="opacity:0.2"><rect x="381.1" y="274.78" width="40" height="3.82"></rect></g><rect x="345.63" y="319.14" width="75.47" height="3.82" style="fill:#8CAC89"></rect><g style="opacity:0.5"><rect x="345.63" y="319.14" width="75.47" height="3.82" style="fill:#fff"></rect></g><g style="opacity:0.2"><rect x="378.96" y="319.14" width="42.15" height="3.82"></rect></g><rect x="343.49" y="363.51" width="77.62" height="3.82" style="fill:#8CAC89"></rect><g style="opacity:0.5"><rect x="343.49" y="363.51" width="77.62" height="3.82" style="fill:#fff"></rect></g><g style="opacity:0.2"><rect x="376.81" y="363.51" width="44.3" height="3.82"></rect></g><path d="M393.42,230.89h29.12V411.21H373.06Zm26.25,2.86H396l-19.72,174.6h43.41Z" style="fill:#263238"></path><g style="opacity:0.6000000000000001"><path d="M393.42,230.89h29.12V411.21H373.06Zm26.25,2.86H396l-19.72,174.6h43.41Z" style="fill:#fff"></path></g><path d="M380.86,222l4-6.93-.69-2.51-18-10.31-5.8,10.12,18,10.31Zm-.72-5a1,1,0,0,1,1.74,1,1,1,0,1,1-1.74-1Z" style="fill:#263238"></path><path d="M380.86,222l4-6.93-.69-2.51-18-10.31-5.8,10.12,18,10.31Zm-.72-5a1,1,0,0,1,1.74,1,1,1,0,1,1-1.74-1Z" style="fill:#fff;opacity:0.8"></path><rect x="360.98" y="205.26" width="11.67" height="8.17" transform="translate(2.7 423.36) rotate(-60.16)" style="fill:#8CAC89"></rect><path d="M372.62,214.49a2,2,0,0,1,.16-1.27l-.66-.37.34-.59.64.37a3.8,3.8,0,0,1,.63-.75,2.35,2.35,0,0,1,.68-.45l.53.74a2.29,2.29,0,0,0-.58.36,2.79,2.79,0,0,0-.49.54l1,.56a6.22,6.22,0,0,1,.63-.58,1.46,1.46,0,0,1,.64-.27,1.11,1.11,0,0,1,.74.17,1.24,1.24,0,0,1,.63.83,1.89,1.89,0,0,1-.16,1.27l.65.38-.33.59-.64-.37a3,3,0,0,1-1.05,1l-.55-.71a2.64,2.64,0,0,0,.82-.73l-1-.57a4.4,4.4,0,0,1-.61.57,1.37,1.37,0,0,1-.64.28,1.07,1.07,0,0,1-.73-.17A1.28,1.28,0,0,1,372.62,214.49Zm3.44-.6a1.1,1.1,0,0,0-.35.24l.84.48a.72.72,0,0,0,0-.43.45.45,0,0,0-.21-.26A.35.35,0,0,0,376.06,213.89Zm-2.53.18a.39.39,0,0,0,.19.26.35.35,0,0,0,.3,0,1,1,0,0,0,.35-.22l-.82-.46A.8.8,0,0,0,373.53,214.07Z" style="fill:#263238"></path><path d="M384.58,234.17l-.48-.16c1.95-5.85,1-10-.16-12.42a10.89,10.89,0,0,0-3-3.94l.3-.41C381.31,217.29,388.43,222.63,384.58,234.17Z" style="fill:#263238"></path></g><g id="freepik--Sofa--inject-20"><path d="M298,323.64H249.4a10.14,10.14,0,0,0-10.13,10.13v77.44h68.9V333.77A10.13,10.13,0,0,0,298,323.64Z" style="fill:#8CAC89"></path><path d="M298,323.64H249.4a10.14,10.14,0,0,0-10.13,10.13v77.44h68.9V333.77A10.13,10.13,0,0,0,298,323.64Z" style="fill:#fff;opacity:0.5"></path><path d="M298,323.64H249.4a10.14,10.14,0,0,0-10.13,10.13v77.44h68.9V333.77A10.13,10.13,0,0,0,298,323.64Z" style="opacity:0.1"></path><path d="M296.66,323.64h2.76a8.75,8.75,0,0,1,8.75,8.75v78.82a0,0,0,0,1,0,0H287.91a0,0,0,0,1,0,0V332.39A8.75,8.75,0,0,1,296.66,323.64Z" style="fill:#8CAC89"></path><path d="M296.66,323.64h2.76a8.75,8.75,0,0,1,8.75,8.75v78.82a0,0,0,0,1,0,0H287.91a0,0,0,0,1,0,0V332.39A8.75,8.75,0,0,1,296.66,323.64Z" style="fill:#fff;opacity:0.6000000000000001"></path><path d="M248.82,376.7l-10.89-77.44a12.05,12.05,0,0,0-11.55-10.13h-48a8.61,8.61,0,0,0-8.71,10.13l10.89,77.44Z" style="fill:#8CAC89"></path><path d="M248.82,376.7l-10.89-77.44a12.05,12.05,0,0,0-11.55-10.13h-48a8.61,8.61,0,0,0-8.71,10.13l10.89,77.44Z" style="fill:#fff;opacity:0.5"></path><path d="M200.84,376.7H180.58l-10.89-77.44a8.61,8.61,0,0,1,8.71-10.13h0A12.06,12.06,0,0,1,190,299.26Z" style="opacity:0.1"></path><path d="M237,355.34h59a3.49,3.49,0,0,1,3.49,3.49v8.07a3.49,3.49,0,0,1-3.49,3.49H237a0,0,0,0,1,0,0V355.34A0,0,0,0,1,237,355.34Z" style="fill:#8CAC89"></path><path d="M237,355.34h59a3.49,3.49,0,0,1,3.49,3.49v8.07a3.49,3.49,0,0,1-3.49,3.49H237a0,0,0,0,1,0,0V355.34A0,0,0,0,1,237,355.34Z" style="fill:#fff;opacity:0.7000000000000001"></path><rect x="236.96" y="370.39" width="57.9" height="40.82" style="fill:#8CAC89"></rect><rect x="236.96" y="370.39" width="57.9" height="40.82" style="fill:#fff;opacity:0.5"></rect><path d="M257.77,337.32h-8l-1.84,1.84v20.73h11.67V339.16Zm-4,3.12a1,1,0,1,1,1-1A1,1,0,0,1,253.78,340.44Z" style="fill:#263238"></path><path d="M257.77,337.32h-8l-1.84,1.84v20.73h11.67V339.16Zm-4,3.12a1,1,0,1,1,1-1A1,1,0,0,1,253.78,340.44Z" style="fill:#fff;opacity:0.8"></path><rect x="247.94" y="351.72" width="11.67" height="8.17" style="fill:#8CAC89"></rect><path d="M255.34,348.21a1.91,1.91,0,0,1-1.17.49v.76h-.68v-.74a3.32,3.32,0,0,1-1-.17,2.32,2.32,0,0,1-.74-.37l.38-.83a2.14,2.14,0,0,0,.6.32,2.94,2.94,0,0,0,.71.17V346.7a4.91,4.91,0,0,1-.81-.25,1.56,1.56,0,0,1-.56-.42,1.12,1.12,0,0,1-.22-.73,1.34,1.34,0,0,1,.41-1,2,2,0,0,1,1.18-.49v-.75h.68v.74a3,3,0,0,1,1.37.41l-.33.84a2.81,2.81,0,0,0-1-.36v1.16a4.83,4.83,0,0,1,.8.24,1.35,1.35,0,0,1,.55.42,1.09,1.09,0,0,1,.23.72A1.28,1.28,0,0,1,255.34,348.21Zm-2.22-2.69a.91.91,0,0,0,.37.19v-1a.72.72,0,0,0-.38.19.45.45,0,0,0-.12.31A.32.32,0,0,0,253.12,345.52Zm1.41,2.11a.37.37,0,0,0,.13-.29.39.39,0,0,0-.13-.28,1.19,1.19,0,0,0-.36-.19v.94A.76.76,0,0,0,254.53,347.63Z" style="fill:#263238"></path><path d="M254.19,339.36l-.46.19c-2.46-5.65-5.94-8.08-8.43-9.13a11.11,11.11,0,0,0-4.86-.93l-.05-.5C240.48,329,249.34,328.2,254.19,339.36Z" style="fill:#263238"></path><path d="M233.19,323.64H184.56a10.14,10.14,0,0,0-10.14,10.13v77.44h68.9V333.77A10.13,10.13,0,0,0,233.19,323.64Z" style="fill:#8CAC89"></path><path d="M233.19,323.64H184.56a10.14,10.14,0,0,0-10.14,10.13v77.44h68.9V333.77A10.13,10.13,0,0,0,233.19,323.64Z" style="fill:#fff;opacity:0.5"></path><path d="M233.19,323.64H184.56a10.14,10.14,0,0,0-10.14,10.13v77.44h68.9V333.77A10.13,10.13,0,0,0,233.19,323.64Z" style="opacity:0.1"></path><path d="M231.81,323.64h2.76a8.75,8.75,0,0,1,8.75,8.75v78.82a0,0,0,0,1,0,0H223.06a0,0,0,0,1,0,0V332.39A8.75,8.75,0,0,1,231.81,323.64Z" style="fill:#8CAC89"></path><path d="M231.81,323.64h2.76a8.75,8.75,0,0,1,8.75,8.75v78.82a0,0,0,0,1,0,0H223.06a0,0,0,0,1,0,0V332.39A8.75,8.75,0,0,1,231.81,323.64Z" style="fill:#fff;opacity:0.6000000000000001"></path></g><g id="freepik--character-2--inject-20"><path d="M315.93,180.36a12.25,12.25,0,0,0-10,9.08s-6.49,1.88-4,8c0,0-5.58,5.76,1.1,10.88,0,0-.92,7.78,7,4.3,0,0,3.3,4.87,9.85.9,0,0,5.61,3.31,9-1.17,0,0,3.93.55,3.38-3.94,0,0,3.6-2.44-.35-6.48S315.93,180.36,315.93,180.36Z" style="fill:#263238"></path><path d="M361.71,215.83l-.17-4.51,7.31,1.17s-.7,4.38-3.2,6.79l-.91-.34A4.85,4.85,0,0,1,361.71,215.83Z" style="fill:#ffb573"></path><path d="M365.24,208l2.48.74a2.14,2.14,0,0,1,1.45,2.65l-.32,1.11-7.31-1.17,1.19-2.27A2.16,2.16,0,0,1,365.24,208Z" style="fill:#ffb573"></path><path d="M364.83,226.69l2.5-9.73-5.62-1.13s-.33,4.56-5.52,11.09l7.42,3.22Z" style="fill:#ffb573"></path><path d="M360.33,217.68c-1.42,2.61-2.83,5.23-4.29,7.68a46.83,46.83,0,0,1-2.9,4.44c-.19.26-.39.5-.58.72l-.75-.18a16.56,16.56,0,0,1-1.84-.68,20.11,20.11,0,0,1-3.68-2.25,33.76,33.76,0,0,1-3.54-3.19c-.57-.59-1.11-1.21-1.65-1.82l-.78-.94-.63-.79-.43-.54a6.57,6.57,0,0,0-10.57,7.79l.6.88.53.74c.35.48.72.94,1.09,1.39.74.91,1.54,1.76,2.36,2.6a35.79,35.79,0,0,0,5.53,4.56,28,28,0,0,0,6.81,3.35,21.75,21.75,0,0,0,3.9.93,19.65,19.65,0,0,0,2,.2,8.86,8.86,0,0,0,1,0h.77l.54,0a8.19,8.19,0,0,0,4.5-1.7,10.87,10.87,0,0,0,2-1.95,20.79,20.79,0,0,0,2.16-3.36,42.49,42.49,0,0,0,2.55-6.17,69.16,69.16,0,0,0,2.17-8.37A26,26,0,0,1,360.33,217.68Z" style="fill:#8CAC89"></path><path d="M338.71,225.39l-2.57,1.92-1.95,7.1a34.93,34.93,0,0,0,4.61,3.68,28.2,28.2,0,0,0,6.38,3.19c2.29-4.79-2.49-12-2.49-12Z" style="opacity:0.2"></path><polygon points="314.14 393.83 314.83 405.15 321.42 405.15 323.41 393.01 314.14 393.83" style="fill:#ffb573"></polygon><path d="M314.54,400.43a32.1,32.1,0,0,0,7.66,0l1.21-7.39-9.27.82Z" style="opacity:0.2"></path><path d="M322.59,404.14a.19.19,0,0,1-.13-.14.18.18,0,0,1,.08-.17c.1-.06,2.48-1.49,3.64-1.2a.89.89,0,0,1,.52.37.63.63,0,0,1,0,.72,3,3,0,0,1-2,.57A12.53,12.53,0,0,1,322.59,404.14Zm.53-.24c1.29.14,3,.09,3.34-.37,0-.06.09-.16,0-.36a.45.45,0,0,0-.33-.22,1.05,1.05,0,0,0-.31,0A7.69,7.69,0,0,0,323.12,403.9Z" style="fill:#8CAC89"></path><path d="M322.51,404.13a.18.18,0,0,1-.08-.15,4.68,4.68,0,0,1,1-2.69,1.18,1.18,0,0,1,.9-.3c.45,0,.6.26.62.44.16.78-1.46,2.31-2.28,2.7h-.07A.14.14,0,0,1,322.51,404.13Zm1.74-2.83a.82.82,0,0,0-.56.22,3.73,3.73,0,0,0-.87,2.13c.84-.52,1.9-1.71,1.85-2.18,0,0,0-.16-.33-.18Z" style="fill:#8CAC89"></path><path d="M321.87,403.18l-7.54.17a.62.62,0,0,0-.58.49L312.52,410a1,1,0,0,0,.79,1.19l.21,0c2.71-.11,5.13-.31,8.51-.38,4-.08,3,.42,7.68.38,2.83,0,3.28-3.25,2.08-3.38-5.51-.57-6.11-2.22-8.27-4.13A2.47,2.47,0,0,0,321.87,403.18Z" style="fill:#263238"></path><path d="M311.71,262.83s-1.37,24.14,2.65,62.84c-4.51,30.45-1.57,60.88-.4,70.62a42.44,42.44,0,0,0,9.33.08c2.39-11.49,10.37-50.81,11.43-70.31,5.26-27.16,6.36-63.23,6.36-63.23Z" style="fill:#263238"></path><path d="M312.83,395.85l.38,3a55.44,55.44,0,0,0,10.62,0l.81-3A60.3,60.3,0,0,1,312.83,395.85Z" style="fill:#8CAC89"></path><path d="M314.36,325.67c-.75,5-1.29,10.06-1.66,15,11.75-27.86,13.58-60.3,13.58-60.3l-7.54-2-7,9.35C312.05,297.78,312.8,310.62,314.36,325.67Z" style="opacity:0.4"></path><polygon points="275.22 380.86 269.79 394.46 274.4 399.16 282.3 386.9 275.22 380.86" style="fill:#ffb573"></polygon><path d="M278.12,393.38l4.18-6.48-7.08-6-3.85,9.64A23.59,23.59,0,0,0,278.12,393.38Z" style="opacity:0.2"></path><path d="M276,398.48a.17.17,0,0,1,0-.19.15.15,0,0,1,.17-.06c.12,0,2.81.72,3.41,1.76a.86.86,0,0,1,.1.63.6.6,0,0,1-.49.52c-.46.06-1.2-.44-1.82-1A12.49,12.49,0,0,1,276,398.48Zm.53.22c.81,1,2.06,2.22,2.61,2.12.07,0,.17-.05.22-.28a.45.45,0,0,0-.07-.39,1.5,1.5,0,0,0-.19-.25A7.47,7.47,0,0,0,276.51,398.7Z" style="fill:#8CAC89"></path><path d="M275.92,398.42a.18.18,0,0,1,.05-.16,4.71,4.71,0,0,1,2.64-1.17,1.24,1.24,0,0,1,.84.44c.29.35.24.61.12.75-.44.66-2.67.58-3.52.26a.1.1,0,0,1-.05,0A.2.2,0,0,1,275.92,398.42Zm3.24-.74a.83.83,0,0,0-.55-.25,3.8,3.8,0,0,0-2.13.87c1,.24,2.56.16,2.86-.2,0,0,.08-.14-.11-.36l-.07-.06Z" style="fill:#8CAC89"></path><path d="M276.15,397.3l-5.4-5.26A.62.62,0,0,0,270,392l-5.25,3.44a1,1,0,0,0-.31,1.4l.14.16c2,1.87,3.81,3.45,6.23,5.81,2.86,2.79,1.8,2.42,5.11,5.75,2,2,4.62.06,3.87-.89-3.45-4.33-2.7-5.91-2.84-8.8A2.45,2.45,0,0,0,276.15,397.3Z" style="fill:#263238"></path><path d="M306.69,262.83s-9.15,4.91-9.52,26.32c-.17,10.09-5.82,22.78-7.08,39.75-8.17,20-15.58,47.72-18,57.12a25,25,0,0,0,8.44,4.55c5.45-8.47,23.61-36.86,30.41-56.22,7.52-21.4,21.64-71.52,21.64-71.52Z" style="fill:#263238"></path><path d="M271.45,385.3l-.86,2.88a54.86,54.86,0,0,0,9.71,4.3l1.95-2.41A60,60,0,0,1,271.45,385.3Z" style="fill:#8CAC89"></path><path d="M342.49,227.72c-.13,2.93,4.5,9.71-1.21,13.64,1.06,2.39,5.33,20.43.9,24.77-6.55,6.4-22.42-.33-36.58-2.2-.6-5.85,3.72-19.07-.23-38a7.54,7.54,0,0,1,6.62-9c1.19-.12,2.45-.22,3.75-.28a95.5,95.5,0,0,1,13.54,0c1.46.13,3,.32,4.42.52A10.23,10.23,0,0,1,342.49,227.72Z" style="fill:#8CAC89"></path><path d="M315.32,201.38c1.08,4.36,2.13,11.47.42,15.25,0,0,6.43.28,14.65,6.85,3.87-5.69-.61-6.8-.61-6.8-3.42-.8-4-5-3.95-8.2Z" style="fill:#ffb573"></path><path d="M325.83,208.48l-6-4a5.2,5.2,0,0,0,.54,2.65,11.27,11.27,0,0,0,5.78,5.18A18.18,18.18,0,0,1,325.83,208.48Z" style="opacity:0.2"></path><path d="M312.48,193.39c1.7,7.08,2.27,10.12,6.47,13.17,6.32,4.58,14.48,1,14.89-6.48.37-6.71-2.48-17.17-9.86-18.8S310.78,186.3,312.48,193.39Z" style="fill:#ffb573"></path><path d="M325.18,196c.1.58.49,1,.88.94s.6-.6.5-1.18-.5-1-.88-.94S325.08,195.41,325.18,196Z" style="fill:#263238"></path><path d="M331.52,195.1c.11.59.5,1,.88.94s.61-.6.5-1.18-.49-1-.87-.94S331.42,194.52,331.52,195.1Z" style="fill:#263238"></path><path d="M331.86,194l1.33-.66S332.67,194.56,331.86,194Z" style="fill:#263238"></path><path d="M329.78,195.58a15.7,15.7,0,0,0,2.74,3.35,2.53,2.53,0,0,1-2,.76Z" style="fill:#ed893e"></path><path d="M328.6,202.52a6.08,6.08,0,0,0,1-.09.18.18,0,0,0-.07-.35,4.64,4.64,0,0,1-4.08-1.14.18.18,0,0,0-.25,0,.17.17,0,0,0,0,.24A4.87,4.87,0,0,0,328.6,202.52Z" style="fill:#263238"></path><path d="M323.66,193.72a.34.34,0,0,0,.21-.18,2.75,2.75,0,0,1,2-1.55.36.36,0,0,0,.31-.39.34.34,0,0,0-.39-.3,3.42,3.42,0,0,0-2.51,1.93.35.35,0,0,0,.15.47A.34.34,0,0,0,323.66,193.72Z" style="fill:#263238"></path><path d="M333.58,191.49a.32.32,0,0,0,.22-.13.36.36,0,0,0-.07-.49,3.42,3.42,0,0,0-3.11-.61.34.34,0,0,0,.23.65,2.75,2.75,0,0,1,2.46.52A.33.33,0,0,0,333.58,191.49Z" style="fill:#263238"></path><path d="M325.52,194.88l1.33-.66S326.32,195.44,325.52,194.88Z" style="fill:#263238"></path><path d="M324.85,250.74l-1.21-4.22-16.79,1.75c-.28,4.25-.77,7.83-1.07,10.71C308.68,259.74,315.28,259.89,324.85,250.74Z" style="opacity:0.2"></path><path d="M317.31,223.48a27.47,27.47,0,0,1,0,7.67c-.56,4.8-3.58,12.35-2.07,15.37h-4.53L309.34,234l2.14-8.37,2-3.84Z" style="opacity:0.2"></path><path d="M326.6,241.21l2.69-3.62,5,5.51s-3.3,3-6.76,3.27l-.49-.84A4.85,4.85,0,0,1,326.6,241.21Z" style="fill:#ffb573"></path><path d="M334.26,237.33l1.47,2.13a2.15,2.15,0,0,1-.53,3l-.95.66-5-5.51,2.36-1A2.13,2.13,0,0,1,334.26,237.33Z" style="fill:#ffb573"></path><path d="M322.19,251.62l8.07-6-3.66-4.41s-3.12,3.34-11.27,5.16l3.75,7.17Z" style="fill:#ffb573"></path><path d="M324.9,241.88l-4,1.39c-1.66.56-3.29,1.1-4.89,1.55a32.18,32.18,0,0,1-3.24.78c0-.52,0-1,0-1.61a40.89,40.89,0,0,1,.78-5.62c.42-2,.91-3.94,1.5-5.93.28-1,.6-2,.91-3s.66-2,.94-2.83l.07-.21a6.59,6.59,0,0,0-12.31-4.67c-.53,1.31-.93,2.37-1.32,3.56s-.74,2.34-1.08,3.52a63.38,63.38,0,0,0-1.56,7.3,42,42,0,0,0-.5,7.88,23.22,23.22,0,0,0,1.94,9l.11.24a5.19,5.19,0,0,0,1.12,1.61,8.57,8.57,0,0,0,3.74,2.11,9.59,9.59,0,0,0,2.94.32,15.64,15.64,0,0,0,4-.73,30.48,30.48,0,0,0,5.83-2.6,51.87,51.87,0,0,0,4.92-3.18c1.12-.83,2.2-1.66,3.25-2.57A22.29,22.29,0,0,1,324.9,241.88Z" style="fill:#8CAC89"></path><path d="M314.15,184.94s2,9-.17,14.34-4.64-10.85-4.64-10.85v-3.49Z" style="fill:#263238"></path><path d="M316.79,199.42s.37,2.09,2.16,1.47-.48-4.32-.48-4.32a5.5,5.5,0,0,0-.26-5.07,6.44,6.44,0,0,0,3.61-5.22s-.14,3.91,1.82,3.84,1.7-3.5,1.7-3.5,1.63,4.53,3.55,3.5,0-4.53,0-4.53,2.06,2.88,3.64,1.51-2.75-3.84-2.75-3.84,3.69-.07,2.74-1.86-3.16,1.94-8.54-.12-8.19,3.56-8.19,3.56l-1.51,4.39-.83,8.41Z" style="fill:#263238"></path><path d="M315.32,197.64s-2.42-12.32,10.85-16c0,0-6.34-5.49-16.19,0,0,0,3.92,8.26,3.47,16Z" style="fill:#8CAC89"></path><path d="M315.32,197.64s-2.42-12.32,10.85-16c0,0-6.34-5.49-16.19,0,0,0,3.92,8.26,3.47,16Z" style="fill:#fff;opacity:0.5"></path><path d="M312,200a4.71,4.71,0,0,0,2.87,2.56c1.62.45,2.42-1.33,2-3.13-.41-1.62-1.75-3.8-3.37-3.44S311.21,198.4,312,200Z" style="fill:#ffb573"></path></g><g id="freepik--character-1--inject-20"><path d="M131.41,222.59l-.61-6.83-6.46,3.62s.57,5.76,4.12,5.54Z" style="fill:#ff8b7b"></path><path d="M127.11,212.89,124.24,214a1.94,1.94,0,0,0-1.1,2.56l1.2,2.84,6.46-3.62-1.39-2.12A1.93,1.93,0,0,0,127.11,212.89Z" style="fill:#ff8b7b"></path><polygon points="131.41 222.59 136.6 225.53 133.64 230.28 126.47 224.28 129.54 221.23 130.89 222 131.41 222.59" style="fill:#ff8b7b"></polygon><path d="M162.14,203.94a5.11,5.11,0,0,0-6.51,3.12l-.19.54-.82,2.34c-.32.87-.67,1.75-1,2.64-.7,1.78-1.45,3.57-2.19,5.37s-1.52,3.61-2.32,5.41l-1.18,2.71-.21.47a1.74,1.74,0,0,1-.1.23,1.43,1.43,0,0,1-.19.3,1,1,0,0,1-.62.42,4.65,4.65,0,0,1-1.66.15,17.54,17.54,0,0,1-4.75-1.09c-2.73-1-5.57-3.39-8.29-4.89-.56,1.09-1.6,3.75-3.37,5.52a43.68,43.68,0,0,0,8.55,6.19,23.64,23.64,0,0,0,6.69,2.54,13.16,13.16,0,0,0,4.34.14,10.23,10.23,0,0,0,4.82-2,10.44,10.44,0,0,0,1.87-1.89c.26-.34.49-.69.71-1l.49-.86,1.52-2.67c1-1.81,2-3.61,2.86-5.47s1.78-3.74,2.6-5.68c.39-1,.78-2,1.15-3,.18-.5.36-1,.54-1.55l.25-.82.27-1A5.13,5.13,0,0,0,162.14,203.94Z" style="fill:#263238"></path><path d="M160.56,222.14q1.37-2.77,2.6-5.68c.2-.5.39-1,.59-1.53l-3.12-4.17-3.07,1.88a82.45,82.45,0,0,1,.68,14C159,225.13,159.82,223.65,160.56,222.14Z" style="opacity:0.4"></path><polygon points="172.23 405.73 165.69 405.63 165.33 390.43 171.88 390.53 172.23 405.73" style="fill:#ff8b7b"></polygon><path d="M165.44,403.65l7.15.11a.53.53,0,0,1,.53.46l.91,5.84a1,1,0,0,1-1,1.15c-2.58-.08-6.3-.29-9.54-.34-3.79-.06-3.41.09-7.86,0-2.69,0-3.26-2.77-2.12-3,5.2-1,5.72-1.09,10.33-3.76A3.12,3.12,0,0,1,165.44,403.65Z" style="fill:#263238"></path><polygon points="165.33 390.43 165.51 398.27 172.06 398.37 171.88 390.54 165.33 390.43" style="opacity:0.2"></polygon><path d="M164.28,404.23a.15.15,0,0,0,0-.28c-.3-.16-3-1.54-3.77-1.11a.48.48,0,0,0-.24.41h0a.9.9,0,0,0,.32.76c.74.65,2.61.42,3.66.23Zm-3.54-1.14c.49-.16,1.94.41,3,.92-1.44.22-2.52.14-2.93-.23a.57.57,0,0,1-.21-.5.18.18,0,0,1,.09-.16Z" style="fill:#8CAC89"></path><path d="M164.28,404.23l0,0a.17.17,0,0,0,.06-.14,4.68,4.68,0,0,0-1.11-2.54,1.22,1.22,0,0,0-.87-.28h0c-.42,0-.54.25-.56.43-.1.74,1.52,2.18,2.32,2.55Zm-2-2.64.16,0h0a.84.84,0,0,1,.63.21,3.8,3.8,0,0,1,.94,2c-.83-.49-1.93-1.63-1.87-2.07C162.15,401.7,162.16,401.63,162.29,401.59Zm.13-.18Z" style="fill:#8CAC89"></path><path d="M176.2,324.82c8-33.46,13.57-49,10.56-65.57l-21.11,1.28s-9.11,45.51-7.17,65.13c2,20.4,5,67.89,5,67.89l10.54.15S180.13,347.61,176.2,324.82Z" style="fill:#8CAC89"></path><polygon points="161.84 391.21 162.71 395.73 174.32 395.94 174.78 391.66 161.84 391.21" style="fill:#263238"></polygon><path d="M176.33,324.24c6.13-25.56,10.8-40.59,11.22-53.72C182.19,275.08,168.6,290.45,176.33,324.24Z" style="opacity:0.2"></path><polygon points="206.34 405.73 199.78 405.63 197.62 390.43 204.18 390.53 206.34 405.73" style="fill:#ff8b7b"></polygon><path d="M199.31,403.65l7.15.11a.49.49,0,0,1,.5.46l.63,5.84a1.07,1.07,0,0,1-1.08,1.15c-2.57-.08-3.38-.29-6.62-.34-3.79-.06-2,.09-6.48,0-2.69,0-3.12-2.76-2-3,3.64-.76,4.6-2.21,6.24-3.76A2.32,2.32,0,0,1,199.31,403.65Z" style="fill:#263238"></path><polygon points="197.62 390.43 198.73 398.27 205.29 398.37 204.18 390.54 197.62 390.43" style="opacity:0.2"></polygon><path d="M200.61,404.14a.14.14,0,0,0,.14-.08.15.15,0,0,0,0-.17c-.22-.25-2.21-2.44-3.11-2.32a.52.52,0,0,0-.39.3h0a.86.86,0,0,0,0,.81c.44.85,2.28,1.28,3.35,1.46Zm-2.88-2.26c.52,0,1.66,1,2.45,1.87-1.44-.29-2.42-.74-2.67-1.22a.53.53,0,0,1,0-.53.18.18,0,0,1,.15-.12Z" style="fill:#8CAC89"></path><path d="M200.61,404.14h0a.15.15,0,0,0,.11-.11,4.44,4.44,0,0,0,0-2.72,1.16,1.16,0,0,0-.71-.56h0c-.42-.11-.61.05-.7.2-.37.65.58,2.53,1.19,3.15A.15.15,0,0,0,200.61,404.14Zm-.84-3.11.16,0h0a.82.82,0,0,1,.52.41,3.62,3.62,0,0,1,.08,2.2c-.58-.74-1.17-2.16-.95-2.55C199.6,401.08,199.63,401,199.77,401Zm.2-.13h0Z" style="fill:#8CAC89"></path><path d="M197.62,324.82c3.59-33.46,6.81-52.34,1.62-68.94l-22.09,4.65S175.5,306,180,325.66c4.7,20.4,15.68,67.89,15.68,67.89l10.56.15S204.56,347.61,197.62,324.82Z" style="fill:#8CAC89"></path><polygon points="194.16 391.21 194.85 395.73 206.69 395.94 207.36 391.66 194.16 391.21" style="fill:#263238"></polygon><path d="M151.93,175.63s-5.19-.06-5.19,1.75,2.85,2.74,2.85,2.74-1.79,4.16,3.52,4.55S151.93,175.63,151.93,175.63Z" style="fill:#263238"></path><g style="opacity:0.18"><path d="M152.07,175.53s-4.17,3.08-1.69,4.57c0,0,.48,6.11,2.4,4.27S152.07,175.53,152.07,175.53Z" style="fill:#263238"></path><path d="M152.07,175.53s-4.17,3.08-1.69,4.57c0,0,.48,6.11,2.4,4.27S152.07,175.53,152.07,175.53Z" style="opacity:0.4"></path></g><path d="M163.6,205.27c3.94-2.38,4.12-5.49,2.87-8.29a15.72,15.72,0,0,0-1.05-2l3.89-6.15,2.85-4.49c.47,5.06,3.9,13.58,8.14,15.7-2.93,3-8,5.9-11.24,8.59C164.4,207.76,163.6,205.27,163.6,205.27Z" style="fill:#ff8b7b"></path><path d="M165.42,194.94a15.72,15.72,0,0,1,1.05,2c1.87-1,4.29-3.78,3.85-6.12a9.92,9.92,0,0,0-1-2.07Z" style="isolation:isolate;opacity:0.2"></path><path d="M168.7,174.88c2.86,6.12,4.85,9.54,3.52,14.28a8.78,8.78,0,0,1-15.15,3.42c-4.15-4.58-8.08-13.83-3.67-19.46a8.92,8.92,0,0,1,15.3,1.76Z" style="fill:#ff8b7b"></path><path d="M160.45,183.09c.26.49.22,1-.09,1.2s-.77-.06-1.07-.55a.86.86,0,0,1,.09-1.19C159.69,182.37,160.19,182.62,160.45,183.09Z" style="fill:#263238"></path><path d="M155,186c.26.48.22,1-.09,1.19s-.77-.07-1.07-.55-.22-1,.09-1.2S154.77,185.47,155,186Z" style="fill:#263238"></path><path d="M156.58,185.13a23.66,23.66,0,0,1,0,5.32,3.23,3.23,0,0,0,2.55-.82Z" style="fill:#ff5652"></path><path d="M162.05,191.31a4.74,4.74,0,0,0,1.94-3.12.17.17,0,0,0-.13-.19.15.15,0,0,0-.18.11h0a4.54,4.54,0,0,1-2.29,3.23.16.16,0,0,0-.08.2v0a.17.17,0,0,0,.22.06A4.39,4.39,0,0,0,162.05,191.31Z" style="fill:#263238"></path><path d="M160.14,178.54a.35.35,0,0,0,.06-.14A.31.31,0,0,0,160,178h0a3.11,3.11,0,0,0-2.74.89.32.32,0,0,0,0,.44h0a.32.32,0,0,0,.45,0,2.4,2.4,0,0,1,2.17-.69A.32.32,0,0,0,160.14,178.54Z" style="fill:#263238"></path><path d="M153.59,181.49a.4.4,0,0,0,0-.15.31.31,0,0,0-.42-.15h0a3.14,3.14,0,0,0-1.77,2.27.33.33,0,0,0,.28.35h0a.32.32,0,0,0,.35-.28,2.42,2.42,0,0,1,1.4-1.8A.34.34,0,0,0,153.59,181.49Z" style="fill:#263238"></path><path d="M171.44,179.92s-5-.69-6.08-4-3-5.33-5.5-2.94-5.78,6.54-8.67,4.91c-4.6-2.58-.2-5-.2-5s-1.1-2.17,3.51-3c0,0,.59-2.48,4.92-1.62a4.16,4.16,0,0,1,5.43.74s2.89-1,3.73,3a2.57,2.57,0,0,1,2.25,3.19S172.08,176.28,171.44,179.92Z" style="fill:#263238;opacity:0.22"></path><path d="M172.64,186.27s-4.65-4.48-6.59-8.28-3-8.2-7.39-4.28-7.3,7.54-11.3.36,4.18-3.1,4.18-3.1-1.73-4.54,3.82-2.47c0,0,10.88-5.43,14.44,1.32S172.64,186.27,172.64,186.27Z" style="fill:#263238"></path><path d="M173.74,179.52a7.15,7.15,0,0,1-1.24,4.7c-1.23,1.7-2.91.66-3.48-1.4-.51-1.85-.48-5,1.19-5.92S173.55,177.43,173.74,179.52Z" style="fill:#ff8b7b"></path><path d="M164.82,262.36s12.12,3.47,36.28-2c0,0-1.56-39.47-9.91-60a5.2,5.2,0,0,0-4.78-3.24,57.15,57.15,0,0,0-28.49,7.58,5.19,5.19,0,0,0-2.16,6.46C159.28,219.59,166.7,240.4,164.82,262.36Z" style="fill:#263238"></path><path d="M183.68,204.19l1.44,4.09s7.28,5.95,11.52,12c-.81-4.26-1.75-8.44-2.86-12.31l-5-4.6Z" style="opacity:0.4"></path><path d="M204.14,251.25l-6.22,2.88,5.57,4.86s5.24-2.47,3.84-5.74Z" style="fill:#ff8b7b"></path><path d="M196.46,258.56l2,2.34a1.92,1.92,0,0,0,2.77.17l2.27-2.08-5.57-4.86-1.53,2A1.93,1.93,0,0,0,196.46,258.56Z" style="fill:#ff8b7b"></path><polygon points="204.14 251.25 205.16 245.38 210.64 246.57 207.39 255.34 203.5 253.47 203.76 251.94 204.14 251.25" style="fill:#ff8b7b"></polygon><path d="M213.5,225.69a20.34,20.34,0,0,0-1.32-4.57l-.57-1.17c-.19-.37-.34-.61-.51-.93l-1-1.77c-.73-1.15-1.45-2.31-2.27-3.4a51.8,51.8,0,0,0-5.27-6.18,53.34,53.34,0,0,0-6.14-5.29c-1.09-.8-2.22-1.55-3.38-2.28-.59-.36-1.16-.72-1.78-1.06-.3-.17-.62-.33-.94-.5l-.5-.25-.58-.28a5.49,5.49,0,0,0-5,9.75l.38.21.56.31.67.39c.45.26.92.55,1.38.83.91.58,1.82,1.19,2.71,1.84A56.82,56.82,0,0,1,195,215.5a51.22,51.22,0,0,1,4.56,4.76c.37.4.69.84,1,1.28s.68.85,1,1.3l.93,1.34c.15.22.34.48.45.65l.28.46a16,16,0,0,1,1.55,5.39,43.38,43.38,0,0,1,.35,6.64,106.35,106.35,0,0,1-1,12.22,9.8,9.8,0,0,1,5.65,1.59,65.47,65.47,0,0,0,3.53-13.07,45,45,0,0,0,.6-8.06A29.76,29.76,0,0,0,213.5,225.69Z" style="fill:#263238"></path><path d="M165.74,202.1l-1.08-1.89a1.39,1.39,0,0,1,.92-2.06,57.31,57.31,0,0,0,10.79-3.73,1.4,1.4,0,0,1,1.85.77l1.77,4.45S171.8,203.69,165.74,202.1Z" style="fill:#263238"></path><path d="M166.42,201.32l8.92-1.88S169.13,204.07,166.42,201.32Z" style="opacity:0.4"></path></g></svg>