<svg xmlns="http://www.w3.org/2000/svg" viewBox="0 0 500 500"><g id="freepik--Floor--inject-64"><ellipse id="freepik--floor--inject-64" cx="254" cy="374.77" rx="215.61" ry="119.87" style="fill:#f5f5f5"></ellipse></g><g id="freepik--Shadows--inject-64"><polygon id="freepik--Shadow--inject-64" points="345.74 319.53 454.84 382.55 479.21 368.48 370.11 305.46 345.74 319.53" style="fill:#e0e0e0"></polygon><polygon id="freepik--shadow--inject-64" points="14.39 367.51 173.76 275.35 192.77 286.29 33.4 378.44 14.39 367.51" style="fill:#e0e0e0"></polygon><path id="freepik--shadow--inject-64" d="M340,312.6l48.78-28.11a1.26,1.26,0,0,0,0-2.38L295.43,228a4.55,4.55,0,0,0-4.1,0L242.54,256.1a1.25,1.25,0,0,0,0,2.37l93.32,54.13A4.51,4.51,0,0,0,340,312.6Z" style="fill:#e0e0e0"></path><polygon id="freepik--shadow--inject-64" points="79.39 410.94 189.05 474.26 367.79 371.08 258.11 307.75 79.39 410.94" style="fill:#e0e0e0"></polygon></g><g id="freepik--Furniture--inject-64"><g id="freepik--Cabinet--inject-64"><g id="freepik--cabinet--inject-64"><polygon points="338.46 309.24 383.49 283.24 383.49 146.25 338.46 172.25 338.46 309.24" style="fill:#e0e0e0"></polygon><polygon points="338.46 172.25 247.63 119.81 247.63 256.8 338.46 309.24 338.46 172.25" style="fill:#ebebeb"></polygon><polygon points="247.63 119.81 338.46 172.25 383.49 146.25 292.66 93.81 247.63 119.81" style="fill:#f5f5f5"></polygon><polygon points="332.03 177.34 254.07 132.33 254.07 157.45 252.89 158.14 330.85 203.15 332.03 202.47 332.03 177.34" style="fill:#e0e0e0"></polygon><polygon points="330.85 178.02 252.88 133.01 252.89 158.14 330.85 203.15 330.85 178.02" style="fill:#f5f5f5"></polygon><path d="M294.32,162.94l-8.75-5.05c-1.14-.66-2.06-.36-2.06.67a4.1,4.1,0,0,0,2.06,3l8.75,5.05c1.13.66,2.05.36,2.05-.67A4.13,4.13,0,0,0,294.32,162.94Z" style="fill:#e0e0e0"></path><polygon points="332.03 208.29 254.07 163.27 254.07 188.4 252.89 189.09 330.85 234.1 332.03 233.41 332.03 208.29" style="fill:#e0e0e0"></polygon><polygon points="330.85 208.97 252.88 163.96 252.89 189.09 330.85 234.1 330.85 208.97" style="fill:#f5f5f5"></polygon><path d="M294.32,193.89l-8.75-5c-1.14-.66-2.06-.36-2.06.66a4.12,4.12,0,0,0,2.06,3.05l8.75,5c1.13.66,2.05.36,2.05-.67A4.12,4.12,0,0,0,294.32,193.89Z" style="fill:#e0e0e0"></path><polygon points="332.03 239.23 254.07 194.22 254.07 219.35 252.89 220.03 330.85 265.04 332.03 264.36 332.03 239.23" style="fill:#e0e0e0"></polygon><polygon points="330.85 239.92 252.88 194.91 252.89 220.03 330.85 265.04 330.85 239.92" style="fill:#f5f5f5"></polygon><path d="M294.32,224.83l-8.75-5.05c-1.14-.65-2.06-.35-2.06.67a4.12,4.12,0,0,0,2.06,3.05l8.75,5.05c1.13.65,2.05.35,2.05-.67A4.13,4.13,0,0,0,294.32,224.83Z" style="fill:#e0e0e0"></path><polygon points="332.03 270.18 254.07 225.17 254.07 250.3 252.89 250.98 330.85 295.99 332.03 295.31 332.03 270.18" style="fill:#e0e0e0"></polygon><polygon points="330.85 270.86 252.88 225.85 252.89 250.98 330.85 295.99 330.85 270.86" style="fill:#f5f5f5"></polygon><path d="M294.32,255.78l-8.75-5.05c-1.14-.66-2.06-.36-2.06.67a4.1,4.1,0,0,0,2.06,3l8.75,5.06c1.13.65,2.05.35,2.05-.67A4.13,4.13,0,0,0,294.32,255.78Z" style="fill:#e0e0e0"></path></g></g></g><g id="freepik--Paint--inject-64"><g id="freepik--paint--inject-64"><path d="M310.56,68.22v-4.5h0a1.55,1.55,0,0,1,.9-1.2L338.51,46.9a4.62,4.62,0,0,1,4.16,0l77.76,44.9a1.51,1.51,0,0,1,.89,1.2h0v4.5h0a1.53,1.53,0,0,1-.89,1.2l-27.05,15.62a4.62,4.62,0,0,1-4.16,0l-77.76-44.9a1.55,1.55,0,0,1-.9-1.2Z" style="fill:#f0f0f0"></path><path d="M420.43,94.2l-27.05,15.61a4.56,4.56,0,0,1-4.16,0L311.46,64.92a1.27,1.27,0,0,1,0-2.4L338.51,46.9a4.62,4.62,0,0,1,4.16,0l77.76,44.9A1.27,1.27,0,0,1,420.43,94.2Z" style="fill:#fafafa"></path><path d="M391.3,110.31v4.51a4.41,4.41,0,0,0,2.08-.5L420.43,98.7a1.49,1.49,0,0,0,.89-1.2h0V93h0a1,1,0,0,0-.17-.51c.32.58.08,1.25-.72,1.71l-27.05,15.61A4.16,4.16,0,0,1,391.3,110.31Z" style="fill:#e0e0e0"></path><path d="M358.63,73.07c-7.48,4.32-19.62,4.32-27.11,0s-7.49-11.33,0-15.65,19.63-4.33,27.11,0S366.12,68.75,358.63,73.07Z" style="opacity:0.03"></path><path d="M327,65.13h0V36.91h32.38V65.13h0c.14,2.49-1.42,5-4.71,6.91-6.33,3.65-16.58,3.65-22.9,0C328.41,70.14,326.85,67.62,327,65.13Z" style="fill:#ebebeb"></path><path d="M359.34,59.67c0,2.41-1.56,4.82-4.74,6.66C348.27,70,338,70,331.7,66.33c-3.16-1.83-4.74-4.22-4.74-6.61V42.18c0,2.39,1.58,4.78,4.74,6.61,6.32,3.65,16.57,3.65,22.9,0,3.18-1.84,4.76-4.25,4.74-6.66Z" style="fill:#e0e0e0"></path><path d="M341.38,46.2c2.87,0,5,1.16,5.18,2.54s0,7.45,0,9.33-1,3,.21,3,.14-1.42.14-3V49.48c0-2.43,2.17-4.08,5.63-5Z" style="fill:#fafafa"></path><path d="M343.37,40.21c2.88,0,5,1.16,5.19,2.53s0,7.46,0,9.33-1,3,.21,3,.14-1.42.14-3V43.49c0-1.48,2.17-4.08,5.62-5Z" style="fill:#fafafa"></path><path d="M354.6,43.52c-6.33,3.65-16.58,3.65-22.9,0s-6.32-9.57,0-13.22,16.57-3.65,22.9,0S360.92,39.87,354.6,43.52Z" style="fill:#fafafa"></path><path d="M353.9,43c-5.94,3.35-15.56,3.35-21.5,0s-5.93-8.79,0-12.14,15.56-3.35,21.5,0S359.83,39.63,353.9,43Z" style="fill:#ebebeb"></path><path d="M332.4,32.41c5.94-3.35,15.56-3.35,21.5,0,2.61,1.48,4.07,3.36,4.38,5.29-.31,1.92-1.77,3.8-4.38,5.28-5.94,3.35-15.56,3.35-21.5,0-2.61-1.48-4.07-3.36-4.38-5.28C328.33,35.77,329.79,33.89,332.4,32.41Z" style="fill:#f5f5f5"></path><path d="M336.52,74c6,1.53,13.19.91,18.07-1.92,3.29-1.89,4.86-4.4,4.72-6.9h0V36.91c0,2.39-1.59,4.79-4.75,6.61a12.61,12.61,0,0,1-1.56.78V69.07C353,71.77,344,75,336.52,74Z" style="opacity:0.05"></path><path d="M399.26,97.75c-7.49,4.32-19.63,4.32-27.11,0s-7.49-11.33,0-15.65,19.62-4.33,27.11,0S406.74,93.43,399.26,97.75Z" style="opacity:0.03"></path><path d="M367.61,89.81h0V61.59H400V89.81h0c.13,2.49-1.43,5-4.72,6.91-6.32,3.65-16.57,3.65-22.89,0C369,94.82,367.48,92.3,367.61,89.81Z" style="fill:#ebebeb"></path><path d="M400,84.35c0,2.41-1.56,4.82-4.74,6.66-6.32,3.65-16.57,3.65-22.89,0-3.16-1.83-4.74-4.22-4.74-6.61V66.86c0,2.39,1.58,4.78,4.74,6.61,6.32,3.65,16.57,3.65,22.89,0,3.18-1.84,4.76-4.25,4.74-6.66Z" style="fill:#e0e0e0"></path><path d="M382,70.88c2.88,0,5,1.17,5.19,2.54s0,7.46,0,9.33-1,3,.21,3,.14-1.42.14-3V74.17c0-2.44,2.17-4.09,5.62-5Z" style="fill:#fafafa"></path><path d="M384,64.89c2.88,0,5,1.16,5.19,2.54s0,7.45,0,9.33-1,3,.21,3,.14-1.42.14-3V68.17c0-1.48,2.17-4.08,5.62-5Z" style="fill:#fafafa"></path><path d="M395.22,68.2c-6.32,3.65-16.57,3.65-22.89,0s-6.32-9.57,0-13.22,16.57-3.65,22.89,0S401.54,64.55,395.22,68.2Z" style="fill:#fafafa"></path><path d="M394.52,67.66C388.59,71,379,71,373,67.66s-5.94-8.78,0-12.14,15.56-3.35,21.49,0S400.46,64.31,394.52,67.66Z" style="fill:#ebebeb"></path><path d="M373,57.09c5.93-3.35,15.56-3.35,21.49,0,2.62,1.48,4.07,3.36,4.39,5.29-.32,1.93-1.77,3.81-4.39,5.28C388.59,71,379,71,373,67.66c-2.62-1.47-4.08-3.35-4.39-5.28C369,60.45,370.41,58.57,373,57.09Z" style="fill:#f5f5f5"></path><path d="M377.15,98.63c6,1.54,13.18.91,18.07-1.92,3.29-1.89,4.85-4.4,4.72-6.9h0V61.59c0,2.4-1.58,4.79-4.74,6.62a14.33,14.33,0,0,1-1.57.78V93.75C393.65,96.45,384.63,99.66,377.15,98.63Z" style="opacity:0.05"></path></g></g><g id="freepik--Tools--inject-64"><g id="freepik--tools--inject-64"><polygon points="31.87 117.32 40 122.01 202.48 28.2 194.35 23.51 31.87 117.32" style="fill:#f5f5f5"></polygon><polygon points="31.87 117.32 40 122.01 40 272.11 31.87 267.41 31.87 117.32" style="fill:#ebebeb"></polygon><polygon points="202.48 28.2 202.48 178.3 40 272.11 40 122.01 202.48 28.2" style="fill:#e0e0e0"></polygon><polygon points="198.42 35.24 198.42 175.95 44.06 265.07 44.06 124.36 198.42 35.24" style="fill:#fafafa"></polygon><polygon points="198.42 175.95 194.35 173.61 194.35 37.58 198.42 35.24 198.42 175.95" style="fill:#ebebeb"></polygon><polygon points="198.42 175.95 194.35 173.61 44.06 260.38 44.06 265.07 198.42 175.95" style="fill:#f5f5f5"></polygon><g id="freepik--shadow--inject-64" style="opacity:0.15"><path d="M92.38,131.4a1.45,1.45,0,0,1-.56-1.29V107.18l2-1.17v2.33c.44-.49.9-1.1,1.41-1.76a25.7,25.7,0,0,1,3.8-4.25A12.69,12.69,0,0,1,103,100a6.58,6.58,0,0,0,2-1.07V96.23l2-1.15v18.51a3.22,3.22,0,0,1-.3,1.32v3.44l-9,53.19-5.22,3Zm1.46-9.27c5.38-3.25,7.23-6,10.21-10.43l.88-1.3v-5.27a21.89,21.89,0,0,0-1.44,1.79,26,26,0,0,1-3.79,4.23,13,13,0,0,1-3.93,2.37,6.37,6.37,0,0,0-1.93,1Z"></path><path d="M115.82,118.14c-.44-.12-.82-.57-.82-1.41V93.8l2-1.17V95c.44-.48.9-1.09,1.41-1.75a25.25,25.25,0,0,1,3.8-4.25,12.49,12.49,0,0,1,3.92-2.37,6.39,6.39,0,0,0,2-1.08V82.85l2-1.16V100.2a3.23,3.23,0,0,1-.3,1.33l-2.46,5.39,1.87-.7L125.65,150l-12.81,4.81Zm1.2-9.4c5.38-3.24,7.23-6,10.21-10.43l.88-1.29V91.75c-.46.49-.93,1.11-1.44,1.78a25.62,25.62,0,0,1-3.79,4.24,12.75,12.75,0,0,1-3.93,2.36,6.83,6.83,0,0,0-1.93,1.05Z"></path><path d="M94.34,225.31c-.56,0-1.16-.46-1.16-1.46V209.58l.56-.32v-2.08a3.57,3.57,0,0,1,.55-1.87V181.45l-.11.07-1.07-1.85,8.39-4.84a3.43,3.43,0,0,1,1.72-.5,2.72,2.72,0,0,1,1.37.36c1.2.7,1.89,2.27,1.89,4.32v15.53c0,3.27-1.72,6.83-3.92,8.09l-6.37,3.69a1.38,1.38,0,0,0-.32.86V208l.57-.32v14.84a3.16,3.16,0,0,1-1.35,2.53A1.45,1.45,0,0,1,94.34,225.31ZM95.86,204l5.64-3.25c1.52-.88,2.85-3.8,2.85-6.25V179a3,3,0,0,0-.82-2.47.68.68,0,0,0-.31-.08,1.48,1.48,0,0,0-.66.21l-6.7,3.88Z"></path><path d="M112.82,209.58a1.31,1.31,0,0,1-1.26-1.27l-.4.23a.93.93,0,0,1-.5.14c-.57,0-1-.5-1.22-1.37a.9.9,0,0,1-.28,0,1.07,1.07,0,0,1-.93-.53,1.09,1.09,0,0,1,.39-1.46l.73-.42c.14-1.13.55-2.5,1.31-2.94l.88-.5v-.2a3.57,3.57,0,0,1,1.54-2.9l4.93-2.85a1.5,1.5,0,0,1,.76-.22c.64,0,1.28.5,1.28,1.63v1.8l1.3-.74a3.45,3.45,0,0,0,1.12-2.59V178.18a5.39,5.39,0,0,1,2.19-4.44l1.26-.72a3.84,3.84,0,0,1,1.62-2.41l5-2.92a1.67,1.67,0,0,1,.83-.24,1.26,1.26,0,0,1,1.09.61l.32-.18a2.22,2.22,0,0,1,1.12-.32,1.84,1.84,0,0,1,.94.25,2.85,2.85,0,0,1,1.2,2.59v14.69a1.74,1.74,0,0,0,.1.65l3.52-2V177a5.12,5.12,0,0,1,2.18-4.13,2.05,2.05,0,0,1,1-.3c.83,0,1.67.68,1.67,2.2v15.06a5.11,5.11,0,0,1-2.19,4.13,2,2,0,0,1-1,.3h0c-.83,0-1.66-.68-1.66-2.2v-5.9l-2.5,1.44a2.21,2.21,0,0,1-1.11.32,1.86,1.86,0,0,1-.95-.26,2.84,2.84,0,0,1-1.2-2.58V170.4a1.76,1.76,0,0,0-.1-.66l-1.14.67a3.88,3.88,0,0,1-1.62,2.41L128,175.73a1.6,1.6,0,0,1-.84.25,1.28,1.28,0,0,1-1.08-.61l-.39.22a3.45,3.45,0,0,0-1.13,2.59v17.25a5.37,5.37,0,0,1-2.19,4.43l-2.36,1.37v2.38a3.59,3.59,0,0,1-1.54,2.9l-4.93,2.85A1.61,1.61,0,0,1,112.82,209.58Z"></path><path d="M139.28,116.58c-1.79,0-3.15-1.77-3.39-4.41a15.06,15.06,0,0,1,.49-5.22,53,53,0,0,1,1.54-5.17c.27-.81.59-1.62.9-2.41s.65-1.68.91-2.49a21,21,0,0,0,.91-4.76c.05-2,0-4.07,0-6.1,0-1,0-2,0-3a3.67,3.67,0,0,1-1-2.74,6.63,6.63,0,0,1,2.68-5.47,2.58,2.58,0,0,1,1.28-.37,2.12,2.12,0,0,1,1.07.29A3.38,3.38,0,0,1,146,77.81a7.55,7.55,0,0,1-1,3.65c0,.92,0,3.25,0,3.25l3.67-2.12a1.16,1.16,0,0,1,.6-.18,1.06,1.06,0,0,1,1,1.19,2.44,2.44,0,0,1-1.1,2L145,88c0,.74,0,1.47,0,2.18a9.76,9.76,0,0,0,.89,3.59,11.1,11.1,0,0,0,.88,1.39,13.86,13.86,0,0,1,.91,1.42,16.5,16.5,0,0,1,1.57,3.44,11,11,0,0,1,.5,4.71c-.3,3.66-2.34,7.64-4.53,8.86l-.51-.86c1.88-1.15,3.64-4.82,3.84-8a9.1,9.1,0,0,0-.54-4,14.44,14.44,0,0,0-1.53-3,12.8,12.8,0,0,0-.87-1.23A11.2,11.2,0,0,1,144.53,95a10.92,10.92,0,0,1-1.18-4.19c0-.74-.06-1.46-.07-2.18l-.92.53c0,.92,0,1.86-.09,2.82a23.91,23.91,0,0,1-1.14,5.43c-.32.94-.68,1.81-1,2.65s-.61,1.5-.88,2.28a45.67,45.67,0,0,0-1.57,4.92,14,14,0,0,0-.56,4.69c.15,2.13,1.1,3.6,2.33,3.6a2.12,2.12,0,0,0,1-.28l.49.87a3.21,3.21,0,0,1-1.64.49Zm3.11-29.95.85-.49,0-2.79a2.71,2.71,0,0,1-.79.26C142.41,84.35,142.39,86.63,142.39,86.63Zm-.5-5.39a.77.77,0,0,1,.32.22l.07,0a4.71,4.71,0,0,0,1.61-3.62c0-.86-.26-1.18-.33-1.22a.6.6,0,0,0-.22.08,4.71,4.71,0,0,0-1.61,3.62A2.35,2.35,0,0,0,141.89,81.24Z"></path><polygon points="141.39 138.6 136.93 141.18 136.93 131.02 141.39 128.44 141.39 126.97 138.27 128.77 138.27 126.79 139.54 126.05 139.54 124.69 141.39 123.62 141.39 122.93 145.09 120.79 145.09 126.31 149.77 123.61 149.77 126.06 151.41 125.11 151.41 130.36 149.77 131.31 149.77 133.76 145.09 136.46 145.09 160.65 141.39 162.79 141.39 138.6"></polygon><path d="M166.45,174.81v-3.87l-.85.49v.94l-1.94,1.12a10.65,10.65,0,0,0-2.46,2.3,4.66,4.66,0,0,1-1.19,1,2.59,2.59,0,0,1-1.3.39c-1.1,0-1.84-.91-1.84-2.25a5.81,5.81,0,0,1,2.64-4.63,2.56,2.56,0,0,1,1.29-.39h.13a4.54,4.54,0,0,0,2.23-.5L165.6,168V169l.85-.5v-5.85L164.1,164a.79.79,0,0,1-1.18-.84,1.64,1.64,0,0,1,.68-1.34l2.85-1.64v-4l6.19-3.58v4l1.33-.76v-4l6.19-3.58v4l1.13-.65v-1l1.94-1.12a10.41,10.41,0,0,0,2.46-2.3,4.66,4.66,0,0,1,1.19-1,2.62,2.62,0,0,1,1.3-.39c1.1,0,1.84.91,1.84,2.26a5.79,5.79,0,0,1-2.64,4.62,2.56,2.56,0,0,1-1.29.39H186a4.43,4.43,0,0,0-2.23.51l-2.44,1.4v-.94l-1.13.66v5.85l2.63-1.52a.73.73,0,0,1,.4-.11c.37,0,.78.29.78.95a1.6,1.6,0,0,1-.68,1.33L180.16,163v4.4l-4,11.69-2.2,1.28V166.6l-1.33.76v13.79l-2,1.15Zm6.19-9.91,1.33-.77v-5.85l-1.33.77Z"></path><path d="M49.3,157.58l1.92-1.11V147l-1,.56v-6.9a19.25,19.25,0,0,0-.86-5.25,8.81,8.81,0,0,1-.31-2.41c0-3.22,1.3-6.49,3-7.45a2,2,0,0,1,1-.29c1.47,0,2.46,1.85,2.46,4.61a13.12,13.12,0,0,1-.29,2.7,31.59,31.59,0,0,0-.88,6.31v6.33l-1,.55v9.45l1.91-1.1v22.5l-6,3.45Z"></path><path d="M58.82,152.08l1.33-.76v-9.45l-1,.56v-6.91a19,19,0,0,0-.87-5.25,8.7,8.7,0,0,1-.3-2.4c0-3.22,1.3-6.5,3-7.46a2,2,0,0,1,1-.28c1.47,0,2.46,1.85,2.46,4.61a12.62,12.62,0,0,1-.3,2.7,32.21,32.21,0,0,0-.87,6.3v6.33l-1,.56v9.45l1.33-.76v22.5l-4.8,2.77Z"></path><path d="M68,146.76l1-.59v-9.45l-1,.56v-6.91a19.36,19.36,0,0,0-.87-5.25,8.78,8.78,0,0,1-.3-2.41c0-3.22,1.3-6.49,3-7.45a2,2,0,0,1,1-.29c1.48,0,2.47,1.85,2.47,4.61a12.64,12.64,0,0,1-.3,2.71,32.21,32.21,0,0,0-.87,6.3v6.33l-1,.56v9.45l1-.6v22.51L68,169.26Z"></path><path d="M77.26,141.44,78,141v-9.45l-1,.56v-6.9a19.25,19.25,0,0,0-.86-5.25,8.44,8.44,0,0,1-.31-2.41c0-3.22,1.3-6.49,3-7.45a2,2,0,0,1,1-.29c1.47,0,2.46,1.85,2.46,4.61a12.48,12.48,0,0,1-.3,2.7,32.19,32.19,0,0,0-.87,6.31v6.33l-1,.55v9.45l.74-.42v22.5l-3.62,2.09Z"></path><path d="M155.77,111.94V93l1.92-1.11V82.39l-1,.55V80.75h0V76a19.69,19.69,0,0,0-.86-5.24,8.65,8.65,0,0,1-.31-2.41,11.77,11.77,0,0,1,.32-2.72l0-.21,5.53-3.2.19.59a7.73,7.73,0,0,1,.34,2.41,12.52,12.52,0,0,1-.31,2.71,35.14,35.14,0,0,0-.87,6.29v3h0v3.34l-1,.56V90.6l1.91-1.1V109l-.64,3.36L156.54,115Z"></path><path d="M165.29,106.44v-19l1.33-.76V77.23l-1,.56V75.6h0V70.89a19.62,19.62,0,0,0-.86-5.24,8.34,8.34,0,0,1-.31-2.41,11.92,11.92,0,0,1,.32-2.73l0-.21,5.56-3.21.18.61a8.7,8.7,0,0,1,.31,2.41,12.57,12.57,0,0,1-.3,2.71,35.14,35.14,0,0,0-.87,6.29v3h0v3.35l-1,.55v9.46l1.31-.76v19.5l-.63,3.35-3.38,1.95Z"></path><path d="M174.51,101.12v-19l1-.6V72.08l-1,.56v-2.2h0V65.73a19.34,19.34,0,0,0-.87-5.24,8.58,8.58,0,0,1-.31-2.4,11.79,11.79,0,0,1,.32-2.73l.05-.21L179.3,52l.2.58a8.06,8.06,0,0,1,.33,2.41,13.08,13.08,0,0,1-.3,2.71,35.29,35.29,0,0,0-.88,6.3v3h0v3.34l-1,.56v9.45l1-.59V99.2l-.65,3.36-2.79,1.61Z"></path><path d="M183.74,95.79v-19l.73-.42V66.93l-1,.55V65.29h0V60.58a19.76,19.76,0,0,0-.86-5.24,8.65,8.65,0,0,1-.31-2.41,11.92,11.92,0,0,1,.32-2.73l0-.2,5.56-3.22.18.61a8.34,8.34,0,0,1,.31,2.41,12.5,12.5,0,0,1-.3,2.71,35.14,35.14,0,0,0-.87,6.29v3h0v3.34l-1,.56v9.45l.74-.43V94.22l-.65,3.36-2.2,1.26Z"></path><polygon points="49.3 245.52 48.98 244.95 49.3 244.77 49.3 242.21 48.98 241.65 49.3 241.46 49.3 238.9 48.98 238.34 49.3 238.15 49.3 235.6 48.98 235.03 49.3 234.85 49.3 232.29 48.98 231.73 49.3 231.54 49.3 228.98 48.98 228.42 49.3 228.23 49.3 225.68 48.98 225.11 49.3 224.93 49.3 222.37 48.98 221.81 49.3 221.62 49.3 219.06 48.98 218.5 49.3 218.31 49.3 215.76 48.98 215.19 49.3 215.01 49.3 212.45 48.98 211.89 49.3 211.7 49.3 209.14 48.98 208.58 49.3 208.39 49.3 205.84 48.98 205.27 49.3 205.09 49.3 202.53 48.98 201.97 49.3 201.78 49.3 199.22 48.98 198.66 49.3 198.47 49.3 190.22 56.67 185.96 56.67 245.18 56.4 245.31 49.3 249.41 49.3 245.52"></polygon><polygon points="77.82 211.79 77.49 211.23 77.82 211.04 77.82 208.48 77.49 207.92 77.82 207.73 77.82 205.18 77.49 204.61 77.82 204.43 77.82 201.87 77.49 201.31 77.82 201.12 77.82 198.56 77.49 198 77.82 197.81 77.82 195.26 77.49 194.69 77.82 194.51 77.82 191.95 77.49 191.39 77.82 191.2 77.82 188.64 77.49 188.08 77.82 187.89 77.82 185.34 77.49 184.77 77.82 184.59 77.82 183.83 63.96 191.83 63.96 181.76 84.36 169.98 84.36 178.9 85.19 178.42 85.19 211.43 77.82 215.68 77.82 211.79"></polygon><path d="M60.74,208.61,83,230,60.74,242.82ZM65.54,233l6.61-3.81-6.61-6.36Z"></path><path d="M156.61,151.66a1,1,0,0,1-.92-1.11v-1.48a2.19,2.19,0,0,1,.92-1.75v-1.63a3.18,3.18,0,0,0-.19-1.15l-.36-.52a3.67,3.67,0,0,1-.37-1.71V137c0-.56,0-1.33,0-1.84s0-1,0-1.44a36.5,36.5,0,0,1,1.12-10.16c1.51-5.82,4.84-6.77,5-6.81l1.83-.48-1.35,1.32c-3.35,3.3-3.28,8.31-2.29,10.18a1.32,1.32,0,0,0,1.3.69,2.71,2.71,0,0,0,.74-.11l.07,0h.13c.45,0,.9.42.9,1.36V131L176,123.53v-1.08l10.91-6.3a1.45,1.45,0,0,1,.72-.21c.61,0,1.21.48,1.21,1.54V120a3.3,3.3,0,0,1-1.43,2.69L176,129.23v-1.08l-12.87,7.43v1.11a8.47,8.47,0,0,1-.52,2.48l-.86,2.26a7.52,7.52,0,0,0-.46,2.13v1.12l.19,0c.44,0,.91.35.91,1.11v1.48a2.13,2.13,0,0,1-.94,1.76l-4.32,2.5a1.07,1.07,0,0,1-.53.15Z"></path></g><g id="freepik--tools--inject-64"><polygon points="107.13 111.86 93.88 128.91 93.88 172.69 98.15 170.23 107.13 117.36 107.13 111.86" style="fill:#f5f5f5"></polygon><polygon points="97.56 169.15 98.15 170.23 107.13 117.36 107.13 112.78 106.27 113.27 106.27 117.8 97.56 169.15" style="fill:#e0e0e0"></polygon><polygon points="93.88 128.91 93.88 172.69 94.68 170.9 94.68 127.89 93.88 128.91" style="fill:#e0e0e0"></polygon><path d="M97.63,164.13a3.11,3.11,0,0,1-1.18,2.49c-.65.38-1.17-.13-1.17-1.13A3.09,3.09,0,0,1,96.45,163C97.1,162.62,97.63,163.13,97.63,164.13Z" style="fill:#e0e0e0"></path><path d="M106.43,95.52v2.59c-1.7,1.56-3.11,1.07-6.06,3.6s-4.38,5.57-6,6.76v-2.59l-1,.59v22.64c0,.76.41,1.15.92.86l7.09-4.1a1.8,1.8,0,0,0,.66-.8l5.18-11.37a2.72,2.72,0,0,0,.26-1.11V94.94Zm0,14C102.7,115,101,118.15,94.34,122v-8.66c1.68-1.52,3.09-1.06,6-3.57s4.41-5.6,6.06-6.76Z" style="fill:#ebebeb"></path><path d="M94.34,113.34c1.68-1.52,3.09-1.06,6-3.57s4.41-5.6,6.06-6.76v-4.9c-1.7,1.56-3.11,1.07-6.06,3.6s-4.38,5.57-6,6.76Z" style="fill:#e0e0e0"></path><path d="M94.34,113.34c1.68-1.52,3.09-1.06,6-3.57s4.41-5.6,6.06-6.76v-4.9c-1.7,1.56-3.11,1.07-6.06,3.6s-4.38,5.57-6,6.76Z" style="opacity:0.1"></path><polygon points="126.18 148.62 114.4 153.03 117.88 110.38 129.66 105.96 126.18 148.62" style="fill:#f5f5f5"></polygon><path d="M120.22,145.31a2.8,2.8,0,0,1-1.32,2.32c-.64.24-1.09-.41-1-1.45a2.85,2.85,0,0,1,1.32-2.32C119.86,143.62,120.31,144.27,120.22,145.31Z" style="fill:#e0e0e0"></path><polygon points="119.06 109.93 117.88 110.38 114.4 153.03 115.81 149.86 119.06 109.93" style="fill:#e0e0e0"></polygon><polygon points="129.66 105.96 128.47 106.41 125.22 146.34 126.18 148.62 129.66 105.96" style="fill:#e0e0e0"></polygon><path d="M129.61,82.14v2.59c-1.7,1.56-3.12,1.06-6.06,3.6s-4.38,5.57-6,6.76V92.5l-1,.58v22.65c0,.76.41,1.15.92.85l7.09-4.09a1.86,1.86,0,0,0,.66-.8l5.18-11.37a2.76,2.76,0,0,0,.26-1.12V81.56Zm0,14c-3.73,5.47-5.43,8.6-12.09,12.45V100c1.68-1.53,3.09-1.06,6-3.57s4.41-5.6,6.06-6.76Z" style="fill:#ebebeb"></path><path d="M117.52,100c1.68-1.53,3.09-1.06,6-3.57s4.41-5.6,6.06-6.76v-4.9c-1.7,1.56-3.12,1.06-6.06,3.6s-4.38,5.57-6,6.76Z" style="fill:#e0e0e0"></path><path d="M117.52,100c1.68-1.53,3.09-1.06,6-3.57s4.41-5.6,6.06-6.76v-4.9c-1.7,1.56-3.12,1.06-6.06,3.6s-4.38,5.57-6,6.76Z" style="opacity:0.1"></path><rect x="95.79" y="178.77" width="0.57" height="26.32" style="fill:#e0e0e0"></rect><path d="M96.37,209.36H95.24v-3.18a2.77,2.77,0,0,1,1.13-2.28l6.38-3.68c1.68-1,3.1-4,3.1-6.68V178c0-1.43-.4-2.51-1.07-2.9a1.47,1.47,0,0,0-1.47.13l-8,4.59-.57-1,8-4.59a2.51,2.51,0,0,1,2.59-.13c1,.6,1.64,2,1.64,3.88v15.53c0,3.11-1.61,6.47-3.67,7.66l-6.37,3.68a1.73,1.73,0,0,0-.57,1.3Z" style="fill:#f0f0f0"></path><path d="M95.84,223.64l-.07,0c-.6.35-1.09,0-1.09-.82v-14l2.26-1.3v14A2.65,2.65,0,0,1,95.84,223.64Z" style="fill:#e0e0e0"></path><path d="M96.47,210.41a1.8,1.8,0,0,1-.66,1.41c-.37.21-.67-.08-.67-.64a1.74,1.74,0,0,1,.67-1.41C96.17,209.55,96.47,209.84,96.47,210.41Z" style="fill:#fafafa"></path><path d="M110.16,205.85a.55.55,0,0,1-.49-.28.57.57,0,0,1,.2-.78l12.73-7.34a3.85,3.85,0,0,0,1.37-3V177.18a4.92,4.92,0,0,1,1.94-4l10.17-5.87a1.54,1.54,0,0,1,1.56-.07,2.39,2.39,0,0,1,1,2.16v14.69c0,.65.19,1.06.38,1.17a.43.43,0,0,0,.43-.07l5-2.91a.57.57,0,0,1,.78.21.56.56,0,0,1-.21.77l-5,2.92a1.51,1.51,0,0,1-1.56.06,2.37,2.37,0,0,1-1-2.15V169.4c0-.66-.19-1.06-.38-1.17s-.24,0-.42.06l-10.17,5.87a3.84,3.84,0,0,0-1.38,3v17.25a4.92,4.92,0,0,1-1.94,4l-12.72,7.35A.58.58,0,0,1,110.16,205.85Z" style="fill:#f0f0f0"></path><path d="M145.14,192.54h0c-1.07.61-1.93,0-1.93-1.47V176a4.63,4.63,0,0,1,1.93-3.7h0c1.07-.62,1.94,0,1.94,1.46v15.07A4.65,4.65,0,0,1,145.14,192.54Z" style="fill:#e0e0e0"></path><path d="M133.84,171.39l-5.05,2.91c-.82.47-1.49,0-1.49-1.12v-.3a3.58,3.58,0,0,1,1.49-2.84l5.05-2.91c.82-.48,1.48,0,1.48,1.12v.3A3.57,3.57,0,0,1,133.84,171.39Z" style="fill:#e0e0e0"></path><path d="M119.26,205.08l-4.93,2.84c-.72.42-1.29,0-1.29-1V200.3a3.08,3.08,0,0,1,1.29-2.47l4.93-2.85c.71-.41,1.29,0,1.29,1v6.65A3.12,3.12,0,0,1,119.26,205.08Z" style="fill:#e0e0e0"></path><path d="M111.91,207.11c-.62.36-1.13-.62-1.13-2.19s.51-3.13,1.13-3.49l1.13-.65v5.68Z" style="fill:#e0e0e0"></path><polygon points="112.23 206.92 113.04 206.46 113.04 200.78 112.23 201.25 112.23 206.92" style="opacity:0.1"></polygon><path d="M119.89,199.53a1.73,1.73,0,0,1-.65,1.39c-.37.21-.66-.07-.66-.63a1.71,1.71,0,0,1,.66-1.39C119.6,198.69,119.89,199,119.89,199.53Z" style="fill:#fafafa"></path><path d="M145.8,182a1.73,1.73,0,0,1-.66,1.4c-.36.21-.66-.08-.66-.64a1.74,1.74,0,0,1,.66-1.39C145.51,181.2,145.8,181.49,145.8,182Z" style="fill:#fafafa"></path><path d="M143.06,82.14a1.58,1.58,0,0,1-.82-.22,2.91,2.91,0,0,1-1.14-2.63c0-2,1.07-4.25,2.43-5a1.82,1.82,0,0,1,1.85-.09,2.9,2.9,0,0,1,1.14,2.64,6.19,6.19,0,0,1-2.43,5A2.06,2.06,0,0,1,143.06,82.14Zm1.5-7a1,1,0,0,0-.47.15,5.15,5.15,0,0,0-1.86,4.05c0,1,.3,1.49.58,1.65a.72.72,0,0,0,.72-.08,5.13,5.13,0,0,0,1.86-4c0-1-.3-1.49-.58-1.65A.43.43,0,0,0,144.56,75.09Z" style="fill:#f0f0f0"></path><path d="M145.53,79.66c0,3.18-.12,6.54-.05,9.56a10.25,10.25,0,0,0,.94,3.8c.51,1,1.25,1.79,1.8,2.83a15.9,15.9,0,0,1,1.53,3.35,10.61,10.61,0,0,1,.49,4.5c-.29,3.41-2.16,7.3-4.29,8.48,2.13-1.3,3.88-5.18,4.08-8.4a9.51,9.51,0,0,0-.57-4.21,14.87,14.87,0,0,0-1.58-3.14c-.59-1-1.31-1.66-1.91-2.72a10.48,10.48,0,0,1-1.12-4c-.15-3.22-.11-6.37-.17-9.55a1.17,1.17,0,0,1,.42-.92c.23-.14.43,0,.43.39v0Z" style="fill:#f0f0f0"></path><path d="M142.94,81.16c-.06,3.26,0,6.35-.17,9.75a23.65,23.65,0,0,1-1.11,5.29c-.61,1.75-1.33,3.26-1.92,4.92a48.6,48.6,0,0,0-1.58,5,14.28,14.28,0,0,0-.56,4.87c.19,3,1.94,4.85,4.07,3.7-2.13,1.27-4-.46-4.29-3.54a15,15,0,0,1,.49-5.06A47.64,47.64,0,0,1,139.4,101c.55-1.68,1.29-3.33,1.8-4.92a20.91,20.91,0,0,0,.94-4.88c.07-3.11,0-6.33,0-9.5h0a1.13,1.13,0,0,1,.42-.9c.24-.14.43,0,.43.4Z" style="fill:#f0f0f0"></path><rect x="142.12" y="85.32" width="5.93" height="1.13" transform="translate(-23.5 84.01) rotate(-29.99)" style="fill:#f0f0f0"></rect><path d="M149.91,84.17,146,86.45V84.3L149.91,82c.47-.27.85,0,.85.58A2,2,0,0,1,149.91,84.17Z" style="fill:#f0f0f0"></path><polygon points="145.59 159.37 142.89 160.93 142.89 122.22 145.59 120.66 145.59 159.37" style="fill:#f0f0f0"></polygon><polygon points="150.27 132.47 138.43 139.31 138.43 130.31 150.27 123.47 150.27 132.47" style="fill:#ebebeb"></polygon><polygon points="150.27 130.56 138.43 137.4 138.43 139.31 150.27 132.47 150.27 130.56" style="fill:#e0e0e0"></polygon><polygon points="150.27 130.56 138.43 137.4 138.43 139.31 150.27 132.47 150.27 130.56" style="opacity:0.1"></polygon><polygon points="151.91 129.07 150.27 130.02 150.27 125.93 151.91 124.97 151.91 129.07" style="fill:#e0e0e0"></polygon><polygon points="150.82 129.7 150.27 130.02 150.27 125.93 150.82 125.61 150.82 129.7" style="opacity:0.1"></polygon><polygon points="141.04 123.98 141.04 125.34 139.77 126.08 139.77 126.91 145.59 123.54 145.59 122.72 145.59 121.35 141.04 123.98" style="fill:#e0e0e0"></polygon><polygon points="145.59 155.6 143.6 156.75 143.6 156.1 145.59 154.95 145.59 155.6" style="fill:#e0e0e0"></polygon><polygon points="145.59 149.85 143.6 151.01 143.6 150.35 145.59 149.2 145.59 149.85" style="fill:#e0e0e0"></polygon><polygon points="145.59 144.11 143.6 145.26 143.6 144.6 145.59 143.45 145.59 144.11" style="fill:#e0e0e0"></polygon><polygon points="145.59 138.36 143.6 139.51 143.6 138.86 145.59 137.7 145.59 138.36" style="fill:#e0e0e0"></polygon><path d="M164.38,170.47a1.12,1.12,0,0,1,.43-.9L184,158.47c.24-.14.43.05.43.41a1.12,1.12,0,0,1-.43.9l-19.23,11.1C164.57,171,164.38,170.83,164.38,170.47Z" style="fill:#e0e0e0"></path><path d="M164.41,172.06l1.69-1v-3.19l-1.69,1a5.12,5.12,0,0,1-2.59.57,2.14,2.14,0,0,0-1.06.32,5.33,5.33,0,0,0-2.39,4.2c0,1.55,1.07,2.19,2.39,1.43a4.28,4.28,0,0,0,1.06-.91A12.32,12.32,0,0,1,164.41,172.06Z" style="fill:#e0e0e0"></path><g style="opacity:0.1"><path d="M164.41,172.06l1.69-1v-3.19l-1.69,1a5.12,5.12,0,0,1-2.59.57,2.14,2.14,0,0,0-1.06.32,5.33,5.33,0,0,0-2.39,4.2c0,1.55,1.07,2.19,2.39,1.43a4.28,4.28,0,0,0,1.06-.91A12.32,12.32,0,0,1,164.41,172.06Z"></path></g><path d="M184.51,150.54c0-.36-.19-.54-.43-.41l-19.23,11.11a1.1,1.1,0,0,0-.43.9c0,.36.19.54.43.4l19.23-11.1A1.1,1.1,0,0,0,184.51,150.54Z" style="fill:#e0e0e0"></path><path d="M184.48,152.15l-1.68,1v-3.2l1.68-1a12.35,12.35,0,0,0,2.59-2.42,4.28,4.28,0,0,1,1.06-.91c1.32-.76,2.39-.12,2.39,1.44a5.33,5.33,0,0,1-2.39,4.19,2.14,2.14,0,0,1-1.06.32A5.23,5.23,0,0,0,184.48,152.15Z" style="fill:#e0e0e0"></path><g style="opacity:0.1"><path d="M184.48,152.15l-1.68,1v-3.2l1.68-1a12.35,12.35,0,0,0,2.59-2.42,4.28,4.28,0,0,1,1.06-.91c1.32-.76,2.39-.12,2.39,1.44a5.33,5.33,0,0,1-2.39,4.19,2.14,2.14,0,0,1-1.06.32A5.23,5.23,0,0,0,184.48,152.15Z"></path></g><polygon points="180.66 166.34 180.66 148.11 175.47 151.1 175.47 178.52 176.76 177.77 180.66 166.34" style="fill:#ebebeb"></polygon><polygon points="176.24 178.07 176.24 150.66 175.47 151.1 175.47 178.52 176.24 178.07" style="opacity:0.1"></polygon><polygon points="167.94 173.68 167.94 155.45 173.14 152.45 173.14 179.87 171.84 180.61 167.94 173.68" style="fill:#ebebeb"></polygon><polygon points="172.36 180.31 172.36 152.9 173.14 152.45 173.14 179.87 172.36 180.31" style="opacity:0.1"></polygon><path d="M170.38,167.75c-.26.15-.48-.05-.48-.46a1.3,1.3,0,0,1,.48-1c.26-.15.48.06.48.47A1.28,1.28,0,0,1,170.38,167.75Z" style="fill:#e0e0e0"></path><path d="M178.31,163.17c-.27.15-.48,0-.48-.46a1.23,1.23,0,0,1,.48-1c.26-.16.48.05.48.46A1.26,1.26,0,0,1,178.31,163.17Z" style="fill:#e0e0e0"></path><path d="M170.38,159.52c-.26.15-.48-.06-.48-.46a1.3,1.3,0,0,1,.48-1c.26-.15.48.06.48.46A1.28,1.28,0,0,1,170.38,159.52Z" style="fill:#e0e0e0"></path><path d="M178.31,154.94c-.27.15-.48-.05-.48-.46a1.23,1.23,0,0,1,.48-1c.26-.16.48.05.48.46A1.28,1.28,0,0,1,178.31,154.94Z" style="fill:#e0e0e0"></path><polygon points="53.87 158.04 52.72 158.7 52.72 142.9 53.87 142.24 53.87 158.04" style="fill:#f0f0f0"></polygon><path d="M51.75,139.68v3.85l3.08-1.78V137.9a34,34,0,0,1,.89-6.41,12.55,12.55,0,0,0,.28-2.6c0-3-1.21-4.75-2.71-3.89s-2.71,4-2.71,7a8.35,8.35,0,0,0,.29,2.27A20.29,20.29,0,0,1,51.75,139.68Z" style="fill:#e0e0e0"></path><g style="opacity:0.1"><path d="M51.75,139.68v3.85l3.08-1.78V137.9a34,34,0,0,1,.89-6.41,12.55,12.55,0,0,0,.28-2.6c0-3-1.21-4.75-2.71-3.89s-2.71,4-2.71,7a8.35,8.35,0,0,0,.29,2.27A20.29,20.29,0,0,1,51.75,139.68Z"></path></g><polygon points="54.83 143.94 51.75 145.72 51.75 143.53 54.83 141.75 54.83 143.94" style="fill:#ebebeb"></polygon><polygon points="55.78 175.34 50.8 178.22 50.8 156.87 55.78 153.99 55.78 175.34" style="fill:#f5f5f5"></polygon><polygon points="55.19 175.69 55.78 175.34 55.78 153.99 55.19 154.33 55.19 175.69" style="fill:#e0e0e0"></polygon><polygon points="50.8 178.22 51.4 177.88 51.4 156.53 50.8 156.87 50.8 178.22" style="fill:#e0e0e0"></polygon><polygon points="62.79 152.88 61.65 153.55 61.65 137.75 62.79 137.09 62.79 152.88" style="fill:#f0f0f0"></polygon><path d="M60.68,134.52v3.86l3.08-1.78v-3.86a34.33,34.33,0,0,1,.88-6.41,11.75,11.75,0,0,0,.29-2.59c0-3-1.21-4.76-2.71-3.89s-2.71,4-2.71,7a8.25,8.25,0,0,0,.28,2.26A20.38,20.38,0,0,1,60.68,134.52Z" style="fill:#e0e0e0"></path><g style="opacity:0.1"><path d="M60.68,134.52v3.86l3.08-1.78v-3.86a34.33,34.33,0,0,1,.88-6.41,11.75,11.75,0,0,0,.29-2.59c0-3-1.21-4.76-2.71-3.89s-2.71,4-2.71,7a8.25,8.25,0,0,0,.28,2.26A20.38,20.38,0,0,1,60.68,134.52Z"></path></g><polygon points="63.76 138.78 60.68 140.56 60.68 138.38 63.76 136.6 63.76 138.78" style="fill:#ebebeb"></polygon><polygon points="64.12 170.53 60.32 172.72 60.32 151.37 64.12 149.18 64.12 170.53" style="fill:#f5f5f5"></polygon><polygon points="63.53 170.87 64.12 170.53 64.12 149.18 63.53 149.52 63.53 170.87" style="fill:#e0e0e0"></polygon><polygon points="60.32 172.72 60.91 172.38 60.91 151.03 60.32 151.37 60.32 172.72" style="fill:#e0e0e0"></polygon><polygon points="71.72 147.73 70.57 148.39 70.57 132.59 71.72 131.93 71.72 147.73" style="fill:#f0f0f0"></polygon><path d="M69.61,129.37v3.85l3.08-1.78v-3.85a34.09,34.09,0,0,1,.88-6.41,12.48,12.48,0,0,0,.29-2.6c0-3-1.22-4.75-2.71-3.89s-2.71,4-2.71,7a8.33,8.33,0,0,0,.28,2.27A20.31,20.31,0,0,1,69.61,129.37Z" style="fill:#e0e0e0"></path><g style="opacity:0.1"><path d="M69.61,129.37v3.85l3.08-1.78v-3.85a34.09,34.09,0,0,1,.88-6.41,12.48,12.48,0,0,0,.29-2.6c0-3-1.22-4.75-2.71-3.89s-2.71,4-2.71,7a8.33,8.33,0,0,0,.28,2.27A20.31,20.31,0,0,1,69.61,129.37Z"></path></g><polygon points="72.69 133.63 69.61 135.41 69.61 133.22 72.69 131.44 72.69 133.63" style="fill:#ebebeb"></polygon><polygon points="72.75 165.55 69.54 167.4 69.54 146.05 72.75 144.2 72.75 165.55" style="fill:#f5f5f5"></polygon><polygon points="72.16 165.89 72.75 165.55 72.75 144.2 72.16 144.54 72.16 165.89" style="fill:#e0e0e0"></polygon><polygon points="69.54 167.4 70.13 167.06 70.13 145.71 69.54 146.05 69.54 167.4" style="fill:#e0e0e0"></polygon><polygon points="80.64 142.58 79.5 143.24 79.5 127.44 80.64 126.78 80.64 142.58" style="fill:#f0f0f0"></polygon><path d="M78.53,124.22v3.85l3.08-1.78v-3.85A34,34,0,0,1,82.5,116a12.55,12.55,0,0,0,.28-2.6c0-3-1.21-4.75-2.71-3.89s-2.71,4-2.71,7a8,8,0,0,0,.29,2.27A20.29,20.29,0,0,1,78.53,124.22Z" style="fill:#e0e0e0"></path><g style="opacity:0.1"><path d="M78.53,124.22v3.85l3.08-1.78v-3.85A34,34,0,0,1,82.5,116a12.55,12.55,0,0,0,.28-2.6c0-3-1.21-4.75-2.71-3.89s-2.71,4-2.71,7a8,8,0,0,0,.29,2.27A20.29,20.29,0,0,1,78.53,124.22Z"></path></g><polygon points="81.61 128.48 78.53 130.26 78.53 128.07 81.61 126.29 81.61 128.48" style="fill:#ebebeb"></polygon><polygon points="81.38 160.56 78.76 162.07 78.76 140.72 81.38 139.22 81.38 160.56" style="fill:#f5f5f5"></polygon><polygon points="80.79 160.91 81.38 160.56 81.38 139.22 80.79 139.56 80.79 160.91" style="fill:#e0e0e0"></polygon><polygon points="78.76 162.07 79.35 161.73 79.35 140.38 78.76 140.72 78.76 162.07" style="fill:#e0e0e0"></polygon><polygon points="160.34 93.4 159.19 94.06 159.19 78.26 160.34 77.6 160.34 93.4" style="fill:#f0f0f0"></polygon><path d="M162.48,64.26a12.55,12.55,0,0,1-.29,2.6,34.87,34.87,0,0,0-.89,6.4v3.85l-3.08,1.78V75a20.36,20.36,0,0,0-.88-5.38,7.93,7.93,0,0,1-.29-2.27,11,11,0,0,1,.31-2.61L162.17,62A7.52,7.52,0,0,1,162.48,64.26Z" style="fill:#e0e0e0"></path><g style="opacity:0.1"><path d="M162.48,64.26a12.55,12.55,0,0,1-.29,2.6,34.87,34.87,0,0,0-.89,6.4v3.85l-3.08,1.78V75a20.36,20.36,0,0,0-.88-5.38,7.93,7.93,0,0,1-.29-2.27,11,11,0,0,1,.31-2.61L162.17,62A7.52,7.52,0,0,1,162.48,64.26Z"></path></g><polygon points="161.31 79.3 158.23 81.08 158.23 78.89 161.31 77.11 161.31 79.3" style="fill:#ebebeb"></polygon><polygon points="162.25 89.36 162.25 108 161.66 111.04 157.87 113.23 157.27 110.88 157.27 92.24 162.25 89.36" style="fill:#f5f5f5"></polygon><polygon points="162.25 89.36 162.25 108 161.66 111.04 161.66 89.7 162.25 89.36" style="fill:#e0e0e0"></polygon><polygon points="157.87 91.89 157.87 113.23 157.27 110.88 157.27 92.24 157.87 91.89" style="fill:#e0e0e0"></polygon><polygon points="169.27 88.25 168.12 88.91 168.12 73.11 169.27 72.45 169.27 88.25" style="fill:#f0f0f0"></polygon><path d="M171.4,59.11a12,12,0,0,1-.29,2.6,35.83,35.83,0,0,0-.88,6.4V72l-3.08,1.77V69.89a20.28,20.28,0,0,0-.88-5.38,8,8,0,0,1-.29-2.27,11.55,11.55,0,0,1,.3-2.61l4.83-2.79A8,8,0,0,1,171.4,59.11Z" style="fill:#e0e0e0"></path><g style="opacity:0.1"><path d="M171.4,59.11a12,12,0,0,1-.29,2.6,35.83,35.83,0,0,0-.88,6.4V72l-3.08,1.77V69.89a20.28,20.28,0,0,0-.88-5.38,8,8,0,0,1-.29-2.27,11.55,11.55,0,0,1,.3-2.61l4.83-2.79A8,8,0,0,1,171.4,59.11Z"></path></g><polygon points="170.23 74.15 167.15 75.92 167.15 73.74 170.23 71.96 170.23 74.15" style="fill:#ebebeb"></polygon><polygon points="170.59 84.55 170.59 103.19 170.01 106.22 167.39 107.73 166.79 105.38 166.79 86.74 170.59 84.55" style="fill:#f5f5f5"></polygon><polygon points="170.59 84.55 170.59 103.19 170.01 106.22 170.01 84.89 170.59 84.55" style="fill:#e0e0e0"></polygon><polygon points="167.39 86.4 167.39 107.73 166.79 105.38 166.79 86.74 167.39 86.4" style="fill:#e0e0e0"></polygon><polygon points="178.19 83.09 177.05 83.75 177.05 67.96 178.19 67.29 178.19 83.09" style="fill:#f0f0f0"></polygon><path d="M180.33,54a12.07,12.07,0,0,1-.29,2.61,34.87,34.87,0,0,0-.89,6.4V66.8l-3.07,1.78V64.73a19.89,19.89,0,0,0-.89-5.38,8.28,8.28,0,0,1-.29-2.26,11.65,11.65,0,0,1,.31-2.62L180,51.7A7.11,7.11,0,0,1,180.33,54Z" style="fill:#e0e0e0"></path><g style="opacity:0.1"><path d="M180.33,54a12.07,12.07,0,0,1-.29,2.61,34.87,34.87,0,0,0-.89,6.4V66.8l-3.07,1.78V64.73a19.89,19.89,0,0,0-.89-5.38,8.28,8.28,0,0,1-.29-2.26,11.65,11.65,0,0,1,.31-2.62L180,51.7A7.11,7.11,0,0,1,180.33,54Z"></path></g><polygon points="179.16 68.99 176.08 70.77 176.08 68.58 179.16 66.81 179.16 68.99" style="fill:#ebebeb"></polygon><polygon points="179.22 79.56 179.22 98.2 178.63 101.24 176.6 102.41 176.01 100.06 176.01 81.42 179.22 79.56" style="fill:#f5f5f5"></polygon><polygon points="179.22 79.56 179.22 98.2 178.63 101.24 178.63 79.91 179.22 79.56" style="fill:#e0e0e0"></polygon><polygon points="176.6 81.08 176.6 102.41 176.01 100.06 176.01 81.42 176.6 81.08" style="fill:#e0e0e0"></polygon><polygon points="187.12 77.94 185.97 78.6 185.97 62.8 187.12 62.14 187.12 77.94" style="fill:#f0f0f0"></polygon><path d="M189.25,48.8a12,12,0,0,1-.29,2.6,35.83,35.83,0,0,0-.88,6.4v3.85L185,63.43V59.58a20.36,20.36,0,0,0-.88-5.38,8,8,0,0,1-.29-2.27,11,11,0,0,1,.31-2.61L189,46.53A8,8,0,0,1,189.25,48.8Z" style="fill:#e0e0e0"></path><g style="opacity:0.1"><path d="M189.25,48.8a12,12,0,0,1-.29,2.6,35.83,35.83,0,0,0-.88,6.4v3.85L185,63.43V59.58a20.36,20.36,0,0,0-.88-5.38,8,8,0,0,1-.29-2.27,11,11,0,0,1,.31-2.61L189,46.53A8,8,0,0,1,189.25,48.8Z"></path></g><polygon points="188.09 63.84 185.01 65.62 185.01 63.43 188.09 61.65 188.09 63.84" style="fill:#ebebeb"></polygon><polygon points="187.86 74.58 187.86 93.22 187.26 96.26 185.84 97.08 185.24 94.73 185.24 76.09 187.86 74.58" style="fill:#f5f5f5"></polygon><polygon points="187.86 74.58 187.86 93.22 187.26 96.26 187.26 74.92 187.86 74.58" style="fill:#e0e0e0"></polygon><polygon points="185.84 75.75 185.84 97.08 185.24 94.73 185.24 76.09 185.84 75.75" style="fill:#e0e0e0"></polygon><polygon points="57.17 243.87 50.8 247.54 50.8 189.51 57.17 185.83 57.17 243.87" style="fill:#f0f0f0"></polygon><polygon points="52.2 246.74 50.8 247.54 50.8 189.51 52.2 188.7 52.2 246.74" style="fill:#fafafa"></polygon><polygon points="57.17 243.87 55.78 244.67 55.78 186.63 57.17 185.83 57.17 243.87" style="fill:#e0e0e0"></polygon><ellipse cx="53.99" cy="191.39" rx="1.76" ry="0.94" transform="translate(-144.82 186.84) rotate(-72.94)" style="fill:#e0e0e0"></ellipse><rect x="50.57" y="243.22" width="3.53" height="0.57" transform="translate(-114.61 58.68) rotate(-29.96)" style="fill:#e0e0e0"></rect><rect x="50.57" y="239.91" width="3.53" height="0.57" transform="translate(-112.97 58.25) rotate(-29.97)" style="fill:#e0e0e0"></rect><rect x="50.57" y="236.6" width="3.53" height="0.57" transform="translate(-111.32 57.81) rotate(-29.97)" style="fill:#e0e0e0"></rect><rect x="50.57" y="233.29" width="3.53" height="0.57" transform="translate(-109.67 57.36) rotate(-29.97)" style="fill:#e0e0e0"></rect><rect x="50.57" y="229.99" width="3.53" height="0.57" transform="translate(-108.02 56.92) rotate(-29.97)" style="fill:#e0e0e0"></rect><rect x="50.57" y="226.68" width="3.53" height="0.57" transform="translate(-106.37 56.48) rotate(-29.97)" style="fill:#e0e0e0"></rect><rect x="50.57" y="223.37" width="3.53" height="0.57" transform="translate(-104.72 56.04) rotate(-29.97)" style="fill:#e0e0e0"></rect><rect x="50.57" y="220.07" width="3.53" height="0.57" transform="translate(-103.06 55.6) rotate(-29.97)" style="fill:#e0e0e0"></rect><rect x="50.57" y="216.76" width="3.53" height="0.57" transform="translate(-101.4 55.14) rotate(-29.96)" style="fill:#e0e0e0"></rect><rect x="50.57" y="213.45" width="3.53" height="0.57" transform="translate(-99.76 54.71) rotate(-29.97)" style="fill:#e0e0e0"></rect><rect x="50.57" y="210.15" width="3.53" height="0.57" transform="translate(-98.11 54.27) rotate(-29.97)" style="fill:#e0e0e0"></rect><rect x="50.57" y="206.84" width="3.53" height="0.57" transform="translate(-96.46 53.83) rotate(-29.97)" style="fill:#e0e0e0"></rect><rect x="50.57" y="203.53" width="3.53" height="0.57" transform="translate(-94.81 53.39) rotate(-29.97)" style="fill:#e0e0e0"></rect><rect x="50.57" y="200.23" width="3.53" height="0.57" transform="translate(-93.15 52.94) rotate(-29.97)" style="fill:#e0e0e0"></rect><rect x="50.57" y="196.92" width="3.53" height="0.57" transform="translate(-91.5 52.5) rotate(-29.97)" style="fill:#e0e0e0"></rect><polygon points="79.32 181.96 79.32 213.82 85.68 210.14 85.68 178.28 79.32 181.96" style="fill:#f0f0f0"></polygon><polygon points="79.32 181.96 79.32 213.82 80.71 213.01 80.71 181.16 79.32 181.96" style="fill:#fafafa"></polygon><polygon points="84.29 179.09 84.29 210.94 85.69 210.14 85.69 178.28 84.29 179.09" style="fill:#e0e0e0"></polygon><rect x="79.08" y="209.49" width="3.53" height="0.57" transform="translate(-93.99 68.45) rotate(-29.97)" style="fill:#e0e0e0"></rect><rect x="79.08" y="206.18" width="3.53" height="0.57" transform="translate(-92.34 68.01) rotate(-29.97)" style="fill:#e0e0e0"></rect><rect x="79.08" y="202.87" width="3.53" height="0.57" transform="translate(-90.69 67.56) rotate(-29.97)" style="fill:#e0e0e0"></rect><rect x="79.08" y="199.57" width="3.53" height="0.57" transform="translate(-89.03 67.12) rotate(-29.97)" style="fill:#e0e0e0"></rect><rect x="79.08" y="196.26" width="3.53" height="0.57" transform="translate(-87.38 66.68) rotate(-29.97)" style="fill:#e0e0e0"></rect><rect x="79.08" y="192.95" width="3.53" height="0.57" transform="translate(-85.73 66.24) rotate(-29.97)" style="fill:#e0e0e0"></rect><rect x="79.08" y="189.65" width="3.53" height="0.57" transform="translate(-84.08 65.8) rotate(-29.97)" style="fill:#e0e0e0"></rect><rect x="79.08" y="186.34" width="3.53" height="0.57" transform="translate(-82.43 65.35) rotate(-29.97)" style="fill:#e0e0e0"></rect><rect x="79.08" y="183.03" width="3.53" height="0.57" transform="translate(-80.77 64.91) rotate(-29.97)" style="fill:#e0e0e0"></rect><polygon points="65.46 181.05 84.86 169.85 84.86 178.76 65.46 189.96 65.46 181.05" style="fill:#e0e0e0"></polygon><polygon points="65.46 181.05 84.86 169.85 84.86 178.76 65.46 189.96 65.46 181.05" style="opacity:0.1"></polygon><path d="M83.13,175.3a2.87,2.87,0,0,1-1.08,2.29c-.6.35-1.09-.12-1.09-1a2.86,2.86,0,0,1,1.09-2.29C82.64,173.92,83.13,174.38,83.13,175.3Z" style="fill:#f0f0f0"></path><path d="M62.24,208.78V241l20.9-12.07ZM66,220.7,74,228.33,66,232.91Z" style="fill:#f0f0f0"></path><polygon points="62.24 240.96 63.21 238.91 82.17 227.96 83.14 228.89 62.24 240.96" style="fill:#e0e0e0"></polygon><polygon points="63.21 238.91 63.21 209.71 62.24 208.78 62.24 240.96 63.21 238.91" style="fill:#fafafa"></polygon><polygon points="179.05 125.39 179.05 121.93 161.62 132 161.62 135.46 179.05 125.39" style="fill:#f0f0f0"></polygon><path d="M161.8,144.32v-1.76a7.93,7.93,0,0,1,.49-2.3l.86-2.27a7.93,7.93,0,0,0,.49-2.3v-7c0-.56-.21-.92-.46-.85a2.18,2.18,0,0,1-2.63-.82c-1.09-2.08-1.09-7.35,2.39-10.77,0,0-3.17.84-4.62,6.44a40.62,40.62,0,0,0-1.12,11.48c0,.57,0,1.47,0,2v5.11a3.16,3.16,0,0,0,.29,1.43l.35.52a3.18,3.18,0,0,1,.28,1.43v3.15c0,.56.45,1.13.75.81l2.4-2.72A2.75,2.75,0,0,0,161.8,144.32Z" style="fill:#e0e0e0"></path><path d="M162.9,146.25v-1.48c0-.51-.31-.74-.69-.52l-4.32,2.49a1.66,1.66,0,0,0-.7,1.33v1.48c0,.51.31.75.7.53l4.32-2.5A1.66,1.66,0,0,0,162.9,146.25Z" style="fill:#e0e0e0"></path><polygon points="161.8 143.16 161.8 144.48 158.12 146.61 158.12 145.28 161.8 143.16" style="opacity:0.1"></polygon><path d="M189.35,116.48V119a2.82,2.82,0,0,1-1.18,2.26l-10.66,6.16v-5.63l10.66-6.16C188.83,115.21,189.35,115.61,189.35,116.48Z" style="fill:#e0e0e0"></path></g></g></g><g id="freepik--wooden-planks--inject-64"><g id="freepik--wood-planks--inject-64"><polygon points="32.8 373.88 180.94 287.28 177.69 245 29.54 331.61 32.8 373.88" style="fill:#8CAC89"></polygon><polygon points="32.8 373.88 180.94 287.28 177.69 245 29.54 331.61 32.8 373.88" style="fill:#fff;opacity:0.4"></polygon><path d="M179.24,265.16c-7.2,4.2-14.57,8.42-17.87,9.84-4.88,2.1-10.08,2.63-19.41,8.09,0,0,9.54-6.83,15.2-8.47,3.57-1,13.72-6.73,21.92-11.5Z" style="fill:#fff;opacity:0.05"></path><path d="M29.93,336.64c8.23-4.81,42.81-25.29,46.78-27.84,11.54-7.43,21.47-14.06,37-23.19,0,0-7.24,3.65-22.7,13.25-7.25,4.51-13.9,8.77-17.38,11s-43.75,25.78-43.75,25.78Z" style="fill:#fff;opacity:0.05"></path><path d="M179.06,262.78l-3.53,2.06c-12.1,7.08-20.23,11.63-25.58,13.69s-15.49,7.87-20.06,10.63a180,180,0,0,1,15.4-9.43c10-5.62,12-5.48,26.26-13.8L179,261.6Z" style="opacity:0.1"></path><path d="M30.12,339.09l42.11-24.63c4.58-2.67,15.18-11.32,21.1-14.77A89.55,89.55,0,0,0,83,306.05C77,310.21,35.66,334.69,30,338Z" style="opacity:0.1"></path><path d="M178.29,252.8c-8.61,5-27.67,16.14-34.83,20.33-9.16,5.35-24.41,13.17-37.18,20.92-11.9,7.19-20.78,13.16-22,14,1.37-1,12.59-9.44,22.07-15,10.12-5.91,28.57-16.18,39.68-22.65,7.42-4.33,22.15-12.95,32.17-18.77Z" style="fill:#fff;opacity:0.05"></path><path d="M30.68,346.46,74,321.15c6.72-3.93,17-9.19,28.39-15.84s20.68-12.88,27.79-17.81,15-9.6,15-9.6-7.55,3.87-18.78,11.25A397.88,397.88,0,0,1,89.56,311c-12.07,6.12-59,34.14-59,34.14Z" style="fill:#fff;opacity:0.05"></path><path d="M179.27,265.61c-15,8.85-44.1,26.05-53.57,31.59C113,304.61,96.31,314,96.31,314S123.14,297.6,150,281.89l29.2-17Z" style="fill:#fff;opacity:0.05"></path><path d="M31,350.33s58.73-34.33,75.28-44,34.92-21.47,34.92-21.47-13.8,7.39-34.14,19.25L30.85,348.64l.13,1.69Z" style="opacity:0.1"></path><path d="M178.06,249.82c-11.3,6.6-29.06,17-35.52,20.73C133.2,276,109,289.71,103.19,292.92c0,0,23.77-14.64,55.46-33.14L178,248.52Z" style="opacity:0.1"></path><path d="M178.42,254.51l-28.37,16.55c-8.9,5.2-29.8,16.24-38.93,21.58s-69.39,41.71-80.84,48.41l.11,1.46c7.11-4.16,65.06-35.58,78.86-43.65s27.76-18.65,36.36-23.68L178.53,256Zm-49.61,30.06c.06.72-11.65,8.4-19.75,13.13-7.13,4.17-21.35,11.68-21.41,11s13.77-9.09,21.25-13.46S128.76,283.85,128.81,284.57Z" style="opacity:0.1"></path><path d="M178.85,260.06c-7.21,4.21-14.59,8.45-17.87,10-4.87,2.3-10,3.48-19.33,8.94,0,0,9.55-6.48,15.18-8.56,3.56-1.33,13.7-7.07,21.9-11.85Z" style="fill:#fff;opacity:0.05"></path><path d="M179.69,271.05C166,279,149.6,288.38,146.74,289.89c-12.05,6.35-22.44,11.59-38.5,20.92,0,0,7.41-4.91,23.48-13.76,7.56-4.16,14.49-7.8,18.14-9.79,2.23-1.21,17.29-10,29.76-17.21Z" style="fill:#fff;opacity:0.05"></path><path d="M32.57,370.43l14-8.17c12.52-7.32,20.91-12.43,26.26-16.62s15.87-10.46,20.61-13.14c0,0-5.61,2.6-16,8.91s-12.18,8.66-27,17.31l-18,10.52Z" style="opacity:0.1"></path><path d="M179.89,273.55c-11.91,7-24.86,14.52-28,16.38-4.71,2.76-16,6.91-22.09,10.5a90.09,90.09,0,0,1,10.66-5.95c4.34-2.07,24.41-13.51,39.38-22.13Z" style="opacity:0.1"></path><path d="M36.48,357.71l41.69-24.39c9.46-5.54,25.09-15.76,38.35-23.25s23.08-12.36,23.08-12.36a232.73,232.73,0,0,0-23.3,11.52c-10.47,6.13-29.5,17.77-41,24.5L31.68,359.26l0,.46Z" style="fill:#fff;opacity:0.05"></path><path d="M180.45,280.93,151.19,298c-7,4.1-17.49,11-29.29,17.9s-21.51,11.8-29,15.37-15.63,8.33-15.63,8.33,7.73-5.1,19.5-11.14a431.36,431.36,0,0,0,38.13-22c8.08-5.34,30.08-18.17,45.44-27Z" style="fill:#fff;opacity:0.05"></path><path d="M32.8,373.2s52.64-30.45,65.79-38.15S129,316.93,129,316.93s-27.87,15.58-55.69,31.86L32.74,372.5Z" style="fill:#fff;opacity:0.05"></path><path d="M180.75,284.8l-62.38,36.46c-17.13,10-36.29,20.18-36.29,20.18s14.18-9,35.22-21.31l63.32-37Z" style="opacity:0.1"></path><path d="M31.54,357.49l47.1-27.56c9.66-5.65,34.67-20.73,40.63-24.41,0,0-24.72,13.72-57.51,32.92L31.44,356.18Z" style="opacity:0.1"></path><path d="M180,275.39c-22.7,12.95-60.92,34.57-68.3,38.89-9.45,5.55-30.91,19.28-40.13,24.67s-39.69,23.23-39.69,23.23L32,363.6s35.48-20.74,44.38-26,23.71-11.41,38-19.77c10.69-6.28,45.2-27.82,65.75-40.52Zm-43.68,26.86c.05.69-14.56,10-21.94,14.35-8.37,4.9-20.62,11.22-20.68,10.5s12.76-8.41,20.49-12.93S136.3,301.58,136.35,302.25Z" style="opacity:0.1"></path><path d="M32.37,367.7c5.77-3.38,23.75-13.77,28.71-17.21s10-8.22,19.68-13.87c0,0-10,5-15.68,9.47s-32.87,20.15-32.87,20.15Z" style="fill:#fff;opacity:0.05"></path><polygon points="24.28 369.09 32.8 373.88 29.54 331.61 21.02 326.81 24.28 369.09" style="fill:#8CAC89"></polygon><polygon points="24.28 369.09 32.8 373.88 29.54 331.61 21.02 326.81 24.28 369.09" style="fill:#fff;opacity:0.6000000000000001"></polygon><polygon points="30.39 342.51 23.17 337.97 30.28 341.05 30.39 342.51" style="opacity:0.1"></polygon><polygon points="30.12 339.09 26.52 336.53 30.03 337.98 30.12 339.09" style="opacity:0.1"></polygon><polygon points="30.98 350.33 23.94 345.83 30.85 348.64 30.98 350.33" style="opacity:0.1"></polygon><polygon points="32.04 363.6 24.86 358.96 31.91 362.18 32.04 363.6" style="opacity:0.1"></polygon><polyline points="32.8 373.2 27.52 370.03 32.74 372.5" style="fill:#fff;opacity:0.05"></polyline><polygon points="32.37 367.69 24.42 362.82 32.21 366.24 32.37 367.69" style="fill:#fff;opacity:0.05"></polygon><polygon points="29.93 336.64 21.95 331.81 29.85 335.61 29.93 336.64" style="fill:#fff;opacity:0.05"></polygon><polygon points="177.69 245 169.17 240.21 21.02 326.81 29.54 331.61 177.69 245" style="fill:#8CAC89"></polygon><polygon points="177.69 245 169.17 240.21 21.02 326.81 29.54 331.61 177.69 245" style="fill:#fff;opacity:0.30000000000000004"></polygon><polygon points="177.69 245 169.17 240.21 21.02 326.81 29.54 331.61 177.69 245" style="opacity:0.1"></polygon><path d="M175.5,243.77l-1.45-.82c-5.09,2.52-8.52,4-15.62,7.93-11.37,6.4-17.08,10.39-17.74,10.86,5.34-3.21,17.43-10.12,24.67-13.15C168.53,247.27,171.67,245.79,175.5,243.77Z" style="opacity:0.1"></path><path d="M156.48,249.83c-.56.29-9.8,5.12-21.94,13.13A474.49,474.49,0,0,1,91.3,288.59C77.85,295.5,33,322.15,23.15,328l1.45.82c11.82-6.92,41.75-24.44,49.25-28.81,8-4.64,20.79-11.29,34.28-19.16s23.74-14.79,31.42-20.18C147,255.46,155.93,250.15,156.48,249.83Z" style="fill:#fff;opacity:0.05"></path><path d="M156.08,255.43c-.65.35-17.4,9.39-41,23.15L26.9,330.12l1.76,1c11.38-6.64,69.46-40.6,87.1-50.9C135,269,155.45,255.84,156.08,255.43Z" style="opacity:0.1"></path><path d="M144.29,254.76l-15.63,9.13c-4.5,3-10.78,7-16,10.06-4.74,2.77-12.36,6.93-18.27,10h0L41.5,314.84c24.74-13.62,61.36-33.71,72.51-40.23C125.35,268,135.65,260.65,144.29,254.76Z" style="opacity:0.1"></path><path d="M172,241.79l-1.43-.8c-.28.13-.55.24-.82.35-7.27,2.94-16.91,9.43-18.09,10.23A163.74,163.74,0,0,1,172,241.79Z" style="fill:#fff;opacity:0.05"></path></g><g id="freepik--wood-planks--inject-64"><polygon points="391.67 161.35 355.85 318.91 392.57 340.11 428.39 182.56 391.67 161.35" style="fill:#8CAC89"></polygon><polygon points="391.67 161.35 355.85 318.91 392.57 340.11 428.39 182.56 391.67 161.35" style="fill:#fff;opacity:0.4"></polygon><path d="M375.06,330c1.75-7.66,3.6-15.45,4.81-18.67,1.8-4.78,5.09-8.9,7.35-18.83,0,0-1.29,10.85-4,15.93-1.72,3.21-4.36,13.88-6.37,22.59Z" style="fill:#fff;opacity:0.05"></path><path d="M424,180c-2,8.75-10.14,45.68-10.91,50-2.24,12.65-4,23.68-7.66,40.2,0,0,2.22-7.37,5.5-24.13,1.54-7.87,2.84-15.15,3.55-18.94s10.41-46.64,10.41-46.64Z" style="fill:#fff;opacity:0.05"></path><path d="M377.13,331.2l.85-3.76C380.9,314.58,383,306,385.19,301s4.71-15.82,5.75-20.72a151.06,151.06,0,0,1-3.37,16.61c-2.64,10.54-4.14,11.89-7.62,27.07l-1.79,7.88Z" style="opacity:0.1"></path><path d="M421.89,178.81c-2.09,9.19-9.07,39.92-10.18,44.79s-1.68,17.51-3.11,23.79a75.34,75.34,0,0,0,2.27-11.19c.88-6.72,10.62-50.86,12-56.84Z" style="opacity:0.1"></path><path d="M385.8,336.21c2.08-9.15,6.71-29.41,8.45-37,2.21-9.74,6.79-25.35,9.64-39.09,2.69-12.78,4.2-22.67,4.43-24a218.89,218.89,0,0,1-3.65,24.62c-2.44,10.76-7.33,30.1-10,41.9-1.79,7.89-5.35,23.56-7.8,34.19Z" style="fill:#fff;opacity:0.05"></path><path d="M415.49,175.11c-2.06,9-8.84,38.9-10.47,46s-4.72,17.65-7.48,29.77-4.36,22.43-5.44,30.42-3,16.4-3,16.4a184.78,184.78,0,0,0,4.33-20.12,331.83,331.83,0,0,1,8.64-39.31c3.68-12.31,14.54-62.53,14.54-62.53Z" style="fill:#fff;opacity:0.05"></path><path d="M374.67,329.78c3.54-16,10.44-47.06,12.73-57.13,3.1-13.51,7.41-31,7.41-31s-5.9,28.93-12.4,57.53c-3.47,15.17-5.53,24.24-7.08,31Z" style="fill:#fff;opacity:0.05"></path><path d="M412.13,173.17s-14.2,62.45-18.21,80.05-7.59,37.72-7.59,37.72,3.89-14.29,8.83-35.91c1.46-6.4,18.43-81,18.43-81l-1.46-.84Z" style="opacity:0.1"></path><path d="M388.39,337.7c2.73-12,7-30.9,8.61-37.76,2.26-9.93,8.49-35.44,10-41.49,0,0-5.14,25.69-12.82,59.38l-4.7,20.52Z" style="opacity:0.1"></path><path d="M384.32,335.35c2.27-10,5.46-23.93,6.88-30.16,2.15-9.46,8.16-31,10.37-40.74s15.84-74.44,18.61-86.62l-1.27-.73c-1.72,7.56-17.72,67.82-21.06,82.49s-4.74,30.88-6.82,40c-1.43,6.27-5.39,23.59-8,35ZM395.44,282c-.62-.36,1.53-13.29,3.49-21.9,1.72-7.58,5.82-22.26,6.39-21.93s-2.48,15.23-4.29,23.18S396.06,282.36,395.44,282Z" style="opacity:0.1"></path><path d="M379.49,332.56c1.74-7.66,3.59-15.47,4.68-18.75,1.62-4.87,4.34-9.31,6.6-19.24,0,0-1.58,10.65-3.93,16-1.47,3.36-4.08,14-6.07,22.76Z" style="fill:#fff;opacity:0.05"></path><path d="M370,327.05c3.37-14.49,7.48-31.86,8.31-34.81,3.47-12.43,6.67-23,10.59-40.05,0,0-1.32,8.2-5.65,25-2,7.9-4,15-5,18.84-.62,2.32-4.3,18.3-7.34,31.54Z" style="fill:#fff;opacity:0.05"></path><path d="M394.63,163.12,391.26,178c-3,13.31-4.88,22.35-5.32,28.63s-2.87,17.54-4.09,22.53a153.66,153.66,0,0,0,4.22-16.76c2.31-11.18,1.69-13.82,5.26-29.53s4.34-19.14,4.34-19.14Z" style="opacity:0.1"></path><path d="M367.77,325.8c2.88-12.67,6-26.43,6.79-29.82,1.14-5,5.83-15.62,7.31-22.15A76.07,76.07,0,0,1,379.06,285c-1.42,4.35-6.52,25.53-10.25,41.38Z" style="opacity:0.1"></path><path d="M402.18,173.1l-10.06,44.35c-2.28,10.06-5.18,27.29-8.61,41.25s-6.5,23.92-6.5,23.92A199.93,199.93,0,0,0,384.36,259c2.53-11.15,6.7-31.67,9.47-43.9s10.53-46.41,10.53-46.41l-.41-.23Z" style="fill:#fff;opacity:0.05"></path><path d="M361.36,322.1c2.85-12.48,6-26.18,7.1-31.11,1.66-7.43,3.62-19,6.45-31.58s5.83-22.45,8.3-30,4.43-16.17,4.43-16.17a192.61,192.61,0,0,1-4.92,20.59,358.52,358.52,0,0,0-9.48,40.37c-1.45,8.94-6.8,32.32-10.6,48.59Z" style="fill:#fff;opacity:0.05"></path><path d="M392.22,161.73s-13,55.81-16.16,69.81S369,264,369,264s7.32-29.24,14-58.83,9.78-43.11,9.78-43.11Z" style="fill:#fff;opacity:0.05"></path><path d="M358,320.16l15.08-66.34c4.12-18.24,9.62-38,9.62-38s-2.87,15.48-7.93,37.87L359.47,321Z" style="opacity:0.1"></path><path d="M405.9,169.58s-9,39.83-11.37,50.11-8,37.13-9.29,43.57c0,0,6.57-25.88,14.48-60.77L407,170.24Z" style="opacity:0.1"></path><path d="M366.17,324.87c5.75-24,15.58-64.2,17.36-72.05,2.26-10.07,6.49-33.55,8.72-43.36s9.57-42.23,9.57-42.23l-1.25-.69s-8.58,37.74-10.7,47.22-7.73,23.84-11.19,39.05c-2.56,11.39-9.78,48.85-14.2,71.09Zm9.49-47.18c-.6-.35,2.28-16.34,4.06-24.19,2-8.91,5.67-21.47,6.29-21.11s-2.31,14.11-4.18,22.32S376.23,278,375.66,277.69Z" style="opacity:0.1"></path><path d="M397,164.5c-1.4,6.13-5.85,25.19-6.6,30.77s-.5,12-2.84,22.24c0,0,3.17-10.17,3.55-16.84s7.19-35.48,7.19-35.48Z" style="fill:#fff;opacity:0.05"></path><polygon points="401.68 157.75 391.67 161.35 428.39 182.56 438.4 178.96 401.68 157.75" style="fill:#8CAC89"></polygon><polygon points="401.68 157.75 391.67 161.35 428.39 182.56 438.4 178.96 401.68 157.75" style="fill:#fff;opacity:0.6000000000000001"></polygon><polygon points="418.91 177.1 427.78 174.31 420.18 177.83 418.91 177.1" style="opacity:0.1"></polygon><polygon points="421.89 178.81 426.54 177.58 422.85 179.36 421.89 178.81" style="opacity:0.1"></polygon><polygon points="412.13 173.17 420.84 170.49 413.59 174.01 412.13 173.17" style="opacity:0.1"></polygon><polygon points="400.57 166.54 409.5 163.84 401.82 167.24 400.57 166.54" style="opacity:0.1"></polygon><polyline points="392.22 161.74 398.59 159.61 392.83 162.09" style="fill:#fff;opacity:0.05"></polyline><polygon points="397 164.5 406.67 161.35 398.31 165.19 397 164.5" style="fill:#fff;opacity:0.05"></polygon><polygon points="424.02 180.03 433.67 176.85 424.91 180.55 424.02 180.03" style="fill:#fff;opacity:0.05"></polygon><polygon points="392.57 340.11 402.58 336.51 438.4 178.96 428.39 182.56 392.57 340.11" style="fill:#8CAC89"></polygon><polygon points="392.57 340.11 402.58 336.51 438.4 178.96 428.39 182.56 392.57 340.11" style="fill:#fff;opacity:0.30000000000000004"></polygon><polygon points="392.57 340.11 402.58 336.51 438.4 178.96 428.39 182.56 392.57 340.11" style="opacity:0.1"></polygon><path d="M395.14,339.19l1.71-.62c1.6-5.16,2.89-8.48,4.75-15.93a172.69,172.69,0,0,0,3.89-19.15c-1.22,5.74-4.27,18.51-7,25.53A106.58,106.58,0,0,0,395.14,339.19Z" style="opacity:0.1"></path><path d="M403.86,321.79a226.58,226.58,0,0,0,5.05-23.51,398.11,398.11,0,0,1,10.17-46.18c4-13.78,14.52-61.71,16.82-72.25l-1.71.62c-2.85,12.57-10.06,44.42-11.89,52.38-1.93,8.46-5.73,21.63-9,36s-5,25.76-6.13,34.43C406.08,311.64,404,321.2,403.86,321.79Z" style="fill:#fff;opacity:0.05"></path><path d="M399.59,318.36c.18-.67,4.84-18.07,10.58-43.16,1.59-6.88,18.3-80.42,21.32-93.76l-2.07.74c-2.76,12.1-16.8,73.87-21.07,92.63C403.68,295.31,399.71,317.68,399.59,318.36Z" style="opacity:0.1"></path><path d="M408.59,310l3.78-16.61c.76-5,2-11.86,3.31-17.42,1.14-5,3.22-13,5-19v0l12.78-56.23c-6.66,25.84-16.59,64-19.28,75.92C411.39,288.68,410,300.39,408.59,310Z" style="opacity:0.1"></path><path d="M399.27,337.7l1.67-.6.31-.8c2.83-7,4.46-17.73,4.65-19A140.38,140.38,0,0,1,399.27,337.7Z" style="fill:#fff;opacity:0.05"></path></g><g id="freepik--wood-planks--inject-64"><polygon points="415.13 352.61 467.02 114.18 449.85 103.97 397.95 342.41 415.13 352.61" style="fill:#8CAC89"></polygon><polygon points="415.13 352.61 467.02 114.18 449.85 103.97 397.95 342.41 415.13 352.61" style="fill:#fff;opacity:0.5"></polygon><polygon points="449.85 103.97 459.31 99.43 476.48 109.63 467.02 114.18 449.85 103.97" style="fill:#8CAC89"></polygon><polygon points="449.85 103.97 459.31 99.43 476.48 109.63 467.02 114.18 449.85 103.97" style="fill:#fff;opacity:0.6000000000000001"></polygon><polygon points="415.13 352.61 424.58 348.07 476.48 109.63 467.02 114.18 415.13 352.61" style="fill:#8CAC89"></polygon><polygon points="415.13 352.61 424.58 348.07 476.48 109.63 467.02 114.18 415.13 352.61" style="fill:#fff;opacity:0.4"></polygon><polygon points="415.13 352.61 424.58 348.07 476.48 109.63 467.02 114.18 415.13 352.61" style="opacity:0.1"></polygon><path d="M399,343c1.81-8.31,3.72-16.76,4.93-20.29,1.79-5.23,5-9.87,7.32-20.64,0,0-1.46,11.68-4.13,17.31-1.69,3.55-4.41,15.14-6.5,24.59Z" style="fill:#fff;opacity:0.05"></path><path d="M463,111.78c-2.07,9.49-11.32,53-12.14,57.74-2.39,13.69-8.69,45.9-12.53,63.82,0,0,2.25-8,5.71-26.18,1.63-8.52,7.43-36.7,8.19-40.81s11.59-54.08,11.59-54.08Z" style="fill:#fff;opacity:0.05"></path><path d="M400.87,344.14l.89-4.07c3-14,5.23-23.23,7.37-28.83s10.16-42,11.24-47.3c0,0-6.2,31.27-8.92,42.75s-4.16,13-7.77,29.46l-1.86,8.56Z" style="opacity:0.1"></path><path d="M461,110.61c-2.18,10-10.18,46.82-11.34,52.1s-6.4,39.15-7.89,46c0,0,5.82-25.2,6.81-32.44s11.89-58.61,13.3-65.1Z" style="opacity:0.1"></path><path d="M408.88,348.9c2.16-9.93,7-31.91,8.77-40.18,2.3-10.56,16.46-71.25,19.45-86.14,2.81-13.85,8.88-44.84,9.12-46.28-.17,1.69-6,35.95-8.41,46.89-2.54,11.67-17.07,76.37-19.88,89.18-1.86,8.56-5.57,25.56-8.1,37.1Z" style="fill:#fff;opacity:0.05"></path><path d="M455.11,107.1c-2.13,9.79-9.94,45.71-11.63,53.46s-9.25,39.51-12.12,52.66-8.73,43.22-9.93,51.84-8.52,42.49-8.52,42.49,7.69-33.16,9.9-46.56,9.4-48.14,13.13-61.57,20.26-91.68,20.26-91.68Z" style="fill:#fff;opacity:0.05"></path><path d="M398.6,342.8c3.69-17.33,16.26-75.79,18.64-86.72,3.21-14.66,11.78-52.65,11.78-52.65s-15.7,75-22.46,106.05c-3.6,16.46-5.74,26.31-7.35,33.68Z" style="fill:#fff;opacity:0.05"></path><path d="M452,105.26s-19.93,91.56-24.1,110.66-17.49,84.54-17.49,84.54,13.49-59.24,18.62-82.69c1.52-6.94,24.32-111.71,24.32-111.71l-1.35-.8Z" style="opacity:0.1"></path><path d="M411.27,350.32c2.83-13,7.29-33.53,8.94-41,2.34-10.78,18.28-82.17,19.87-88.75,0,0-14.92,71.52-22.9,108.07l-4.87,22.27Z" style="opacity:0.1"></path><path d="M407.51,348.09c2.36-10.85,5.67-26,7.14-32.72,2.24-10.27,17.88-77.43,20.17-88s21.75-104.5,24.63-117.71l-1.18-.7c-1.78,8.2-23.35,97.55-26.82,113.47s-14.67,77-16.83,87c-1.48,6.81-5.59,25.61-8.29,38Zm17-82.57c-.57-.34,5.86-33.24,7.9-42.59,1.79-8.22,6-24.2,6.5-23.89s-2.68,16.45-4.56,25.08S425.13,265.86,424.55,265.52Z" style="opacity:0.1"></path><path d="M403.05,345.44c1.81-8.32,3.72-16.79,4.82-20.38,1.63-5.32,4.28-10.25,6.63-21,0,0-1.73,11.5-4.05,17.35-1.46,3.7-4.15,15.31-6.22,24.76Z" style="fill:#fff;opacity:0.05"></path><polygon points="458.27 108.99 466.64 105.39 459.44 109.69 458.27 108.99" style="opacity:0.1"></polygon><polygon points="461.03 110.61 465.41 108.98 461.91 111.14 461.03 110.61" style="opacity:0.1"></polygon><polygon points="452.01 105.26 460.23 101.79 453.36 106.06 452.01 105.26" style="opacity:0.1"></polygon><polygon points="462.99 111.78 472.11 107.71 463.81 112.27 462.99 111.78" style="fill:#fff;opacity:0.05"></polygon><path d="M417.56,351.45l1.61-.78c1.62-5.63,2.91-9.27,4.82-17.37,3.05-13,4-19.93,4.09-20.74-1.28,6.22-4.43,20.08-7.15,27.78C419.73,343.71,418.68,347.15,417.56,351.45Z" style="opacity:0.1"></path><path d="M426.13,332.23c.16-.62,8.3-35.72,10.66-50.22,2.44-15,10.1-52.14,14.72-69,4.1-15,20.22-90.79,22.61-102.22l-1.61.78c-3,13.64-11.22,51.69-13.12,60.33-2,9.18-10.29,43.84-13.68,59.39s-14.8,71.57-16.06,80.92C428.44,321.23,426.26,331.59,426.13,332.23Z" style="fill:#fff;opacity:0.05"></path><path d="M422.21,328.87c.18-.73,14.46-63.34,20.42-90.56,1.64-7.48,24.19-111.07,27.33-125.55l-2,.94L440.94,238C436.08,260.25,422.33,328.13,422.21,328.87Z" style="opacity:0.1"></path><path d="M430.83,319.35l9.31-42.77c.83-5.41,6.31-31.76,7.63-37.8,1.19-5.46,3.32-14.1,5.11-20.69v0l18.46-84.81c-6.85,28.1-22.21,93.44-25,106.31C443.46,252.63,432.37,308.93,430.83,319.35Z" style="opacity:0.1"></path><path d="M421.46,349.57l1.58-.76c.1-.31.2-.59.31-.87,2.81-7.69,4.58-19.27,4.79-20.69A179.2,179.2,0,0,1,421.46,349.57Z" style="fill:#fff;opacity:0.05"></path></g><g id="freepik--wood-planks--inject-64"><polygon points="456.61 377.3 462.91 169.79 445.19 158.93 438.9 366.44 456.61 377.3" style="fill:#8CAC89"></polygon><polygon points="456.61 377.3 462.91 169.79 445.19 158.93 438.9 366.44 456.61 377.3" style="fill:#fff;opacity:0.4"></polygon><polygon points="445.19 158.93 453.17 154.61 470.88 165.46 462.91 169.79 445.19 158.93" style="fill:#8CAC89"></polygon><polygon points="445.19 158.93 453.17 154.61 470.88 165.46 462.91 169.79 445.19 158.93" style="fill:#fff;opacity:0.5"></polygon><polygon points="456.61 377.3 464.59 372.97 470.88 165.46 462.91 169.79 456.61 377.3" style="fill:#8CAC89"></polygon><polygon points="456.61 377.3 464.59 372.97 470.88 165.46 462.91 169.79 456.61 377.3" style="fill:#fff;opacity:0.30000000000000004"></polygon><path d="M440,367.09c.22-8.38.52-16.89,1-20.44.74-5.25,2.88-9.86,3.16-20.72,0,0,.7,11.81-.79,17.44-.94,3.55-1.44,15.23-1.71,24.75Z" style="fill:#fff;opacity:0.05"></path><path d="M458.74,167.24c-.25,9.57-1.19,20.67-1.12,25.42.18,13.8,0,46.29-.42,64.36,0,0,.68-8.08.7-26.39,0-8.59.45-37,.43-41.15s1.26-21.72,1.26-21.72Z" style="fill:#fff;opacity:0.05"></path><path d="M441.91,368.29l.11-4.1c.37-14.07.77-23.42,1.78-29s2.06-42.29,2.13-47.65c0,0-.27,31.53-.78,43.09s-1.57,13.06-2,29.66l-.23,8.62Z" style="opacity:0.1"></path><path d="M456.72,166c-.27,10.05-1.23,14.39-1.37,19.71s.93,39.52.75,46.39c0,0,1-25.38.62-32.7s.74-26.3.92-32.84Z" style="opacity:0.1"></path><path d="M450.17,373.35c.26-10,.86-32.16,1.08-40.49.28-10.64,2.76-71.79,2.92-86.8.18-14,.38-45.21.35-46.67.14,1.72.71,36.29.43,47.31-.31,11.77-2.44,77-2.8,89.86-.22,8.63-.67,25.76-1,37.39Z" style="fill:#fff;opacity:0.05"></path><path d="M450.62,162.26c-.26,9.87-1.2,13.28-1.4,21.09s-1.65,39.8-2,53.05-.52,43.58-.11,52.29-.45,42.84-.45,42.84,1.31-33.41,1-46.93.26-48.55,1.37-62.06,2.7-59.59,2.7-59.59Z" style="fill:#fff;opacity:0.05"></path><path d="M439.58,366.86c.37-17.47,1.77-76.39,2.06-87.4.41-14.78,1.69-53.06,1.69-53.06s-1.4,75.64-2.22,106.9c-.45,16.59-.71,26.51-.91,33.94Z" style="fill:#fff;opacity:0.05"></path><path d="M447.42,160.3S445,219.79,444.49,239s-1.38,85.23-1.38,85.23,2.11-59.68,2.75-83.32c.19-7,3-79.8,3-79.8l-1.4-.85Z" style="opacity:0.1"></path><path d="M452.63,374.86c.35-13.14.89-33.79,1.11-41.29.28-10.86,2.54-82.8,2.85-89.42,0,0-1.29,72.09-2.27,108.93l-.61,22.44Z" style="opacity:0.1"></path><path d="M448.76,372.48c.28-10.93.7-26.16.88-33,.27-10.35,3-78,3.27-88.62s1.83-72.56,2.18-85.88l-1.21-.74c-.21,8.27-4.54,65.46-5,81.51s-.09,77.69-.35,87.69c-.18,6.86-.69,25.81-1,38.27Zm1.32-83.23c-.6-.37-.4-33.55-.15-43,.21-8.29,1.28-24.38,1.83-24s.4,16.6.17,25.29S450.67,289.61,450.08,289.25Z" style="opacity:0.1"></path><path d="M444.16,369.67c.22-8.38.51-16.92.9-20.53.58-5.35,2.16-10.27,2.45-21.13,0,0,.41,11.61-.71,17.47-.71,3.71-1.16,15.41-1.42,24.93Z" style="fill:#fff;opacity:0.05"></path><polygon points="453.88 164.27 461.01 160.87 455.09 165.01 453.88 164.27" style="opacity:0.1"></polygon><polygon points="456.72 166 460.5 164.47 457.64 166.56 456.72 166" style="opacity:0.1"></polygon><polygon points="447.42 160.3 454.44 157.03 448.82 161.16 447.42 160.3" style="opacity:0.1"></polygon><polygon points="458.74 167.24 466.48 163.38 459.59 167.76 458.74 167.24" style="fill:#fff;opacity:0.05"></polygon><path d="M458.66,376.19l1.36-.74c.51-5.66,1.07-9.32,1.43-17.48.54-13.08.2-20.09.15-20.91-.09,6.27-.59,20.23-1.76,28C459.32,368.41,459,371.86,458.66,376.19Z" style="opacity:0.1"></path><path d="M463.24,357c0-.62,1.43-36,1.07-50.62-.36-15.11.22-52.58,1.54-69.57,1.17-15.11,2.82-58.71,3-70.22l-1.36.73c-.36,13.75-1.34,19.31-1.58,28-.25,9.25-1.85,44.16-2.27,59.83s-1.16,72.15-.69,81.6C463.46,345.87,463.25,356.31,463.24,357Z" style="fill:#fff;opacity:0.05"></path><path d="M459,353.43c0-.74,2.3-63.81,3.05-91.25.21-7.54,2.95-79.14,3.32-93.74l-1.65.9c-.35,13.23-2.75,72-3.29,92.48C459.84,284.24,459,352.68,459,353.43Z" style="opacity:0.1"></path><path d="M465.34,344l1.13-43.11c-.18-5.46.27-32,.44-38.11.14-5.5.6-14.2,1.11-20.83v0l2.23-52.67c-1.42,28.29-4.2,61.32-4.54,74.29C465.34,276.73,464.94,333.51,465.34,344Z" style="opacity:0.1"></path><path d="M462,374.4l1.33-.72c0-.31.09-.6.13-.88,1.26-7.71.88-19.41.82-20.84A171.79,171.79,0,0,1,462,374.4Z" style="fill:#fff;opacity:0.05"></path></g></g><g id="freepik--Character--inject-64"><g id="freepik--character--inject-64"><g id="freepik--Bottom--inject-64"><path d="M205,351.38c.25-4.07,2.43-45.13,2.43-45.13l-19.93,14.07c3.48,23.47,4.24,30.55,4.39,34.46h0a3.23,3.23,0,0,0-.09,1c.11,4.65,5.68,7.08,10,10.12A82.3,82.3,0,0,0,213.61,373c3.16,1.45,9.52,1.49,10.27-.43-5.32-3.73-11.46-7.8-15.71-12.09C206.14,358.41,204.68,356.27,205,351.38Z" style="fill:#b16668"></path><path d="M233,378.61c.15-1.2.72,2.8-.71,4-1.66,1.41-6.57,3.74-13.12,3s-10.12-2.58-12.78-4.62-6.38-4.93-9.34-5.51a16.61,16.61,0,0,1-6.42-2.64c-.89-.8-1.08-4.21-1.08-4.21Z" style="fill:#263238"></path><path d="M191.81,353.65a1,1,0,0,0-1,.85c-.18,1-.34,3.87-.74,5.5a34.87,34.87,0,0,0-.36,9.91c.39,1.83,4.89,3,7.77,4a36.8,36.8,0,0,1,9.38,5.44,28,28,0,0,0,13.88,4.68c6.51,0,10.69-1.74,12-4,1.55-2.77.15-5.53-7.39-8.72-1.43-.6-6.45-3.33-8.16-4.31-4.64-2.68-9.25-6.43-11.45-11.25a2.65,2.65,0,0,0-1.1-1.47,2.49,2.49,0,0,0-1.46-.11,12.94,12.94,0,0,0-3.57,1.08c-1,.47-2.41,1-2.36,2.24a3.82,3.82,0,0,0,.3,1.24c.09.25.17.58-.06.73s-.5,0-.7-.18a20.09,20.09,0,0,1-2.06-2.26,6.76,6.76,0,0,0-1.2-1.13c-.41-.3-.93-.44-1.3-.77S191.84,354.22,191.81,353.65Z" style="fill:#8CAC89"></path><path d="M191.81,353.65a1,1,0,0,0-1,.85c-.18,1-.34,3.87-.74,5.5a34.87,34.87,0,0,0-.36,9.91c.39,1.83,4.89,3,7.77,4a36.8,36.8,0,0,1,9.38,5.44,28,28,0,0,0,13.88,4.68c6.51,0,10.69-1.74,12-4,1.55-2.77.15-5.53-7.39-8.72-1.43-.6-6.45-3.33-8.16-4.31-4.64-2.68-9.25-6.43-11.45-11.25a2.65,2.65,0,0,0-1.1-1.47,2.49,2.49,0,0,0-1.46-.11,12.94,12.94,0,0,0-3.57,1.08c-1,.47-2.41,1-2.36,2.24a3.82,3.82,0,0,0,.3,1.24c.09.25.17.58-.06.73s-.5,0-.7-.18a20.09,20.09,0,0,1-2.06-2.26,6.76,6.76,0,0,0-1.2-1.13c-.41-.3-.93-.44-1.3-.77S191.84,354.22,191.81,353.65Z" style="opacity:0.4"></path><path d="M212.42,372.19a.52.52,0,0,1-.29-.09.44.44,0,0,1-.08-.62,11.34,11.34,0,0,1,8.46-3.31.43.43,0,0,1,.41.47.45.45,0,0,1-.5.4,10.46,10.46,0,0,0-7.64,3A.46.46,0,0,1,212.42,372.19Z" style="fill:#f0f0f0"></path><path d="M208.33,370a.53.53,0,0,1-.3-.09.43.43,0,0,1-.07-.62,11.3,11.3,0,0,1,8.45-3.31.44.44,0,1,1-.08.87,10.44,10.44,0,0,0-7.65,3A.48.48,0,0,1,208.33,370Z" style="fill:#f0f0f0"></path><path d="M204.52,367.49a.5.5,0,0,1-.29-.09.43.43,0,0,1-.08-.62,11.33,11.33,0,0,1,8.45-3.31.44.44,0,0,1,.42.47.45.45,0,0,1-.5.4,10.52,10.52,0,0,0-7.65,3A.46.46,0,0,1,204.52,367.49Z" style="fill:#f0f0f0"></path><path d="M200.79,365a.52.52,0,0,1-.29-.09.43.43,0,0,1-.08-.62c1.76-2.19,5.81-3.67,9.23-3.36a.44.44,0,0,1,.42.47.46.46,0,0,1-.5.4c-3.08-.28-6.86,1.08-8.42,3A.46.46,0,0,1,200.79,365Z" style="fill:#f0f0f0"></path><path d="M172.1,318.34l-20.8-4.49c-.55,12.87-.22,30.29-.66,42.37-.08,2.28-1.26,17.65-.61,22.37,1,7.09,10.5,6.63,11.29,2.46s1.47-22,1.63-23.87c.44-7.75,4.85-20.76,8-34.54C171.06,322,172,319,172.1,318.34Z" style="fill:#b16668"></path><path d="M164.68,384.15c-.09,4.14-.69,6.9-2.24,9.38s-4.64,3.36-7.84,2.77-7.36-2.33-8.43-5.86-1-6-.46-9.82Z" style="fill:#263238"></path><path d="M150.69,354.75c-1.3.13-1.44,5.69-1.94,11.26-.53,6-2.43,8.51-2.93,13.41-.57,5.6-.12,8.08,2.25,11.36s10.35,6.3,14,1.34c3-4.05,2.89-8.42,2.35-14a126.24,126.24,0,0,1-.94-14.14c.06-4.18.79-8.07-.37-8.49-.06.61-.11,1.39-.17,2s-.08,2.72-.81,2.77a8.23,8.23,0,0,1-.09-1.57,1.7,1.7,0,0,0-.42-1.33,5,5,0,0,0-2.06-.68c-1.29-.18-2.59-.33-3.91-.39-.65,0-1.3,0-2,0a6,6,0,0,0-1.64.27,1.11,1.11,0,0,0-.68.6,1.49,1.49,0,0,0,0,.63,4.4,4.4,0,0,1-.11,1.15c0,.17-.16.38-.35.34s-.22-.19-.23-.33c0-.67,0-1.16,0-1.94,0-.37,0-.86,0-1.22S150.68,355.1,150.69,354.75Z" style="fill:#8CAC89"></path><path d="M150.69,354.75c-1.3.13-1.44,5.69-1.94,11.26-.53,6-2.43,8.51-2.93,13.41-.57,5.6-.12,8.08,2.25,11.36s10.35,6.3,14,1.34c3-4.05,2.89-8.42,2.35-14a126.24,126.24,0,0,1-.94-14.14c.06-4.18.79-8.07-.37-8.49-.06.61-.11,1.39-.17,2s-.08,2.72-.81,2.77a8.23,8.23,0,0,1-.09-1.57,1.7,1.7,0,0,0-.42-1.33,5,5,0,0,0-2.06-.68c-1.29-.18-2.59-.33-3.91-.39-.65,0-1.3,0-2,0a6,6,0,0,0-1.64.27,1.11,1.11,0,0,0-.68.6,1.49,1.49,0,0,0,0,.63,4.4,4.4,0,0,1-.11,1.15c0,.17-.16.38-.35.34s-.22-.19-.23-.33c0-.67,0-1.16,0-1.94,0-.37,0-.86,0-1.22S150.68,355.1,150.69,354.75Z" style="opacity:0.4"></path><path d="M161.05,378.22a.51.51,0,0,1-.17,0,21.41,21.41,0,0,0-11.31-.61.5.5,0,0,1-.6-.3.43.43,0,0,1,.34-.53,22.28,22.28,0,0,1,12,.65.41.41,0,0,1,.25.56A.5.5,0,0,1,161.05,378.22Z" style="fill:#f0f0f0"></path><path d="M149.69,373.42a.49.49,0,0,1-.42-.28.41.41,0,0,1,.28-.55c5.77-2,11.68.44,11.93.55a.4.4,0,0,1,.23.57.51.51,0,0,1-.64.2c-.06,0-5.8-2.36-11.17-.52A.76.76,0,0,1,149.69,373.42Z" style="fill:#f0f0f0"></path><path d="M149.85,369.49a.48.48,0,0,1-.42-.27.4.4,0,0,1,.26-.55,16.85,16.85,0,0,1,12.18.5.42.42,0,0,1,.19.59.52.52,0,0,1-.66.16,16,16,0,0,0-11.34-.46A.76.76,0,0,1,149.85,369.49Z" style="fill:#f0f0f0"></path><path d="M150,365.08a.49.49,0,0,1-.41-.26.41.41,0,0,1,.25-.56c6-2.22,12,.5,12.27.62a.4.4,0,0,1,.2.58.51.51,0,0,1-.65.18c-.06,0-5.92-2.66-11.44-.6A.54.54,0,0,1,150,365.08Z" style="fill:#ebebeb"></path><path d="M158.39,215.33c-1.63,21.11-3.11,77.18-3.11,77.18-.34,2.62-3.73,9.31-4.34,18.77-.89,13.74-.73,36.86-.73,36.86s8.27,3.87,14.39,1.63c0,0,10.18-39.79,12.47-49.65,2.72-11.75,5.62-40.29,5.62-40.29l3.63,35.63a81.17,81.17,0,0,0,0,17.07c.7,6.28,4.22,32,4.22,32s9.14,1.91,15.79,0c0,0,2.39-43.84,2.75-49.6.42-6.58.06-78.33.06-78.33Z" style="fill:#37474f"></path><path d="M182.69,259.83l3.09-19.8s7.26-.24,12.27-4.87c0,0-.65,4.65-9.75,7.39l-3.53,16.7,1.45,35.63Z" style="fill:#8CAC89;opacity:0.25"></path><path d="M182.69,259.83l3.09-19.8s7.26-.24,12.27-4.87c0,0-.65,4.65-9.75,7.39l-3.53,16.7,1.45,35.63Z" style="fill:#263238"></path></g><g id="freepik--Top--inject-64"><path d="M209.62,154.74s6.43,1.76,10.36,5.38c2.92,2.68,4,8,5.14,13.22,1.34,6.16,5.44,32,5.44,32a24.07,24.07,0,0,1-18,4.77l-5.76-35.71Z" style="fill:#8CAC89"></path><path d="M209.62,154.74s6.43,1.76,10.36,5.38c2.92,2.68,4,8,5.14,13.22,1.34,6.16,5.44,32,5.44,32a24.07,24.07,0,0,1-18,4.77l-5.76-35.71Z" style="opacity:0.15"></path><path d="M230.45,210.4c1.32,2.26,7.88,14.47,10.39,18.65,1.83,3.06,7.44,13.26,8.4,15.39,1.94,4.32,4.85,9.29,4.35,14.22a34.69,34.69,0,0,0-.44,3.51c0,1.39.16,2.77-.71,3.93-.26.34-.7.59-.91,1s-.26,1.21-.57,1.73c-.86,1.41-1.93,0-2.48-.84-2.23-3.47-3.53-7.42-5.75-10.88a36.49,36.49,0,0,0-3-4.28c-.2-.24-.82-.67-1.15-.5s-.2.87-.2,1.22c0,.87.05,1.74,0,2.61a4.3,4.3,0,0,1-1.39,3.14,1.5,1.5,0,0,1-1.77.19,1.48,1.48,0,0,1-.51-1c0-.39,0-.78,0-1.17,0-1.61-.9-3.06-1.35-4.6a15.77,15.77,0,0,1-.4-4.8,28.71,28.71,0,0,0-.07-4.82,9.61,9.61,0,0,0-1.8-4.68c-1.06-1.34-3.75-4.95-6-7.67-3.94-4.84-7-8.33-9.69-12.59Z" style="fill:#b16668"></path><path d="M212,206.48l.18,1.12a20.54,20.54,0,0,0,9.89-.56c5.8-1.63,8.07-4.4,8.07-4.4l-.25-1.55s1-.65,1.29,1.78.14,5,1,7.07,1.33,3.64.57,4.38c0,0-1.35,2-6.68,4.23a24.11,24.11,0,0,1-9.86,1.87,2.62,2.62,0,0,1-2.32-1.5,22.17,22.17,0,0,1-1.91-6.11C211.23,209.2,210.49,206.72,212,206.48Z" style="fill:#8CAC89"></path><path d="M212,206.48l.18,1.12a20.54,20.54,0,0,0,9.89-.56c5.8-1.63,8.07-4.4,8.07-4.4l-.25-1.55s1-.65,1.29,1.78.14,5,1,7.07,1.33,3.64.57,4.38c0,0-1.35,2-6.68,4.23a24.11,24.11,0,0,1-9.86,1.87,2.62,2.62,0,0,1-2.32-1.5,22.17,22.17,0,0,1-1.91-6.11C211.23,209.2,210.49,206.72,212,206.48Z" style="fill:#fff;opacity:0.15"></path><path d="M165.91,170.64c-6.9,23.34-8,52.85-8,52.85,6.64,6.09,42.11,9.63,50.85-.29.1-18,4-28.45,7.76-46.78,1.91-9.47.94-20.28-10.87-23.21-8.23-2-12.28-1.08-16.75-1a131.12,131.12,0,0,0-16.56,3C169.93,155.8,168.08,163.33,165.91,170.64Z" style="fill:#8CAC89"></path><path d="M177.08,154.08c2.19.68,4.62,7.78,4.7,17.22.08,8.85-2.55,22.56-2.55,22.56l5.05-.26s2.41-15.68,2.52-22.3S185.55,156.74,183,153A13,13,0,0,0,177.08,154.08Z" style="fill:#263238"></path><path d="M211.12,155.22c1.78.68,4.53,8.11,3.41,17.41-1,8.33-3.67,20.55-3.67,20.55h-5s3.1-15.27,3.77-20.6c.89-7-.08-15.43-2.35-18.86A16.68,16.68,0,0,1,211.12,155.22Z" style="fill:#263238"></path><path d="M209.22,227.1s.14-13.31,1-18.56,2.26-13.4,3.54-17.06c0,0-.6-.46-12.92-.82a142.75,142.75,0,0,0-23.53,1.44,86.4,86.4,0,0,0-5.48,19.26c-2,11.71-1.71,18.62-1.71,18.62S196.68,234.32,209.22,227.1Z" style="fill:#37474f"></path><path d="M226.22,110.57c-.84,0-1.61,1.71-2.62,1.44,1.15-.74,2.67-5.58.18-4.88-3,.83-5.6-.22-8.36-1.22a34,34,0,0,0-8.09-1.68,19.34,19.34,0,0,0-8.28.73,8.8,8.8,0,0,0-3.39,1.89c-.22.2-1.76,2.83-1.51,2.82-5.27.24-8.1,5.19-8.7,10.43-.07.65-.12,1.29-.13,1.93v0a34.18,34.18,0,0,0,2.73,13.11c.27.69.54,1.36.8,2,1.12,2.74,2.12,5,2.25,6.49h0l.11.07a1.09,1.09,0,0,0,.17.13c1.81,1.1,3.15-2.07,4.93-4.24a7.54,7.54,0,0,1,.52-.59,5.2,5.2,0,0,1,.55-.51,2.64,2.64,0,0,1,.29-.21,3.65,3.65,0,0,1,.6-.34,2.54,2.54,0,0,1,1-.2c.25,0,.51,0,.76,0l.17,0a24.12,24.12,0,0,1,4.14-.36,13.25,13.25,0,0,0,5.69-1.25,23.68,23.68,0,0,0,8.91-6.92c1.54-1.86,2.64-4.15,4.56-5.56,1.6-1.19,3-3.23,1.2-4.91,1.86-1.83,2.2-3.5,2.46-6.14C227.21,112,227,110.54,226.22,110.57Z" style="fill:#263238"></path><path d="M202.56,116.88a10.62,10.62,0,0,1-7.25,6.55,17,17,0,0,1-.95,6.63,4.38,4.38,0,0,1-.76,1.49,1.92,1.92,0,0,1-1.47.72c-.76,0-1-.52-1.18-1.14a18.09,18.09,0,0,0-.9-2.31,4.07,4.07,0,0,0-.57-.92c-1-1.19-4.26-2.86-6.23.56s.38,8.82,3,9.89c4.55,1.84,5.93-1.24,5.93-1.24l-2.5,15c4.79,6,13.26,14.36,13.42,19.23a31,31,0,0,0,2.12-15.21l1.29-5.45a22,22,0,0,0,5.67.84c3.48-.25,7-4.85,8.35-8.46,2.83-7.43,3.73-18.6,2-24.05C215.81,123.56,209.39,118.5,202.56,116.88Z" style="fill:#b16668"></path><path d="M206.53,150.64s-6.25-1.76-9.12-4c-1.61-1.25-3-4.88-3.38-6,0,0,.17,4.31,1.58,6.5,2.14,3.32,10.41,5.64,10.41,5.64Z" style="fill:#9a4a4d"></path><path d="M203.12,171.3c-.45-3.08-3.12-5.84-6.72-4.32s-5.58,5.65-5.58,5.65-4.86-10.9-5.37-16.69c-.13-1.52-.82-2.1.53-4.35s3.41-5.93,4.71-5.42l-.48,2.84a47.86,47.86,0,0,0,3.68,7c2,2.89,6.89,8.84,8.12,10.47S203.15,169.61,203.12,171.3Z" style="fill:#8CAC89"></path><path d="M203.12,171.3c-.45-3.08-3.12-5.84-6.72-4.32s-5.58,5.65-5.58,5.65-4.86-10.9-5.37-16.69c-.13-1.52-.82-2.1.53-4.35s3.41-5.93,4.71-5.42l-.48,2.84a47.86,47.86,0,0,0,3.68,7c2,2.89,6.89,8.84,8.12,10.47S203.15,169.61,203.12,171.3Z" style="opacity:0.15"></path><path d="M203.12,171.3a44.9,44.9,0,0,0,1.61-8.46c.3-3.13.51-6.75.51-6.75l.94-4a3.07,3.07,0,0,1,2.22,1.6,18.87,18.87,0,0,1,2.46,7.34,61.19,61.19,0,0,1,.7,6.68,6.77,6.77,0,0,0-3.42-2.06C206.4,165.48,205.36,168.68,203.12,171.3Z" style="fill:#8CAC89"></path><path d="M203.12,171.3a44.9,44.9,0,0,0,1.61-8.46c.3-3.13.51-6.75.51-6.75l.94-4a3.07,3.07,0,0,1,2.22,1.6,18.87,18.87,0,0,1,2.46,7.34,61.19,61.19,0,0,1,.7,6.68,6.77,6.77,0,0,0-3.42-2.06C206.4,165.48,205.36,168.68,203.12,171.3Z" style="opacity:0.15"></path><path d="M209.41,145.47a.91.91,0,0,0,.18.21c.78.78,2.22.42,3.15.19.32-.08.62-.18.91,0a2.4,2.4,0,0,1,.59,1.14,7.37,7.37,0,0,1,.35,3.48c-.17.86-.51,1.72-1.71,1.61a2.74,2.74,0,0,1-.72-.23c-.09,0-.22-.11-.31-.14s-.37,0-.58.22c-.45.43-.73.81-1.39.83a1.7,1.7,0,0,1-1.27-.5c-.16-.2-.24-.42-.47-.42s-.42.19-.57.25a2,2,0,0,1-.8.16,1.55,1.55,0,0,1-1.38-1.56,2.15,2.15,0,0,1-.8.34,2.74,2.74,0,0,1-1.39-.12,1.58,1.58,0,0,1-1-1.57,1.21,1.21,0,0,1-1.5-.35,2.28,2.28,0,0,1,0-1.72,9.73,9.73,0,0,1,1.14-2.33c.19-.3.75-1.09,1.18-1.09.23,0,.39.24.57.38a4,4,0,0,0,1.36.78,2.07,2.07,0,0,0,1.53,0,1.31,1.31,0,0,0,.47-1.33,3.9,3.9,0,0,0,1,.43,4.18,4.18,0,0,0,1.41.17,1.78,1.78,0,0,0-.13.44A.89.89,0,0,0,209.41,145.47Z" style="fill:#263238"></path><polygon points="213.08 128.35 211.85 138.28 216.87 138.6 213.08 128.35" style="fill:#9a4a4d"></polygon><path d="M206.72,139.49l4.92,2a2.55,2.55,0,0,1-3.4,1.49A2.79,2.79,0,0,1,206.72,139.49Z" style="fill:#9a4a4d"></path><path d="M207.08,140.68a1.82,1.82,0,0,0-.52,0,2.79,2.79,0,0,0,1.68,2.36.85.85,0,0,0,.17.06.69.69,0,0,0,.07-.15A1.88,1.88,0,0,0,207.08,140.68Z" style="fill:#f28f8f"></path><path d="M205,130.52a1.58,1.58,0,1,0,1.8-1.32A1.58,1.58,0,0,0,205,130.52Z" style="fill:#263238"></path><path d="M217.45,131.23a1.58,1.58,0,1,0,1.8-1.32A1.58,1.58,0,0,0,217.45,131.23Z" style="fill:#263238"></path><path d="M207.4,125.45l-3.93.62a2.08,2.08,0,0,1,1.71-2.33A1.94,1.94,0,0,1,207.4,125.45Z" style="fill:#263238"></path><path d="M221.76,126.87l-4-.54a1.93,1.93,0,0,1,2.19-1.74A2.1,2.1,0,0,1,221.76,126.87Z" style="fill:#263238"></path><g id="freepik--Pencil--inject-64"><path d="M180.79,129.31l.36-.17.43-.19,14.66-6.66a1.89,1.89,0,0,0,.13,1.44c.27.67.75,1.23,1.12,1.28L183,131.61l-.83.38C182.65,131.71,181.32,129,180.79,129.31Z" style="fill:#8CAC89"></path><path d="M180.79,129.31l.36-.17.43-.19,14.66-6.66a1.89,1.89,0,0,0,.13,1.44c.27.67.75,1.23,1.12,1.28L183,131.61l-.83.38C182.65,131.71,181.32,129,180.79,129.31Z" style="opacity:0.2"></path><path d="M199.78,122.52c-.23-.38-.18-.55-.18-.55l-3.36.32a1.77,1.77,0,0,0,.16,1.93l.15-.07Z" style="fill:#ffa8a7"></path><polygon points="197.49 125.02 197.49 125.01 197.49 125.01 197.49 125.01 197.49 125.02 200 122.67 200 122.67 197.49 125.02" style="fill:#fafafa"></polygon><polygon points="200 122.67 200.61 122.1 200 122.67 200 122.67" style="fill:#e0e0e0"></polygon><path d="M200.51,121.88l-.91.09s-.06.17.18.55l.83-.42h0a.13.13,0,0,0,0-.18A.1.1,0,0,0,200.51,121.88Z" style="fill:#455a64"></path><path d="M183,131.61l14.54-6.6a1.58,1.58,0,0,1-1.09-.79l-14.46,6.42h0c.28.61.42,1.22.18,1.35Z" style="opacity:0.1"></path><path d="M197.49,125h0l2.51-2.34a.46.46,0,0,1-.22-.15l-3.23,1.63-.15.07A1.58,1.58,0,0,0,197.49,125Z" style="fill:#f28f8f"></path><path d="M199.78,122.52a.32.32,0,0,0,.21.16l.62-.58Z" style="fill:#37474f"></path><path d="M177.42,130.83l3.37-1.52c.22-.12.6.3.91.85.41.73.72,1.67.42,1.83h0l-3.24,1.47c-.73.4-1.7-.88-1.79-1.83A.77.77,0,0,1,177.42,130.83Z" style="fill:#f28f8f"></path><path d="M182.91,131.63l-.81.37c-.23.11-.6-.32-.91-.87-.41-.73-.71-1.67-.41-1.82l.59-.27.22-.09c-.31.15,0,1.09.41,1.82.29.53.65.94.88.87h0Z" style="fill:#ebebeb"></path><path d="M182.71,131.72c-.54.27-1.86-2.42-1.33-2.68l.81-.37c-.53.26.79,3,1.32,2.69Z" style="fill:#8CAC89"></path><path d="M184.28,131l-.8.36c-.52.26-1.82-2.32-1.37-2.67h0l.8-.36C182.42,128.6,183.75,131.28,184.28,131Z" style="fill:#ebebeb"></path></g><path d="M192.13,132.27c-.76,0-1-.52-1.18-1.14a18.09,18.09,0,0,0-.9-2.31,4.07,4.07,0,0,0-.57-.92c-1-1.19-4.26-2.86-6.23.56s.38,8.82,3,9.89c4.55,1.84,5.93-1.24,5.93-1.24Z" style="fill:#b16668"></path><path d="M214.87,133.19c-.44-1.19-1.8-1.49-3.31,1.17s-3.42,2.56-8.44,2.39c-3.87-.14-5.47-3.57-5.22-8.26l-8,0a3.81,3.81,0,0,0-1-1.13s11.57-.22,16.68-.16,6,2.88,8.18,2.93,2.92-2.2,6-2.32a34,34,0,0,1,3.71,0,.54.54,0,0,1,.5.48,21.14,21.14,0,0,1,0,4.63c-.36,2.59-.89,3.3-2.56,3.42s-5.32,0-5.32,0Z" style="fill:#455a64"></path><path d="M208.31,128.89c2.4.73,3,2.23,5.61,2.12s3.43-1.58,4.78-2c1.06-.36,4.42-.16,5.3-.1,0-.23,0-.44-.05-.6a.54.54,0,0,0-.5-.48,34,34,0,0,0-3.71,0c-3.09.12-3.86,2.36-6,2.32s-3.08-2.87-8.18-2.93-16.68.16-16.68.16a3.81,3.81,0,0,1,1,1.13l8,0C201.5,128.33,205.91,128.15,208.31,128.89Z" style="fill:#37474f"></path><path d="M199,129.74c-.06.25-.38,3.32.77,4.65s3.06,1.41,5.82,1.38,1.57-.42,0-.79-3.79-.78-4.71-2.26S199.2,129,199,129.74Z" style="fill:#fff;opacity:0.30000000000000004"></path><path d="M215.71,131.56a4.33,4.33,0,0,0,0,2.09,3.51,3.51,0,0,0,.77,1.72,27.3,27.3,0,0,0,5,.17c1.21-.13-.89-.63-2.12-1s-2.21-.49-2.72-1.69S216,131,215.71,131.56Z" style="fill:#fff;opacity:0.30000000000000004"></path><path d="M172.31,155.18c-9.4,2.62-12.21,3.33-15.49,14.87-2.91,10.2-10,29.45-11.69,39.76-1.07,6.63-.36,7.2,2.63,11.88,2.67,4.19,14.33,18.67,21.22,26.69,1.69,2,2.73,5.15,5.49,7.59,4.12,3.63,8.87,3.2,12.23,7.37,2.7,3.37,5.22,5.9,8,6.07,4.16.26,8.3.72,10.34-1.11,1.64-1.46-2.23-6.23-5-11.16a10,10,0,0,0,4.29-.23c2.2-1,1.94-2.3-.53-3.41-7.05-3.15-9.94-6.38-15-8.06s-6.15-2-8-5.13C175.14,230.8,163.08,213,163.08,213l11.29-34.35C176,168.57,175.11,158.25,172.31,155.18Z" style="fill:#b16668"></path><path d="M204.4,256.91a4.19,4.19,0,0,0,1-.57c-1,.7-3.28.44-4.48-.58s-2.57-3-4.43-4.37a18.68,18.68,0,0,0-5.51-2.09,13.64,13.64,0,0,1,4.75,3c1.63,1.86,4.42,4.85,4.42,4.85A10,10,0,0,0,204.4,256.91Z" style="fill:#9a4a4d"></path><path d="M174.09,154.74c-9.24,1.64-13.37,2-16.75,11.56s-12,36.08-12.68,45.06h19.53s9.59-28.17,10.83-31.56S177.64,161.39,174.09,154.74Z" style="fill:#8CAC89"></path><path d="M174.09,154.74c-9.24,1.64-13.37,2-16.75,11.56s-12,36.08-12.68,45.06h19.53s9.59-28.17,10.83-31.56S177.64,161.39,174.09,154.74Z" style="opacity:0.15"></path><path d="M165,209.08l.37-1.06s1.42.51.76,2.67a7.94,7.94,0,0,0,.62,5.42,4.38,4.38,0,0,1,.61,3.2c-.27,1.56-3.81,3.36-7.81,4.26a30.37,30.37,0,0,1-10.47,0c-1.75-.31-2.85-.72-4-3.13a21.43,21.43,0,0,1-1.39-10c.28-3.61.52-5.19,1.91-4.84l-.37,1.88s2.48,1.72,9.31,2.37S165,209.08,165,209.08Z" style="fill:#8CAC89"></path><path d="M165,209.08l.37-1.06s1.42.51.76,2.67a7.94,7.94,0,0,0,.62,5.42,4.38,4.38,0,0,1,.61,3.2c-.27,1.56-3.81,3.36-7.81,4.26a30.37,30.37,0,0,1-10.47,0c-1.75-.31-2.85-.72-4-3.13a21.43,21.43,0,0,1-1.39-10c.28-3.61.52-5.19,1.91-4.84l-.37,1.88s2.48,1.72,9.31,2.37S165,209.08,165,209.08Z" style="fill:#fff;opacity:0.15"></path></g></g></g><g id="freepik--Table--inject-64"><g id="freepik--table--inject-64"><g id="freepik--table--inject-64"><path d="M213.44,386.33l-49.27,35.55-13.48,9.73-6.39,3.68a.07.07,0,0,1-.06,0,2.36,2.36,0,0,1-.64.27l6.22-4.48,13.94-10.05,41.84-30.2Z" style="fill:#263238"></path><path d="M188.8,462.63l-.29-.15s-2.88-1.65-4.77-2.74a7.45,7.45,0,0,1-2.52-2.71l-54-111.46,7.84,4.52,51.46,106.13,3.22,6.61A2.86,2.86,0,0,1,188.8,462.63Z" style="fill:#37474f"></path><path d="M196.09,459.73l-4.74,2.73a2.78,2.78,0,0,1-1.66.37l-3.22-6.61L135,350.09l7.84-4.52L196.92,457A2.11,2.11,0,0,1,196.09,459.73Z" style="fill:#263238"></path><polygon points="167.95 418.02 175.79 413.49 213.44 386.32 205.59 390.85 167.95 418.02"></polygon><path d="M163.76,421.05,149.82,431.1l-6.22,4.48a2.74,2.74,0,0,1-2.14-.27s-2.88-1.64-4.78-2.74a1.15,1.15,0,0,1-.1-2.09l61.28-44.09,7.74,4.46Z" style="fill:#37474f"></path><path d="M152.25,430.48c-.86.62-2.31,1.56-3.23,2.09l-4.72,2.72a3,3,0,0,1-.7.29l6.22-4.48,13.94-10.05.41.83Z"></path><path d="M355.61,304.25l-49.27,35.54-13.48,9.73-6.39,3.69a.07.07,0,0,1-.06,0,2.73,2.73,0,0,1-.64.27L292,349,305.93,339l41.84-30.19Z" style="fill:#263238"></path><path d="M331,380.55l-.29-.15-4.77-2.75a7.34,7.34,0,0,1-2.52-2.7L269.34,263.49l7.84,4.52,51.46,106.13,3.22,6.6A2.84,2.84,0,0,1,331,380.55Z" style="fill:#37474f"></path><path d="M338.26,377.65l-4.74,2.73a2.7,2.7,0,0,1-1.66.36l-3.22-6.6L277.18,268l7.84-4.52L339.09,375A2.11,2.11,0,0,1,338.26,377.65Z" style="fill:#263238"></path><polygon points="310.12 335.94 317.97 331.41 355.61 304.24 347.76 308.77 310.12 335.94"></polygon><path d="M305.93,339,292,349l-6.22,4.48a2.79,2.79,0,0,1-2.14-.27s-2.88-1.65-4.77-2.74a1.15,1.15,0,0,1-.11-2.09L340,304.31l7.74,4.46Z" style="fill:#37474f"></path><path d="M294.43,348.39c-.87.63-2.32,1.57-3.24,2.1l-4.72,2.72a3.48,3.48,0,0,1-.7.29L292,349,305.93,339l.41.83Z"></path><polygon points="99.7 330.04 209.37 393.36 388.11 290.17 278.43 226.85 99.7 330.04" style="fill:#455a64"></polygon><polygon points="160.63 355.83 164.69 358.18 209.37 332.38 205.32 330.03 160.63 355.83" style="fill:#263238"></polygon><polygon points="99.7 330.04 99.7 339.42 209.38 402.74 209.37 393.36 99.7 330.04" style="fill:#263238"></polygon><polygon points="388.11 290.17 388.11 299.55 209.38 402.74 209.37 393.36 388.11 290.17" style="fill:#37474f"></polygon></g><g id="freepik--Wood--inject-64"><polygon points="400.3 245.61 245.94 334.73 189.07 301.9 343.43 212.78 400.3 245.61" style="fill:#8CAC89"></polygon><path d="M382.79,235.5c-7.5,4.34-15.1,8.81-18.07,11-4.41,3.26-7.54,7.48-17.27,13.09,0,0,11.08-5.19,15.46-9.32,2.76-2.61,13.13-8.82,21.64-13.77Z" style="fill:#fff;opacity:0.05"></path><path d="M241.57,332.21c8.57-5,44.84-25.64,49.19-27.93,12.64-6.65,23.73-12.26,39.95-21.55,0,0-7,4.6-23.64,13.66-7.8,4.25-15.07,8.08-18.85,10.1s-45.76,26.23-45.76,26.23Z" style="fill:#fff;opacity:0.05"></path><path d="M384.85,236.7l-3.67,2.12c-12.61,7.28-20.9,12.26-25.5,15.94s-15.07,9.83-19.91,12.54c0,0,6.18-2.9,16.44-9.07s11.09-7.87,26-16.48l7.72-4.46Z" style="opacity:0.1"></path><path d="M239.44,331c9-5.21,39.12-22.58,43.89-25.33s18-8.07,24.19-11.63a100.23,100.23,0,0,1-11.08,6.11c-6.82,3.29-50.18,28-56,31.4Z" style="opacity:0.1"></path><path d="M393.53,241.7l-36.27,21c-9.53,5.5-24.44,15.16-38,22.71-12.6,7.06-22.57,12.07-23.91,12.76,1.63-.72,15-6.67,24.87-12.37,10.54-6.09,29.3-17.42,40.85-24.11,7.73-4.46,23.08-13.33,33.49-19.36Z" style="fill:#fff;opacity:0.05"></path><path d="M233,327.28l45.11-26c7-4.05,17-10.55,28.89-17.41s22.26-12.1,30.37-16,16.38-8.65,16.38-8.65-7.38,4.78-19.82,11.18-26.89,14.32-38.62,22S234.21,328,234.21,328Z" style="fill:#fff;opacity:0.05"></path><path d="M382.4,235.28c-15.69,9-46.2,26.41-56.07,32.11C313.1,275.05,296,285.23,296,285.23s28.61-15.82,56.62-32l30.4-17.57Z" style="fill:#fff;opacity:0.05"></path><path d="M229.67,325.34l78.43-45.29c17.23-10,37.33-20.55,37.33-20.55s-13.76,8.6-34.92,20.85c-6.26,3.63-79.37,45.84-79.37,45.84l-1.47-.85Z" style="opacity:0.1"></path><path d="M396.11,243.2c-11.77,6.79-30.27,17.48-37,21.38-9.73,5.61-34.55,20.39-40.42,23.94,0,0,25.44-14,58.44-33l20.09-11.62Z" style="opacity:0.1"></path><path d="M390.77,240.11l-34.28,19.82c-9,5.17-25.71,12.52-40.08,20.82s-72.53,44.23-79.94,48.5l1.27.73c11.94-6.88,75.79-42.62,85.28-48.12s30.22-18.58,39.49-23.94L392,240.85ZM319.5,282.62c-7.79,4.49-22.48,12.67-23.08,12.32s13.52-9.24,20.95-13.53c8.43-4.87,21.39-11.55,22-11.19S327.26,278.13,319.5,282.62Z" style="opacity:0.1"></path><path d="M387.22,238.06c-7.51,4.34-15.13,8.81-18.22,10.94-4.57,3.17-8.26,7-18,12.66,0,0,10.76-5.36,15.52-9.27,3-2.47,13.43-8.65,22-13.59Z" style="fill:#fff;opacity:0.05"></path><path d="M204.93,311.05c9.32-5.39,48.78-27.91,53.5-30.41,13.7-7.27,25.72-13.41,43.36-23.53,0,0-7.67,5-25.73,14.87-8.47,4.64-16.35,8.82-20.45,11s-49.79,28.55-49.79,28.55Z" style="fill:#fff;opacity:0.05"></path><path d="M348.24,215.56c-9.35,5.49-14.21,8.58-18.22,11.71-5.11,3.94-16.51,10.66-21.76,13.61,0,0,6.64-3.2,17.85-9.89,10.29-6.17,10.31-7.24,23.16-14.84Z" style="opacity:0.1"></path><path d="M202.8,309.82l47.76-27.57c5.19-3,19.45-8.88,26.15-12.75a118.77,118.77,0,0,1-12,6.66c-7.38,3.61-54.54,30.53-60.92,34.22Z" style="opacity:0.1"></path><path d="M356.89,220.55c-10.32,6-20.54,11.87-25.84,14.95-10.38,6-26.69,16.43-41.43,24.69-13.32,7.47-24,12.9-25.83,13.86,2.2-1,16.27-7.4,26.81-13.48,11.48-6.63,31.92-19,44.5-26.22l22.84-13.19Z" style="fill:#fff;opacity:0.05"></path><path d="M196.4,306.13l49.09-28.35c7.62-4.4,18.59-11.45,31.51-18.91s24.17-13.21,32.93-17.52,17.76-9.45,17.76-9.45-8.06,5.19-21.55,12.18-29.17,15.65-42,24-66.57,38.76-66.57,38.76Z" style="fill:#fff;opacity:0.05"></path><path d="M345.7,214.09c-17.82,10.2-39,22.32-47.31,27.12-14.4,8.32-33,19.4-33,19.4s31.08-17.25,61.51-34.85l19.49-11.25Z" style="fill:#fff;opacity:0.05"></path><path d="M193,304.19l85.35-49.29c18.76-10.84,40.56-22.41,40.56-22.41s-15,9.33-38.06,22.66L194.5,305l-1.47-.84Z" style="opacity:0.1"></path><path d="M359.46,222l-26.61,15.39c-10.57,6.13-37.65,22.18-44,26.05,0,0,27.6-15.24,63.54-36l8.25-4.77Z" style="opacity:0.1"></path><path d="M354.14,219c-10.2,5.91-19.2,11.11-23.69,13.7-9.75,5.63-27.8,13.7-43.44,22.76s-79.12,48-87.17,52.68l1.27.73c13-7.5,82.35-46.44,92.73-52.43s32.94-20.15,43.08-26l18.49-10.69Zm-64,38.33c-8.48,4.89-24.47,13.79-25,13.46s14.83-10,22.91-14.67c9.17-5.29,23.21-12.6,23.84-12.24S298.53,252.39,290.1,257.29Z" style="opacity:0.1"></path><path d="M350.66,217c-3.5,2.09-4.76,2.91-6.31,4-5,3.43-9.2,7.58-19.77,13.69,0,0,11.67-5.86,16.94-10.06A108.64,108.64,0,0,1,352,217.72Z" style="fill:#fff;opacity:0.05"></path><path d="M377.67,232.55c-14.16,8.26-31.12,18.21-33.95,20-11.93,7.55-22,14.16-38.67,23.85,0,0,8.24-4.21,24.49-14.11,7.64-4.67,14.5-9,18.16-11.27,2.25-1.38,17.88-10.46,30.84-18Z" style="fill:#fff;opacity:0.05"></path><path d="M212.24,315.22l14.55-8.4c13.05-7.52,22-12.48,28.52-15.25s17.61-9,22.46-11.91c0,0-5.22,3.67-16.26,9.8S247.42,296.12,232,305l-18.75,10.81Z" style="opacity:0.1"></path><path d="M375.5,231.29l-29.21,16.88c-4.91,2.84-14.43,10.65-20.82,14.35A102.33,102.33,0,0,0,336.32,256c4.09-2.8,24.74-15,40.22-24.07Z" style="opacity:0.1"></path><path d="M225.78,317.42l43.46-25.07c9.86-5.68,27.14-14.62,40.71-22.71s23-14.38,23-14.38a255.68,255.68,0,0,1-22.37,14.93c-10.92,6.3-31.22,17.52-43.2,24.43l-45.48,26.23-.4-.23Z" style="fill:#fff;opacity:0.05"></path><path d="M369.09,227.59l-30.47,17.62c-7.28,4.18-18.91,10.2-31.22,17.28s-21.71,13.28-28.78,18.14-15.55,9.75-15.55,9.75,8.58-4.4,20.08-11.84,25.71-16,39.44-23.08c9-4.59,31.87-17.84,47.77-27.13Z" style="fill:#fff;opacity:0.05"></path><path d="M209.83,313.82s54.56-31.8,68.27-39.71,32-18.1,32-18.1-28.38,17.08-57.38,33.8l-42.25,24.37Z" style="fill:#fff;opacity:0.05"></path><path d="M365.73,225.66l-65,37.52c-17.88,10.29-36.88,22.29-36.88,22.29s15.41-8.23,37.36-20.88l66-38.09Z" style="opacity:0.1"></path><path d="M223.46,321.74l49.09-28.32c10.08-5.81,36.55-20.65,42.93-24.16,0,0-25.09,15.19-59.28,34.91L224.6,322.4Z" style="opacity:0.1"></path><path d="M372.2,229.39c-22,12.07-59.23,32.23-70.38,38.65-14.91,8.6-28.11,18.58-37.38,23.93s-46.27,26.68-46.27,26.68l1.22.74s31.75-18.3,41.38-23.87,33-17.94,42.91-23.61c7.69-4.44,46.86-27.75,70.22-41.54Zm-67.15,40.43c-8.05,4.65-21.57,12.29-22.21,11.91s11.38-8.09,20.1-13.13c7.69-4.44,23.65-12.88,24.25-12.53S313.1,265.17,305.05,269.82Z" style="opacity:0.1"></path><path d="M214.62,316.59c6-3.47,24.64-14.34,30.3-17.09s12.57-5,22.64-10.81c0,0-9.63,6.44-16.61,9.3s-35.09,19.37-35.09,19.37Z" style="fill:#fff;opacity:0.05"></path><polygon points="189.07 301.9 189.07 311.28 245.94 344.11 245.94 334.73 189.07 301.9" style="fill:#8CAC89"></polygon><polygon points="189.07 301.9 189.07 311.28 245.94 344.11 245.94 334.73 189.07 301.9" style="opacity:0.1"></polygon><polygon points="236.47 329.25 236.9 337.41 237.74 329.99 236.47 329.25" style="opacity:0.1"></polygon><polygon points="239.44 330.98 239.92 335.17 240.4 331.53 239.44 330.98" style="opacity:0.1"></polygon><polygon points="229.68 325.34 230.16 333.33 231.14 326.19 229.68 325.34" style="opacity:0.1"></polygon><polygon points="218.17 318.65 218.71 326.82 219.39 319.39 218.17 318.65" style="opacity:0.1"></polygon><polygon points="202.8 309.82 203.3 318.31 203.76 310.38 202.8 309.82" style="opacity:0.1"></polygon><polygon points="193.03 304.19 193.75 313.27 194.5 305.03 193.03 304.19" style="opacity:0.1"></polygon><polygon points="196.4 306.13 196.85 312.35 197.57 306.8 196.4 306.13" style="fill:#fff;opacity:0.05"></polygon><polyline points="209.83 313.82 210.01 319.73 210.44 314.18" style="fill:#fff;opacity:0.05"></polyline><polygon points="214.62 316.59 214.97 325.52 215.85 317.36 214.62 316.59" style="fill:#fff;opacity:0.05"></polygon><polygon points="241.57 332.21 241.88 341.14 242.46 332.72 241.57 332.21" style="fill:#fff;opacity:0.05"></polygon><polygon points="400.3 245.61 400.3 254.99 245.94 344.11 245.94 334.73 400.3 245.61" style="fill:#8CAC89"></polygon><polygon points="400.3 245.61 400.3 254.99 245.94 344.11 245.94 334.73 400.3 245.61" style="opacity:0.1"></polygon><path d="M400.29,248v1.6c-4.89,3.26-7.94,5.57-15.18,9.92-11.62,6.95-18.16,10.1-18.93,10.46,5.65-3.18,18.1-10.52,24.55-15.4C393.55,252.46,396.5,250.42,400.29,248Z" style="opacity:0.1"></path><path d="M385.07,261.67c-.55.35-9.66,6.16-23.14,13.06C348,281.86,331.35,291,316.56,300.59c-13.15,8.51-60.27,35.3-70.63,41.18v-1.6c12.32-7.11,43.53-25.1,51.33-29.62,8.28-4.79,20.88-12.88,34.92-21s25.56-13.89,34.38-18.12C375.1,267.34,384.49,262,385.07,261.67Z" style="fill:#fff;opacity:0.05"></path><path d="M379.78,259.57c-.65.4-17.42,10.81-42,25-6.74,3.91-78.78,45.5-91.86,53V335.7l90.74-52.4C356.75,271.69,379.09,259.93,379.78,259.57Z" style="opacity:0.1"></path><path d="M340.86,287.23c-11.62,6.71-48.58,29.31-73.59,44.56L322.35,300h0c5.78-3.73,13.46-8.44,18.39-11.29,5.45-3.15,12.27-6.8,17.32-9.33l16.28-9.4C364.6,274.79,352.64,280.4,340.86,287.23Z" style="opacity:0.1"></path><path d="M400.29,251.89v1.57l-.73.55c-6.39,4.95-17.21,10.37-18.54,11A178.89,178.89,0,0,0,400.29,251.89Z" style="fill:#fff;opacity:0.05"></path></g><g id="freepik--Saw--inject-64"><path d="M203.36,329.36c.57-1.21,1.62-1.76,2.1,0-.2-4.58-2-5.72-3.46-6.07.39-1.31,1.41-2.27,2.23-1-1-3.9-3.06-4.08-4.71-3.7.2-1.32,1.13-2.61,2.21-1.86-1.7-2.93-3.93-2.15-5.62-1.07,0-1.24.75-2.79,2-2.62-2.3-1.78-4.54-.09-6.16,1.62a2.88,2.88,0,0,1,1.72-3.2c-2.74-.5-4.84,2-6.27,4.21a3.15,3.15,0,0,1,1.29-3.56c-3,.81-4.81,3.93-6,6.51-.58-.53-.55-2.17.77-3.68-3.05,2.07-4.45,5.6-5.24,8.36-.7-.2-.94-1.64.2-3.55a17.34,17.34,0,0,0-4.16,9.65c-.78.15-1.28-1-.38-3.18a17.83,17.83,0,0,0-2.81,10.28c-.81.48-1.52-.28-.94-2.59-2,4.71-1.76,8-1.25,10.21-.78.78-1.67.45-1.44-1.83-1.35,5-.52,7.76.39,9.44-.7,1-1.7,1.15-1.83-.93-.36,3,0,4.94.6,6.22l.67-.38,11.19-6.47,5.82-3.36,2.73-1.57,5.8-3.35,10.3-5.95,2.31-1.33C205.39,331.61,204.35,330.18,203.36,329.36Z" style="fill:#fff"></path><path d="M203,330.23l-.43-.36L203,329a3.34,3.34,0,0,1,1.22-1.52,1.29,1.29,0,0,1,.39-.16c-.6-2.29-1.85-2.88-2.84-3.11l-.51-.12.28-.95a3.94,3.94,0,0,1,1.43-2.18,2.91,2.91,0,0,0-3.53-1.42l-.57.13.14-1a4.76,4.76,0,0,1,1.16-2.56c-1-.75-2.17-.69-3.64.16l-.36.22-.59.38V316a5.08,5.08,0,0,1,.48-2.18,4,4,0,0,1,.32-.57,3.32,3.32,0,0,0-2.21.5,9.06,9.06,0,0,0-2,1.65l-.56.59-.16-.77a4.52,4.52,0,0,1,.27-2.45c0-.1.08-.2.12-.3a4.06,4.06,0,0,0-1,.42,9.76,9.76,0,0,0-3.13,3.35l-.49.76-.3-.6a3.59,3.59,0,0,1-.08-2.47l0-.09a11.73,11.73,0,0,0-3.71,5.13l-.4.89-.42-.38a2.49,2.49,0,0,1-.49-2.12.28.28,0,0,1,0-.09,15.43,15.43,0,0,0-3.09,6.15l-.27.95-.51-.14c-.52-.15-.85-.75-.88-1.62v-.08a17.07,17.07,0,0,0-2.25,6.74l-.13,1-.56.1c-.58.11-1-.26-1.21-1a.64.64,0,0,1,0-.07,16.14,16.14,0,0,0-1.25,6.88v.9l-.6.35a.94.94,0,0,1-1.43-.35l0,0a13,13,0,0,0-.18,6.54l.18.76-.57.57a2.47,2.47,0,0,1-.49.39.92.92,0,0,1-1.14,0,9.12,9.12,0,0,0,.91,5.77l.31.58-.5.75a3,3,0,0,1-.9.9,1.06,1.06,0,0,1-.78.15,7.16,7.16,0,0,0,.83,3.27l11.19-6.47,5.82-3.36,2.73-1.57,5.8-3.35,10.3-5.95,0-.07a2.89,2.89,0,0,1,.9-.91,1.07,1.07,0,0,1,.79-.14C204.78,332.12,203.8,330.92,203,330.23Z" style="fill:#f0f0f0"></path><path d="M185.71,332.87c-4,2.33-7.29,9.24-7.29,15.44a15.81,15.81,0,0,0,.11,1.87l5.82-3.36,2.73-1.57,5.8-3.35a17.19,17.19,0,0,0,.12-2C193,333.69,189.74,330.55,185.71,332.87Z" style="fill:#e0e0e0"></path><path d="M187.57,343a5.65,5.65,0,0,1-.49,2.22l-2.73,1.57a2.41,2.41,0,0,1-.5-1.65,4.9,4.9,0,0,1,1.86-3.93C186.74,340.65,187.57,341.45,187.57,343Z" style="opacity:0.1"></path></g></g></g></svg>